<svg width="28" height="24" viewBox="0 0 28 24" fill="none" xmlns="http://www.w3.org/2000/svg">
<path d="M27.5 11C27.5011 9.92509 27.2356 8.86669 26.7273 7.91956C26.219 6.97243 25.4837 6.16615 24.5873 5.57291C23.691 4.97967 22.6615 4.61799 21.591 4.52026C20.5205 4.42253 19.4426 4.59179 18.4536 5.0129C17.4646 5.43401 16.5955 6.09381 15.924 6.93323C15.2526 7.77264 14.7998 8.76547 14.6063 9.82281C14.4127 10.8801 14.4844 11.969 14.8149 12.9918C15.1453 14.0147 15.7243 14.9396 16.5 15.6838V23C16.4999 23.0853 16.5217 23.1691 16.5632 23.2436C16.6047 23.3181 16.6645 23.3808 16.7371 23.4256C16.8096 23.4705 16.8924 23.496 16.9776 23.4999C17.0627 23.5037 17.1475 23.4857 17.2238 23.4475L21 21.5588L24.7763 23.4475C24.8458 23.4819 24.9224 23.4999 25 23.5C25.1326 23.5 25.2598 23.4473 25.3536 23.3536C25.4473 23.2598 25.5 23.1326 25.5 23V15.6838C26.1324 15.0786 26.6356 14.3515 26.9793 13.5466C27.3231 12.7416 27.5002 11.8753 27.5 11ZM15.5 11C15.5 9.9122 15.8226 8.84883 16.4269 7.94436C17.0313 7.03989 17.8902 6.33495 18.8952 5.91866C19.9002 5.50238 21.0061 5.39346 22.073 5.60568C23.1399 5.8179 24.1199 6.34172 24.8891 7.11091C25.6583 7.8801 26.1821 8.86011 26.3943 9.927C26.6065 10.9939 26.4976 12.0998 26.0813 13.1048C25.6651 14.1098 24.9601 14.9687 24.0556 15.5731C23.1512 16.1774 22.0878 16.5 21 16.5C19.5418 16.4983 18.1438 15.9184 17.1127 14.8873C16.0816 13.8562 15.5017 12.4582 15.5 11ZM24.5 22.1912L21.2238 20.5525C21.1543 20.5177 21.0777 20.4996 21 20.4996C20.9223 20.4996 20.8457 20.5177 20.7763 20.5525L17.5 22.1912V16.4725C18.5441 17.1433 19.759 17.5 21 17.5C22.241 17.5 23.4559 17.1433 24.5 16.4725V22.1912ZM13.5 19C13.5 19.1326 13.4473 19.2598 13.3536 19.3536C13.2598 19.4473 13.1326 19.5 13 19.5H2C1.60218 19.5 1.22064 19.342 0.93934 19.0607C0.658035 18.7794 0.5 18.3978 0.5 18V2C0.5 1.60218 0.658035 1.22064 0.93934 0.93934C1.22064 0.658035 1.60218 0.5 2 0.5H24C24.3978 0.5 24.7794 0.658035 25.0607 0.93934C25.342 1.22064 25.5 1.60218 25.5 2C25.5 2.13261 25.4473 2.25979 25.3536 2.35355C25.2598 2.44732 25.1326 2.5 25 2.5C24.8674 2.5 24.7402 2.44732 24.6465 2.35355C24.5527 2.25979 24.5 2.13261 24.5 2C24.5 1.86739 24.4473 1.74021 24.3536 1.64645C24.2598 1.55268 24.1326 1.5 24 1.5H2C1.86739 1.5 1.74022 1.55268 1.64645 1.64645C1.55268 1.74021 1.5 1.86739 1.5 2V18C1.5 18.1326 1.55268 18.2598 1.64645 18.3536C1.74022 18.4473 1.86739 18.5 2 18.5H13C13.1326 18.5 13.2598 18.5527 13.3536 18.6464C13.4473 18.7402 13.5 18.8674 13.5 19ZM11.5 12C11.5 12.1326 11.4473 12.2598 11.3536 12.3536C11.2598 12.4473 11.1326 12.5 11 12.5H6C5.86739 12.5 5.74021 12.4473 5.64645 12.3536C5.55268 12.2598 5.5 12.1326 5.5 12C5.5 11.8674 5.55268 11.7402 5.64645 11.6464C5.74021 11.5527 5.86739 11.5 6 11.5H11C11.1326 11.5 11.2598 11.5527 11.3536 11.6464C11.4473 11.7402 11.5 11.8674 11.5 12ZM11.5 8C11.5 8.13261 11.4473 8.25979 11.3536 8.35355C11.2598 8.44732 11.1326 8.5 11 8.5H6C5.86739 8.5 5.74021 8.44732 5.64645 8.35355C5.55268 8.25979 5.5 8.13261 5.5 8C5.5 7.86739 5.55268 7.74021 5.64645 7.64645C5.74021 7.55268 5.86739 7.5 6 7.5H11C11.1326 7.5 11.2598 7.55268 11.3536 7.64645C11.4473 7.74021 11.5 7.86739 11.5 8Z" fill="#63696E"/>
</svg>
