<svg width="28" height="28" viewBox="0 0 28 28" fill="none" xmlns="http://www.w3.org/2000/svg">
<path d="M13.9337 22C14.4003 22 14.795 21.8386 15.1177 21.516C15.4403 21.1933 15.6012 20.7991 15.6003 20.3333C15.6003 19.8666 15.4394 19.472 15.1177 19.1493C14.7959 18.8266 14.4012 18.6657 13.9337 18.6666C13.467 18.6666 13.0728 18.828 12.751 19.1506C12.4292 19.4733 12.2679 19.8675 12.267 20.3333C12.267 20.8 12.4283 21.1946 12.751 21.5173C13.0737 21.84 13.4679 22.0008 13.9337 22ZM12.7337 16.8666H15.2003C15.2003 16.1333 15.2839 15.5555 15.451 15.1333C15.6181 14.7111 16.0901 14.1333 16.867 13.4C17.4448 12.8222 17.9003 12.272 18.2337 11.7493C18.567 11.2266 18.7337 10.5991 18.7337 9.86663C18.7337 8.62218 18.2781 7.66663 17.367 6.99996C16.4559 6.33329 15.3781 5.99996 14.1337 5.99996C12.867 5.99996 11.8394 6.33329 11.051 6.99996C10.2625 7.66663 9.71233 8.46663 9.40033 9.39996L11.6003 10.2666C11.7114 9.86663 11.9617 9.43329 12.351 8.96663C12.7403 8.49996 13.3345 8.26663 14.1337 8.26663C14.8448 8.26663 15.3781 8.46129 15.7337 8.85063C16.0892 9.23996 16.267 9.66752 16.267 10.1333C16.267 10.5777 16.1337 10.9946 15.867 11.384C15.6003 11.7733 15.267 12.1342 14.867 12.4666C13.8892 13.3333 13.2892 13.9888 13.067 14.4333C12.8448 14.8777 12.7337 15.6888 12.7337 16.8666ZM14.0003 27.3333C12.1559 27.3333 10.4225 26.9835 8.80033 26.284C7.1781 25.5844 5.76699 24.6342 4.56699 23.4333C3.36699 22.2333 2.41721 20.8222 1.71766 19.2C1.0181 17.5777 0.667881 15.8444 0.666992 14C0.666992 12.1555 1.01721 10.4222 1.71766 8.79996C2.4181 7.17774 3.36788 5.76663 4.56699 4.56663C5.76699 3.36663 7.1781 2.41685 8.80033 1.71729C10.4225 1.01774 12.1559 0.667515 14.0003 0.666626C15.8448 0.666626 17.5781 1.01685 19.2003 1.71729C20.8225 2.41774 22.2337 3.36752 23.4337 4.56663C24.6337 5.76663 25.5839 7.17774 26.2843 8.79996C26.9848 10.4222 27.3345 12.1555 27.3337 14C27.3337 15.8444 26.9834 17.5777 26.283 19.2C25.5825 20.8222 24.6328 22.2333 23.4337 23.4333C22.2337 24.6333 20.8225 25.5835 19.2003 26.284C17.5781 26.9844 15.8448 27.3342 14.0003 27.3333ZM14.0003 24.6666C16.9781 24.6666 19.5003 23.6333 21.567 21.5666C23.6337 19.5 24.667 16.9777 24.667 14C24.667 11.0222 23.6337 8.49996 21.567 6.43329C19.5003 4.36663 16.9781 3.33329 14.0003 3.33329C11.0225 3.33329 8.50033 4.36663 6.43366 6.43329C4.36699 8.49996 3.33366 11.0222 3.33366 14C3.33366 16.9777 4.36699 19.5 6.43366 21.5666C8.50033 23.6333 11.0225 24.6666 14.0003 24.6666Z" fill="#fff"/>
</svg>
