<svg width="28" height="22" viewBox="0 0 28 22" fill="none" xmlns="http://www.w3.org/2000/svg">
<path fill-rule="evenodd" clip-rule="evenodd" d="M6.39961 8.16003C7.2483 8.16003 8.06223 7.82289 8.66235 7.22278C9.26247 6.62266 9.59961 5.80873 9.59961 4.96003C9.59961 4.11134 9.26247 3.29741 8.66235 2.69729C8.06223 2.09718 7.2483 1.76003 6.39961 1.76003C5.55092 1.76003 4.73698 2.09718 4.13687 2.69729C3.53675 3.29741 3.19961 4.11134 3.19961 4.96003C3.19961 5.80873 3.53675 6.62266 4.13687 7.22278C4.73698 7.82289 5.55092 8.16003 6.39961 8.16003ZM6.39961 9.76003C7.02995 9.76003 7.65413 9.63588 8.23649 9.39466C8.81885 9.15343 9.348 8.79987 9.79372 8.35415C10.2394 7.90843 10.593 7.37928 10.8342 6.79691C11.0755 6.21455 11.1996 5.59038 11.1996 4.96003C11.1996 4.32969 11.0755 3.70552 10.8342 3.12315C10.593 2.54079 10.2394 2.01164 9.79372 1.56592C9.348 1.1202 8.81885 0.766635 8.23649 0.525413C7.65413 0.28419 7.02995 0.160034 6.39961 0.160034C5.12657 0.160034 3.90567 0.665747 3.0055 1.56592C2.10532 2.4661 1.59961 3.687 1.59961 4.96003C1.59961 6.23307 2.10532 7.45397 3.0055 8.35415C3.90567 9.25432 5.12657 9.76003 6.39961 9.76003Z" fill="#2967BC"/>
<path fill-rule="evenodd" clip-rule="evenodd" d="M4.5662 7.99359C4.64071 8.06791 4.69981 8.15619 4.74014 8.25338C4.78048 8.35057 4.80123 8.45477 4.80123 8.55999C4.80123 8.66522 4.78048 8.76942 4.74014 8.86661C4.69981 8.9638 4.64071 9.05208 4.5662 9.12639L4.0254 9.66559C2.98466 10.7066 2.39994 12.1184 2.3998 13.5904V16.56C2.3998 16.7722 2.31552 16.9757 2.16549 17.1257C2.01546 17.2757 1.81198 17.36 1.5998 17.36C1.38763 17.36 1.18415 17.2757 1.03412 17.1257C0.88409 16.9757 0.799805 16.7722 0.799805 16.56V13.5904C0.800032 11.694 1.55338 9.87542 2.8942 8.53439L3.4334 7.99359C3.50772 7.91909 3.596 7.85999 3.69319 7.81965C3.79038 7.77932 3.89458 7.75856 3.9998 7.75856C4.10503 7.75856 4.20923 7.77932 4.30642 7.81965C4.40361 7.85999 4.49189 7.91909 4.5662 7.99359ZM23.4334 7.51359C23.3589 7.58791 23.2998 7.67619 23.2595 7.77338C23.2191 7.87057 23.1984 7.97477 23.1984 8.07999C23.1984 8.18522 23.2191 8.28942 23.2595 8.38661C23.2998 8.4838 23.3589 8.57208 23.4334 8.64639L23.9742 9.18559C24.4896 9.70101 24.8984 10.3129 25.1774 10.9863C25.4563 11.6597 25.5998 12.3815 25.5998 13.1104V16.56C25.5998 16.7722 25.6841 16.9757 25.8341 17.1257C25.9841 17.2757 26.1876 17.36 26.3998 17.36C26.612 17.36 26.8155 17.2757 26.9655 17.1257C27.1155 16.9757 27.1998 16.7722 27.1998 16.56V13.1104C27.1996 11.214 26.4462 9.39541 25.1054 8.05439L24.5662 7.51359C24.4919 7.43909 24.4036 7.37998 24.3064 7.33965C24.2092 7.29932 24.105 7.27856 23.9998 7.27856C23.8946 7.27856 23.7904 7.29932 23.6932 7.33965C23.596 7.37998 23.5077 7.43909 23.4334 7.51359Z" fill="#2967BC"/>
<path fill-rule="evenodd" clip-rule="evenodd" d="M20.8 8.16003C19.9513 8.16003 19.1374 7.82289 18.5373 7.22278C17.9371 6.62266 17.6 5.80873 17.6 4.96003C17.6 4.11134 17.9371 3.29741 18.5373 2.69729C19.1374 2.09718 19.9513 1.76003 20.8 1.76003C21.6487 1.76003 22.4626 2.09718 23.0627 2.69729C23.6629 3.29741 24 4.11134 24 4.96003C24 5.80873 23.6629 6.62266 23.0627 7.22278C22.4626 7.82289 21.6487 8.16003 20.8 8.16003ZM20.8 9.76003C20.1697 9.76003 19.5455 9.63588 18.9631 9.39466C18.3808 9.15343 17.8516 8.79987 17.4059 8.35415C16.9602 7.90843 16.6066 7.37928 16.3654 6.79691C16.1242 6.21455 16 5.59038 16 4.96003C16 4.32969 16.1242 3.70552 16.3654 3.12315C16.6066 2.54079 16.9602 2.01164 17.4059 1.56592C17.8516 1.1202 18.3808 0.766635 18.9631 0.525413C19.5455 0.28419 20.1697 0.160034 20.8 0.160034C22.073 0.160034 23.2939 0.665747 24.1941 1.56592C25.0943 2.4661 25.6 3.687 25.6 4.96003C25.6 6.23307 25.0943 7.45397 24.1941 8.35415C23.2939 9.25432 22.073 9.76003 20.8 9.76003ZM13.6 14.96C12.5391 14.96 11.5217 15.3815 10.7716 16.1316C10.0214 16.8818 9.6 17.8992 9.6 18.96V21.04C9.6 21.2522 9.51571 21.4557 9.36569 21.6057C9.21566 21.7557 9.01217 21.84 8.8 21.84C8.58783 21.84 8.38434 21.7557 8.23431 21.6057C8.08429 21.4557 8 21.2522 8 21.04V18.96C8 17.4748 8.59 16.0504 9.6402 15.0002C10.6904 13.95 12.1148 13.36 13.6 13.36C15.0852 13.36 16.5096 13.95 17.5598 15.0002C18.61 16.0504 19.2 17.4748 19.2 18.96V21.04C19.2 21.2522 19.1157 21.4557 18.9657 21.6057C18.8157 21.7557 18.6122 21.84 18.4 21.84C18.1878 21.84 17.9843 21.7557 17.8343 21.6057C17.6843 21.4557 17.6 21.2522 17.6 21.04V18.96C17.6 18.4347 17.4965 17.9146 17.2955 17.4293C17.0945 16.944 16.7999 16.503 16.4284 16.1316C16.057 15.7602 15.616 15.4655 15.1307 15.2645C14.6454 15.0635 14.1253 14.96 13.6 14.96Z" fill="#2967BC"/>
<path fill-rule="evenodd" clip-rule="evenodd" d="M13.5998 12.5601C14.4485 12.5601 15.2624 12.2229 15.8625 11.6228C16.4627 11.0227 16.7998 10.2088 16.7998 9.36006C16.7998 8.51137 16.4627 7.69743 15.8625 7.09732C15.2624 6.4972 14.4485 6.16006 13.5998 6.16006C12.7511 6.16006 11.9372 6.4972 11.3371 7.09732C10.7369 7.69743 10.3998 8.51137 10.3998 9.36006C10.3998 10.2088 10.7369 11.0227 11.3371 11.6228C11.9372 12.2229 12.7511 12.5601 13.5998 12.5601ZM13.5998 14.1601C14.8728 14.1601 16.0937 13.6543 16.9939 12.7542C17.8941 11.854 18.3998 10.6331 18.3998 9.36006C18.3998 8.08702 17.8941 6.86612 16.9939 5.96595C16.0937 5.06577 14.8728 4.56006 13.5998 4.56006C12.3268 4.56006 11.1059 5.06577 10.2057 5.96595C9.30552 6.86612 8.7998 8.08702 8.7998 9.36006C8.7998 10.6331 9.30552 11.854 10.2057 12.7542C11.1059 13.6543 12.3268 14.1601 13.5998 14.1601Z" fill="#2967BC"/>
</svg>
