<svg width="28" height="32" viewBox="0 0 28 32" fill="none" xmlns="http://www.w3.org/2000/svg">
<path d="M7.36719 8.34281C7.36719 9.03995 7.64413 9.70853 8.13708 10.2015C8.63003 10.6944 9.29862 10.9714 9.99576 10.9714C10.6929 10.9714 11.3615 10.6944 11.8544 10.2015C12.3474 9.70853 12.6243 9.03995 12.6243 8.34281C12.6243 7.64566 12.3474 6.97708 11.8544 6.48412C11.3615 5.99117 10.6929 5.71423 9.99576 5.71423C9.29862 5.71423 8.63003 5.99117 8.13708 6.48412C7.64413 6.97708 7.36719 7.64566 7.36719 8.34281Z" stroke="#63696E" stroke-width="1.71429" stroke-linecap="round" stroke-linejoin="round"/>
<path d="M6 13.5771C6.39629 12.8065 6.98332 12.1502 7.70514 11.6708C8.40457 11.2137 9.19543 10.976 9.99771 10.976C10.8 10.976 11.5909 11.2137 12.2903 11.6708C12.992 12.1257 13.5771 12.7817 13.9954 13.5771" stroke="#63696E" stroke-width="1.71429" stroke-linecap="round" stroke-linejoin="round"/>
<path d="M26.5716 28.5714C26.5716 29.1776 26.3308 29.759 25.9021 30.1876C25.4734 30.6163 24.8921 30.8571 24.2859 30.8571H3.71443C3.10822 30.8571 2.52684 30.6163 2.09818 30.1876C1.66953 29.759 1.42871 29.1776 1.42871 28.5714V3.42854C1.42871 2.82233 1.66953 2.24095 2.09818 1.81229C2.52684 1.38364 3.10822 1.14282 3.71443 1.14282H18.5716L26.5716 9.14282V28.5714Z" stroke="#63696E" stroke-width="1.71429" stroke-linecap="round" stroke-linejoin="round"/>
<path d="M6 19.4286H22M6 25.1429H15.1429" stroke="#63696E" stroke-width="1.71429" stroke-linecap="round"/>
</svg>
