<svg width="32" height="32" viewBox="0 0 32 32" fill="none" xmlns="http://www.w3.org/2000/svg">
<path d="M22.3997 16V12.8C22.3997 12.1671 22.5874 11.5484 22.939 11.0222C23.2907 10.4959 23.7904 10.0858 24.3752 9.84357C24.9599 9.60137 25.6033 9.538 26.224 9.66147C26.8448 9.78494 27.415 10.0897 27.8625 10.5372C28.31 10.9848 28.6148 11.555 28.7383 12.1757C28.8617 12.7964 28.7984 13.4398 28.5562 14.0246C28.314 14.6093 27.9038 15.1091 27.3776 15.4607C26.8513 15.8123 26.2326 16 25.5997 16H22.3997ZM22.3997 16H15.9997M22.3997 16V4.26665C22.3997 3.41796 22.0626 2.60403 21.4625 2.00391C20.8624 1.40379 20.0484 1.06665 19.1997 1.06665C18.351 1.06665 17.5371 1.40379 16.937 2.00391C16.3369 2.60403 15.9997 3.41796 15.9997 4.26665V16M15.9997 16V9.59998M15.9997 16H4.26641C3.41771 16 2.60378 15.6628 2.00366 15.0627C1.40355 14.4626 1.06641 13.6487 1.06641 12.8C1.06641 11.9513 1.40355 11.1374 2.00366 10.5372C2.60378 9.93713 3.41771 9.59998 4.26641 9.59998H15.9997M15.9997 16H27.7331C28.5818 16 29.3957 16.3371 29.9958 16.9372C30.5959 17.5374 30.9331 18.3513 30.9331 19.2C30.9331 20.0487 30.5959 20.8626 29.9958 21.4627C29.3957 22.0628 28.5818 22.4 27.7331 22.4H15.9997M15.9997 16V22.4M15.9997 16H9.59974M15.9997 16V27.7333C15.9997 28.582 15.6626 29.3959 15.0625 29.9961C14.4624 30.5962 13.6484 30.9333 12.7997 30.9333C11.951 30.9333 11.1371 30.5962 10.537 29.9961C9.93688 29.3959 9.59974 28.582 9.59974 27.7333V16M15.9997 9.59998V6.39998C15.9997 5.76708 15.8121 5.1484 15.4604 4.62216C15.1088 4.09592 14.6091 3.68577 14.0243 3.44357C13.4396 3.20137 12.7962 3.138 12.1755 3.26147C11.5547 3.38494 10.9845 3.68971 10.537 4.13724C10.0895 4.58477 9.7847 5.15496 9.66123 5.7757C9.53775 6.39643 9.60112 7.03985 9.84333 7.62457C10.0855 8.20929 10.4957 8.70907 11.0219 9.06069C11.5482 9.41231 12.1668 9.59998 12.7997 9.59998H15.9997ZM15.9997 22.4H19.1997C19.8326 22.4 20.4513 22.5877 20.9776 22.9393C21.5038 23.2909 21.914 23.7907 22.1562 24.3754C22.3984 24.9601 22.4617 25.6035 22.3383 26.2243C22.2148 26.845 21.91 27.4152 21.4625 27.8627C21.015 28.3103 20.4448 28.615 19.824 28.7385C19.2033 28.862 18.5599 28.7986 17.9752 28.5564C17.3904 28.3142 16.8907 27.904 16.539 27.3778C16.1874 26.8516 15.9997 26.2329 15.9997 25.6V22.4ZM9.59974 16V19.2C9.59974 19.8329 9.41206 20.4516 9.06044 20.9778C8.70882 21.504 8.20905 21.9142 7.62433 22.1564C7.0396 22.3986 6.39619 22.462 5.77545 22.3385C5.15471 22.215 4.58453 21.9103 4.137 21.4627C3.68947 21.0152 3.3847 20.445 3.26123 19.8243C3.13775 19.2035 3.20112 18.5601 3.44333 17.9754C3.68553 17.3907 4.09568 16.8909 4.62191 16.5393C5.14815 16.1877 5.76684 16 6.39974 16H9.59974Z" stroke="#fff" stroke-width="2.13333"/>
</svg>
