<svg width="30" height="22" viewBox="0 0 30 22" fill="none" xmlns="http://www.w3.org/2000/svg">
<path d="M7.66634 21.6667C5.64412 21.6667 3.91656 20.9667 2.48367 19.5667C1.05079 18.1667 0.333897 16.4556 0.333008 14.4334C0.333008 12.7 0.85523 11.1556 1.89967 9.80004C2.94412 8.44449 4.31079 7.57782 5.99967 7.20004C6.55523 5.1556 7.66634 3.50004 9.33301 2.23337C10.9997 0.966708 12.8886 0.333374 14.9997 0.333374C17.5997 0.333374 19.8055 1.23915 21.617 3.05071C23.4286 4.86226 24.3339 7.0676 24.333 9.66671C25.8663 9.84449 27.1388 10.5058 28.1503 11.6507C29.1619 12.7956 29.6672 14.1343 29.6663 15.6667C29.6663 17.3334 29.0832 18.7503 27.917 19.9174C26.7508 21.0845 25.3339 21.6676 23.6663 21.6667H7.66634ZM7.66634 19H23.6663C24.5997 19 25.3886 18.6778 26.033 18.0334C26.6775 17.3889 26.9997 16.6 26.9997 15.6667C26.9997 14.7334 26.6775 13.9445 26.033 13.3C25.3886 12.6556 24.5997 12.3334 23.6663 12.3334H21.6663V9.66671C21.6663 7.82226 21.0161 6.24982 19.7157 4.94937C18.4152 3.64893 16.8432 2.99915 14.9997 3.00004C13.1552 3.00004 11.5832 3.65026 10.2837 4.95071C8.98412 6.25115 8.3339 7.82315 8.33301 9.66671H7.66634C6.37745 9.66671 5.27745 10.1223 4.36634 11.0334C3.45523 11.9445 2.99967 13.0445 2.99967 14.3334C2.99967 15.6223 3.45523 16.7223 4.36634 17.6334C5.27745 18.5445 6.37745 19 7.66634 19Z" fill="#2967BC"/>
</svg>
