<svg width="28" height="23" viewBox="0 0 28 23" fill="none" xmlns="http://www.w3.org/2000/svg">
<path d="M8.85756 0.714233C8.18219 0.714233 7.51344 0.847257 6.88948 1.10571C6.26552 1.36416 5.69857 1.74298 5.22101 2.22054C4.74345 2.6981 4.36463 3.26504 4.10618 3.889C3.84773 4.51296 3.7147 5.18172 3.7147 5.85709C3.7147 6.53246 3.84773 7.20122 4.10618 7.82518C4.36463 8.44914 4.74345 9.01608 5.22101 9.49364C5.69857 9.9712 6.26552 10.35 6.88948 10.6085C7.51344 10.8669 8.18219 10.9999 8.85756 10.9999C10.2215 10.9999 11.5296 10.4581 12.4941 9.49364C13.4586 8.52917 14.0004 7.22106 14.0004 5.85709C14.0004 4.49312 13.4586 3.18501 12.4941 2.22054C11.5296 1.25607 10.2215 0.714233 8.85756 0.714233ZM5.42899 5.85709C5.42899 5.40684 5.51767 4.96101 5.68997 4.54503C5.86228 4.12906 6.11482 3.7511 6.4332 3.43272C6.75157 3.11435 7.12953 2.86181 7.5455 2.6895C7.96148 2.5172 8.40732 2.42852 8.85756 2.42852C9.30781 2.42852 9.75365 2.5172 10.1696 2.6895C10.5856 2.86181 10.9636 3.11435 11.2819 3.43272C11.6003 3.7511 11.8528 4.12906 12.0251 4.54503C12.1975 4.96101 12.2861 5.40684 12.2861 5.85709C12.2861 6.7664 11.9249 7.63848 11.2819 8.28146C10.6389 8.92444 9.76688 9.28566 8.85756 9.28566C7.94825 9.28566 7.07618 8.92444 6.4332 8.28146C5.79021 7.63848 5.42899 6.7664 5.42899 5.85709ZM20.8576 2.99995C19.7967 2.99995 18.7793 3.42138 18.0291 4.17152C17.279 4.92167 16.8576 5.93908 16.8576 6.99995C16.8576 8.06081 17.279 9.07823 18.0291 9.82837C18.7793 10.5785 19.7967 10.9999 20.8576 10.9999C21.9184 10.9999 22.9358 10.5785 23.686 9.82837C24.4361 9.07823 24.8576 8.06081 24.8576 6.99995C24.8576 5.93908 24.4361 4.92167 23.686 4.17152C22.9358 3.42138 21.9184 2.99995 20.8576 2.99995ZM18.5718 6.99995C18.5718 6.39374 18.8127 5.81236 19.2413 5.3837C19.67 4.95505 20.2514 4.71423 20.8576 4.71423C21.4638 4.71423 22.0452 4.95505 22.4738 5.3837C22.9025 5.81236 23.1433 6.39374 23.1433 6.99995C23.1433 7.60616 22.9025 8.18754 22.4738 8.61619C22.0452 9.04485 21.4638 9.28566 20.8576 9.28566C20.2514 9.28566 19.67 9.04485 19.2413 8.61619C18.8127 8.18754 18.5718 7.60616 18.5718 6.99995ZM0.286133 15.8571C0.286133 15.1751 0.55705 14.5211 1.03929 14.0388C1.52152 13.5566 2.17558 13.2857 2.85756 13.2857H14.8576C15.5395 13.2857 16.1936 13.5566 16.6758 14.0388C17.1581 14.5211 17.429 15.1751 17.429 15.8571V16.4639C17.4275 16.5564 17.421 16.6487 17.4096 16.7405C17.3838 16.9763 17.3418 17.21 17.2838 17.4399C17.0949 18.1904 16.758 18.8956 16.293 19.5142C15.1341 21.0605 12.9238 22.4285 8.85756 22.4285C4.79128 22.4285 2.58099 21.0605 1.42213 19.5142C0.95751 18.8955 0.621034 18.1903 0.432419 17.4399C0.357799 17.1412 0.30999 16.8364 0.289561 16.5291C0.288137 16.5074 0.286994 16.4857 0.286133 16.4639V16.4308V15.8571ZM2.00042 16.4228V16.4434L2.0107 16.5577C2.02213 16.6651 2.04499 16.8262 2.09528 17.0239C2.22852 17.5526 2.46549 18.0494 2.79242 18.4857C3.5627 19.5108 5.20956 20.7142 8.85756 20.7142C12.5056 20.7142 14.1524 19.5108 14.9216 18.4857C15.3216 17.9531 15.5204 17.4205 15.6187 17.0239C15.6667 16.8335 15.6984 16.6392 15.7136 16.4434L15.7147 16.4228V15.8571C15.7147 15.6298 15.6244 15.4117 15.4637 15.251C15.3029 15.0903 15.0849 14.9999 14.8576 14.9999H2.85756C2.63023 14.9999 2.41222 15.0903 2.25147 15.251C2.09072 15.4117 2.00042 15.6298 2.00042 15.8571V16.4228ZM17.5433 19.7085C18.4267 19.9794 19.517 20.1428 20.8553 20.1428C24.021 20.1428 25.7901 19.2331 26.7513 18.1359C27.1356 17.7018 27.4203 17.1889 27.5856 16.6331C27.6508 16.4087 27.6926 16.1781 27.7101 15.9451L27.7124 15.8914V15.8571C27.7124 15.1751 27.4415 14.5211 26.9593 14.0388C26.477 13.5566 25.823 13.2857 25.141 13.2857H17.5364C17.9867 13.7554 18.3158 14.3439 18.4713 14.9999H25.1421C25.3675 14.9999 25.5838 15.0887 25.7442 15.2469C25.9046 15.4052 25.9963 15.6203 25.9993 15.8457C25.9891 15.9494 25.9692 16.0519 25.9398 16.1519C25.8442 16.4686 25.6804 16.7604 25.4598 17.0068C24.9216 17.6239 23.6918 18.4285 20.8553 18.4285C19.7798 18.4285 18.9353 18.3131 18.2713 18.1348C18.0951 18.6877 17.8506 19.2163 17.5433 19.7085Z" fill="#fff"/>
</svg>
