<svg width="22" height="18" viewBox="0 0 22 18" fill="none" xmlns="http://www.w3.org/2000/svg">
<path opacity="0.2" fill-rule="evenodd" clip-rule="evenodd" d="M13.6008 1.79993H12.4008C11.3365 1.80007 10.3025 2.15372 9.46104 2.80532C8.6196 3.45693 8.01844 4.36958 7.75198 5.39993H7.60078C6.32774 5.39993 5.10684 5.90564 4.20667 6.80581C3.30649 7.70599 2.80078 8.92689 2.80078 10.1999C2.80078 11.473 3.30649 12.6939 4.20667 13.594C5.10684 14.4942 6.32774 14.9999 7.60078 14.9999H17.2008C18.381 15.0016 19.5205 14.5685 20.4016 13.7831C21.2827 12.9978 21.8435 11.9154 21.977 10.7427C22.1104 9.57004 21.8072 8.38929 21.1251 7.42607C20.4431 6.46284 19.43 5.78467 18.2796 5.52113C18.0352 4.46332 17.4395 3.51954 16.5898 2.84374C15.7401 2.16794 14.6865 1.8 13.6008 1.79993Z" fill="black"/>
<path fill-rule="evenodd" clip-rule="evenodd" d="M11.2004 0.599976H10.0004C8.93615 0.600117 7.9021 0.953765 7.06065 1.60537C6.21921 2.25698 5.61805 3.16963 5.35159 4.19998H5.20039C3.92735 4.19998 2.70645 4.70569 1.80628 5.60586C0.906104 6.50604 0.400391 7.72694 0.400391 8.99998C0.400391 10.273 0.906104 11.4939 1.80628 12.3941C2.70645 13.2943 3.92735 13.8 5.20039 13.8H14.8004C15.9806 13.8017 17.1202 13.3685 18.0012 12.5832C18.8823 11.7979 19.4431 10.7155 19.5766 9.54277C19.7101 8.37009 19.4068 7.18934 18.7247 6.22611C18.0427 5.26289 17.0296 4.58472 15.8792 4.32118C15.6348 3.26336 15.0391 2.31959 14.1894 1.64379C13.3397 0.967988 12.2861 0.600045 11.2004 0.599976ZM6.28159 5.39998L6.51319 4.49998C6.71315 3.72717 7.16414 3.04266 7.79532 2.55396C8.42651 2.06526 9.20213 1.80005 10.0004 1.79998H11.2004C12.8864 1.79998 14.3372 2.96998 14.7092 4.58998L14.8772 5.32198L15.6092 5.49118C16.4697 5.69127 17.2265 6.20067 17.7359 6.92248C18.2452 7.64428 18.4715 8.52812 18.3716 9.40588C18.2718 10.2836 17.8527 11.0941 17.1943 11.683C16.5358 12.2719 15.6838 12.5983 14.8004 12.6H5.20039C4.24561 12.6 3.32994 12.2207 2.65481 11.5456C1.97968 10.8704 1.60039 9.95476 1.60039 8.99998C1.60039 8.0452 1.97968 7.12952 2.65481 6.45439C3.32994 5.77926 4.24561 5.39998 5.20039 5.39998H6.28159Z" fill="black"/>
<path d="M11.2 16.8C11.2 16.9591 11.1368 17.1117 11.0243 17.2242C10.9117 17.3367 10.7591 17.4 10.6 17.4C10.4409 17.4 10.2883 17.3367 10.1757 17.2242C10.0632 17.1117 10 16.9591 10 16.8V7.79995C10 7.64082 10.0632 7.48821 10.1757 7.37569C10.2883 7.26316 10.4409 7.19995 10.6 7.19995C10.7591 7.19995 10.9117 7.26316 11.0243 7.37569C11.1368 7.48821 11.2 7.64082 11.2 7.79995V16.8Z" fill="black"/>
<path d="M7.97574 10.668C7.8509 10.7585 7.69598 10.7975 7.54313 10.7769C7.39029 10.7563 7.25127 10.6776 7.15492 10.5571C7.05857 10.4367 7.0123 10.2838 7.02571 10.1301C7.03912 9.97648 7.11119 9.8339 7.22694 9.73198L10.2269 7.33198C10.3518 7.24142 10.5067 7.20241 10.6596 7.22305C10.8124 7.24369 10.9514 7.3224 11.0478 7.44284C11.1441 7.56327 11.1904 7.71618 11.177 7.86983C11.1636 8.02348 11.0915 8.16606 10.9757 8.26798L7.97574 10.668Z" fill="black"/>
<path d="M13.9748 9.73193C14.0906 9.83385 14.1626 9.97643 14.176 10.1301C14.1894 10.2837 14.1432 10.4366 14.0468 10.5571C13.9505 10.6775 13.8115 10.7562 13.6586 10.7769C13.5058 10.7975 13.3508 10.7585 13.226 10.6679L10.226 8.26793C10.1603 8.22026 10.1049 8.15976 10.0633 8.09008C10.0216 8.02041 9.99457 7.943 9.9837 7.86256C9.97284 7.78211 9.97841 7.7003 10.0001 7.62207C10.0218 7.54384 10.0591 7.47082 10.1098 7.40743C10.1605 7.34405 10.2235 7.29161 10.2951 7.25329C10.3667 7.21498 10.4453 7.19158 10.5261 7.18452C10.607 7.17746 10.6885 7.18689 10.7656 7.21223C10.8427 7.23756 10.9139 7.27828 10.9748 7.33193L13.9748 9.73193Z" fill="black"/>
</svg>
