<svg width="405" height="77" viewBox="0 0 405 77" fill="none" xmlns="http://www.w3.org/2000/svg">
<g filter="url(#filter0_d_727_788)">
<rect width="397" height="69" transform="translate(4)" fill="white"/>
<circle cx="38.5" cy="34.5" r="24.5" fill="#0079FF"/>
<path d="M18.6669 38V32.448H19.4189V38H18.6669ZM23.3294 38V35.784C23.3294 35.496 23.2388 35.2587 23.0574 35.072C22.8761 34.8853 22.6414 34.792 22.3534 34.792C22.1614 34.792 21.9908 34.8347 21.8414 34.92C21.6921 35.0053 21.5748 35.1227 21.4894 35.272C21.4041 35.4213 21.3614 35.592 21.3614 35.784L21.0654 35.616C21.0654 35.328 21.1294 35.072 21.2574 34.848C21.3854 34.624 21.5641 34.448 21.7934 34.32C22.0228 34.1867 22.2814 34.12 22.5694 34.12C22.8574 34.12 23.1108 34.192 23.3294 34.336C23.5534 34.48 23.7294 34.6693 23.8574 34.904C23.9854 35.1333 24.0494 35.3787 24.0494 35.64V38H23.3294ZM20.6414 38V34.2H21.3614V38H20.6414ZM25.6014 38V32.608H26.3214V38H25.6014ZM24.6654 34.856V34.2H27.2574V34.856H24.6654ZM29.6455 38.08C29.2668 38.08 28.9255 37.9947 28.6215 37.824C28.3175 37.648 28.0775 37.4107 27.9015 37.112C27.7255 36.8133 27.6375 36.4747 27.6375 36.096C27.6375 35.7227 27.7228 35.3867 27.8935 35.088C28.0695 34.7893 28.3042 34.5547 28.5975 34.384C28.8962 34.208 29.2295 34.12 29.5975 34.12C29.9495 34.12 30.2588 34.2 30.5255 34.36C30.7975 34.52 31.0082 34.7413 31.1575 35.024C31.3122 35.3067 31.3895 35.6267 31.3895 35.984C31.3895 36.0373 31.3868 36.096 31.3815 36.16C31.3762 36.2187 31.3655 36.288 31.3495 36.368H28.1415V35.768H30.9655L30.7015 36C30.7015 35.744 30.6562 35.528 30.5655 35.352C30.4748 35.1707 30.3468 35.032 30.1815 34.936C30.0162 34.8347 29.8162 34.784 29.5815 34.784C29.3362 34.784 29.1202 34.8373 28.9335 34.944C28.7468 35.0507 28.6028 35.2 28.5015 35.392C28.4002 35.584 28.3495 35.8107 28.3495 36.072C28.3495 36.3387 28.4028 36.5733 28.5095 36.776C28.6162 36.9733 28.7682 37.128 28.9655 37.24C29.1628 37.3467 29.3895 37.4 29.6455 37.4C29.8588 37.4 30.0535 37.3627 30.2295 37.288C30.4108 37.2133 30.5655 37.1013 30.6935 36.952L31.1575 37.424C30.9762 37.6373 30.7522 37.8 30.4855 37.912C30.2242 38.024 29.9442 38.08 29.6455 38.08ZM32.2146 38V34.2H32.9346V38H32.2146ZM32.9346 35.832L32.6626 35.712C32.6626 35.2267 32.7746 34.84 32.9986 34.552C33.2226 34.264 33.5452 34.12 33.9666 34.12C34.1586 34.12 34.3319 34.1547 34.4866 34.224C34.6412 34.288 34.7852 34.3973 34.9186 34.552L34.4466 35.04C34.3666 34.9547 34.2786 34.8933 34.1826 34.856C34.0866 34.8187 33.9746 34.8 33.8466 34.8C33.5799 34.8 33.3612 34.8853 33.1906 35.056C33.0199 35.2267 32.9346 35.4853 32.9346 35.832ZM38.1691 38V35.784C38.1691 35.496 38.0785 35.2587 37.8971 35.072C37.7158 34.8853 37.4811 34.792 37.1931 34.792C37.0011 34.792 36.8305 34.8347 36.6811 34.92C36.5318 35.0053 36.4145 35.1227 36.3291 35.272C36.2438 35.4213 36.2011 35.592 36.2011 35.784L35.9051 35.616C35.9051 35.328 35.9691 35.072 36.0971 34.848C36.2251 34.624 36.4038 34.448 36.6331 34.32C36.8625 34.1867 37.1211 34.12 37.4091 34.12C37.6971 34.12 37.9505 34.192 38.1691 34.336C38.3931 34.48 38.5691 34.6693 38.6971 34.904C38.8251 35.1333 38.8891 35.3787 38.8891 35.64V38H38.1691ZM35.4811 38V34.2H36.2011V38H35.4811ZM40.5359 35.84V35.184H42.0479C42.2559 35.184 42.4399 35.1413 42.5999 35.056C42.7653 34.9707 42.8933 34.8507 42.9839 34.696C43.0799 34.5413 43.1279 34.3573 43.1279 34.144C43.1279 33.9307 43.0799 33.7467 42.9839 33.592C42.8933 33.4373 42.7653 33.3173 42.5999 33.232C42.4399 33.1467 42.2559 33.104 42.0479 33.104H40.5359V32.448H42.0959C42.4373 32.448 42.7413 32.5173 43.0079 32.656C43.2799 32.7947 43.4933 32.992 43.6479 33.248C43.8079 33.4987 43.8879 33.7973 43.8879 34.144C43.8879 34.4853 43.8079 34.784 43.6479 35.04C43.4933 35.2907 43.2799 35.488 43.0079 35.632C42.7413 35.7707 42.4373 35.84 42.0959 35.84H40.5359ZM40.0319 38V32.448H40.7839V38H40.0319ZM46.3235 38.08C46.0142 38.08 45.7342 38.0107 45.4835 37.872C45.2382 37.728 45.0462 37.5307 44.9075 37.28C44.7688 37.0293 44.6995 36.7387 44.6995 36.408V34.2H45.4195V36.376C45.4195 36.584 45.4542 36.7653 45.5235 36.92C45.5982 37.0693 45.7048 37.184 45.8435 37.264C45.9822 37.344 46.1448 37.384 46.3315 37.384C46.6142 37.384 46.8355 37.296 46.9955 37.12C47.1555 36.9387 47.2355 36.6907 47.2355 36.376V34.2H47.9555V36.408C47.9555 36.7387 47.8862 37.0293 47.7475 37.28C47.6088 37.5307 47.4168 37.728 47.1715 37.872C46.9315 38.0107 46.6488 38.08 46.3235 38.08ZM48.9605 38V32.288H49.6805V38H48.9605ZM51.9819 38.08C51.7686 38.08 51.5659 38.0533 51.3739 38C51.1873 37.9413 51.0139 37.8613 50.8539 37.76C50.6939 37.6533 50.5553 37.528 50.4379 37.384L50.9019 36.92C51.0406 37.0907 51.2006 37.2187 51.3819 37.304C51.5633 37.384 51.7659 37.424 51.9899 37.424C52.2139 37.424 52.3873 37.3867 52.5099 37.312C52.6326 37.232 52.6939 37.1227 52.6939 36.984C52.6939 36.8453 52.6433 36.7387 52.5419 36.664C52.4459 36.584 52.3206 36.52 52.1659 36.472C52.0113 36.4187 51.8459 36.368 51.6699 36.32C51.4993 36.2667 51.3366 36.2 51.1819 36.12C51.0273 36.04 50.8993 35.9307 50.7979 35.792C50.7019 35.6533 50.6539 35.4693 50.6539 35.24C50.6539 35.0107 50.7099 34.8133 50.8219 34.648C50.9339 34.4773 51.0886 34.3467 51.2859 34.256C51.4886 34.1653 51.7313 34.12 52.0139 34.12C52.3126 34.12 52.5766 34.1733 52.8059 34.28C53.0406 34.3813 53.2326 34.536 53.3819 34.744L52.9179 35.208C52.8113 35.0693 52.6779 34.9627 52.5179 34.888C52.3633 34.8133 52.1873 34.776 51.9899 34.776C51.7819 34.776 51.6219 34.8133 51.5099 34.888C51.4033 34.9573 51.3499 35.056 51.3499 35.184C51.3499 35.312 51.3979 35.4107 51.4939 35.48C51.5899 35.5493 51.7153 35.608 51.8699 35.656C52.0299 35.704 52.1953 35.7547 52.3659 35.808C52.5366 35.856 52.6993 35.9227 52.8539 36.008C53.0086 36.0933 53.1339 36.208 53.2299 36.352C53.3313 36.496 53.3819 36.6853 53.3819 36.92C53.3819 37.2773 53.2539 37.56 52.9979 37.768C52.7473 37.976 52.4086 38.08 51.9819 38.08ZM55.988 38.08C55.6093 38.08 55.268 37.9947 54.964 37.824C54.66 37.648 54.42 37.4107 54.244 37.112C54.068 36.8133 53.98 36.4747 53.98 36.096C53.98 35.7227 54.0653 35.3867 54.236 35.088C54.412 34.7893 54.6467 34.5547 54.94 34.384C55.2387 34.208 55.572 34.12 55.94 34.12C56.292 34.12 56.6013 34.2 56.868 34.36C57.14 34.52 57.3507 34.7413 57.5 35.024C57.6547 35.3067 57.732 35.6267 57.732 35.984C57.732 36.0373 57.7293 36.096 57.724 36.16C57.7187 36.2187 57.708 36.288 57.692 36.368H54.484V35.768H57.308L57.044 36C57.044 35.744 56.9987 35.528 56.908 35.352C56.8173 35.1707 56.6893 35.032 56.524 34.936C56.3587 34.8347 56.1587 34.784 55.924 34.784C55.6787 34.784 55.4627 34.8373 55.276 34.944C55.0893 35.0507 54.9453 35.2 54.844 35.392C54.7427 35.584 54.692 35.8107 54.692 36.072C54.692 36.3387 54.7453 36.5733 54.852 36.776C54.9587 36.9733 55.1107 37.128 55.308 37.24C55.5053 37.3467 55.732 37.4 55.988 37.4C56.2013 37.4 56.396 37.3627 56.572 37.288C56.7533 37.2133 56.908 37.1013 57.036 36.952L57.5 37.424C57.3187 37.6373 57.0947 37.8 56.828 37.912C56.5667 38.024 56.2867 38.08 55.988 38.08Z" fill="white"/>
<path d="M77.572 30.64C76.8813 30.64 76.2373 30.514 75.64 30.262C75.0427 30.0007 74.52 29.6413 74.072 29.184C73.624 28.7173 73.274 28.1807 73.022 27.574C72.7793 26.9673 72.658 26.3187 72.658 25.628C72.658 24.928 72.7793 24.2793 73.022 23.682C73.274 23.0753 73.6193 22.5433 74.058 22.086C74.506 21.6287 75.024 21.274 75.612 21.022C76.2093 20.77 76.8533 20.644 77.544 20.644C78.2347 20.644 78.874 20.77 79.462 21.022C80.0593 21.274 80.582 21.6287 81.03 22.086C81.478 22.5433 81.828 23.0753 82.08 23.682C82.332 24.2887 82.458 24.942 82.458 25.642C82.458 26.3327 82.332 26.9813 82.08 27.588C81.828 28.1947 81.478 28.7267 81.03 29.184C80.5913 29.6413 80.0733 30.0007 79.476 30.262C78.888 30.514 78.2533 30.64 77.572 30.64ZM77.544 29.38C78.244 29.38 78.8553 29.2213 79.378 28.904C79.91 28.5773 80.33 28.134 80.638 27.574C80.946 27.0047 81.1 26.356 81.1 25.628C81.1 25.0867 81.0113 24.592 80.834 24.144C80.6567 23.6867 80.4093 23.29 80.092 22.954C79.7747 22.618 79.4013 22.3613 78.972 22.184C78.5427 21.9973 78.0667 21.904 77.544 21.904C76.8533 21.904 76.242 22.0627 75.71 22.38C75.1873 22.6973 74.772 23.136 74.464 23.696C74.1653 24.256 74.016 24.9 74.016 25.628C74.016 26.1693 74.1 26.6733 74.268 27.14C74.4453 27.5973 74.688 27.994 74.996 28.33C75.3133 28.6567 75.6867 28.9133 76.116 29.1C76.5547 29.2867 77.0307 29.38 77.544 29.38ZM86.3562 30.5L83.3042 23.85H84.7042L87.1542 29.464H86.3422L88.8062 23.85H90.1502L87.0982 30.5H86.3562ZM94.0799 30.64C93.4172 30.64 92.8199 30.4907 92.2879 30.192C91.7559 29.884 91.3359 29.4687 91.0279 28.946C90.7199 28.4233 90.5659 27.8307 90.5659 27.168C90.5659 26.5147 90.7152 25.9267 91.0139 25.404C91.3219 24.8813 91.7325 24.4707 92.2459 24.172C92.7685 23.864 93.3519 23.71 93.9959 23.71C94.6119 23.71 95.1532 23.85 95.6199 24.13C96.0959 24.41 96.4645 24.7973 96.7259 25.292C96.9965 25.7867 97.1319 26.3467 97.1319 26.972C97.1319 27.0653 97.1272 27.168 97.1179 27.28C97.1085 27.3827 97.0899 27.504 97.0619 27.644H91.4479V26.594H96.3899L95.9279 27C95.9279 26.552 95.8485 26.174 95.6899 25.866C95.5312 25.5487 95.3072 25.306 95.0179 25.138C94.7285 24.9607 94.3785 24.872 93.9679 24.872C93.5385 24.872 93.1605 24.9653 92.8339 25.152C92.5072 25.3387 92.2552 25.6 92.0779 25.936C91.9005 26.272 91.8119 26.6687 91.8119 27.126C91.8119 27.5927 91.9052 28.0033 92.0919 28.358C92.2785 28.7033 92.5445 28.974 92.8899 29.17C93.2352 29.3567 93.6319 29.45 94.0799 29.45C94.4532 29.45 94.7939 29.3847 95.1019 29.254C95.4192 29.1233 95.6899 28.9273 95.9139 28.666L96.7259 29.492C96.4085 29.8653 96.0165 30.15 95.5499 30.346C95.0925 30.542 94.6025 30.64 94.0799 30.64ZM98.5407 30.5V23.85H99.8007V30.5H98.5407ZM99.8007 26.706L99.3247 26.496C99.3247 25.6467 99.5207 24.97 99.9127 24.466C100.305 23.962 100.869 23.71 101.607 23.71C101.943 23.71 102.246 23.7707 102.517 23.892C102.787 24.004 103.039 24.1953 103.273 24.466L102.447 25.32C102.307 25.1707 102.153 25.0633 101.985 24.998C101.817 24.9327 101.621 24.9 101.397 24.9C100.93 24.9 100.547 25.0493 100.249 25.348C99.9501 25.6467 99.8007 26.0993 99.8007 26.706ZM108.886 30.5V20.784H110.188V30.5H108.886ZM106.898 21.96V20.784H110.048V21.96H106.898ZM115.973 30.64C115.245 30.64 114.577 30.4347 113.971 30.024C113.373 29.6133 112.897 29.0347 112.543 28.288C112.188 27.532 112.011 26.6453 112.011 25.628C112.011 24.6107 112.183 23.7287 112.529 22.982C112.883 22.2353 113.359 21.6613 113.957 21.26C114.554 20.8493 115.212 20.644 115.931 20.644C116.668 20.644 117.335 20.8493 117.933 21.26C118.53 21.6613 119.001 22.2353 119.347 22.982C119.701 23.7287 119.879 24.6153 119.879 25.642C119.879 26.6593 119.701 27.546 119.347 28.302C119.001 29.0487 118.53 29.6273 117.933 30.038C117.345 30.4393 116.691 30.64 115.973 30.64ZM115.945 29.394C116.458 29.394 116.906 29.254 117.289 28.974C117.681 28.6847 117.989 28.26 118.213 27.7C118.437 27.14 118.549 26.4493 118.549 25.628C118.549 24.8067 118.437 24.1207 118.213 23.57C117.989 23.01 117.681 22.59 117.289 22.31C116.897 22.0207 116.444 21.876 115.931 21.876C115.427 21.876 114.979 22.0207 114.587 22.31C114.195 22.59 113.887 23.01 113.663 23.57C113.448 24.1207 113.341 24.8067 113.341 25.628C113.341 26.4493 113.448 27.14 113.663 27.7C113.887 28.26 114.195 28.6847 114.587 28.974C114.979 29.254 115.431 29.394 115.945 29.394ZM125.195 30.64C124.467 30.64 123.8 30.4347 123.193 30.024C122.596 29.6133 122.12 29.0347 121.765 28.288C121.41 27.532 121.233 26.6453 121.233 25.628C121.233 24.6107 121.406 23.7287 121.751 22.982C122.106 22.2353 122.582 21.6613 123.179 21.26C123.776 20.8493 124.434 20.644 125.153 20.644C125.89 20.644 126.558 20.8493 127.155 21.26C127.752 21.6613 128.224 22.2353 128.569 22.982C128.924 23.7287 129.101 24.6153 129.101 25.642C129.101 26.6593 128.924 27.546 128.569 28.302C128.224 29.0487 127.752 29.6273 127.155 30.038C126.567 30.4393 125.914 30.64 125.195 30.64ZM125.167 29.394C125.68 29.394 126.128 29.254 126.511 28.974C126.903 28.6847 127.211 28.26 127.435 27.7C127.659 27.14 127.771 26.4493 127.771 25.628C127.771 24.8067 127.659 24.1207 127.435 23.57C127.211 23.01 126.903 22.59 126.511 22.31C126.119 22.0207 125.666 21.876 125.153 21.876C124.649 21.876 124.201 22.0207 123.809 22.31C123.417 22.59 123.109 23.01 122.885 23.57C122.67 24.1207 122.563 24.8067 122.563 25.628C122.563 26.4493 122.67 27.14 122.885 27.7C123.109 28.26 123.417 28.6847 123.809 28.974C124.201 29.254 124.654 29.394 125.167 29.394ZM135.783 30.64C135.409 30.64 135.055 30.5933 134.719 30.5C134.392 30.3973 134.089 30.2573 133.809 30.08C133.529 29.8933 133.286 29.674 133.081 29.422L133.893 28.61C134.135 28.9087 134.415 29.1327 134.733 29.282C135.05 29.422 135.405 29.492 135.797 29.492C136.189 29.492 136.492 29.4267 136.707 29.296C136.921 29.156 137.029 28.9647 137.029 28.722C137.029 28.4793 136.94 28.2927 136.763 28.162C136.595 28.022 136.375 27.91 136.105 27.826C135.834 27.7327 135.545 27.644 135.237 27.56C134.938 27.4667 134.653 27.35 134.383 27.21C134.112 27.07 133.888 26.8787 133.711 26.636C133.543 26.3933 133.459 26.0713 133.459 25.67C133.459 25.2687 133.557 24.9233 133.753 24.634C133.949 24.3353 134.219 24.1067 134.565 23.948C134.919 23.7893 135.344 23.71 135.839 23.71C136.361 23.71 136.823 23.8033 137.225 23.99C137.635 24.1673 137.971 24.438 138.233 24.802L137.421 25.614C137.234 25.3713 137.001 25.1847 136.721 25.054C136.45 24.9233 136.142 24.858 135.797 24.858C135.433 24.858 135.153 24.9233 134.957 25.054C134.77 25.1753 134.677 25.348 134.677 25.572C134.677 25.796 134.761 25.9687 134.929 26.09C135.097 26.2113 135.316 26.314 135.587 26.398C135.867 26.482 136.156 26.5707 136.455 26.664C136.753 26.748 137.038 26.8647 137.309 27.014C137.579 27.1633 137.799 27.364 137.967 27.616C138.144 27.868 138.233 28.1993 138.233 28.61C138.233 29.2353 138.009 29.73 137.561 30.094C137.122 30.458 136.529 30.64 135.783 30.64ZM140.7 30.5V21.064H141.96V30.5H140.7ZM139.062 24.998V23.85H143.598V24.998H139.062ZM147.542 30.64C147 30.64 146.51 30.5187 146.072 30.276C145.642 30.024 145.306 29.6787 145.064 29.24C144.821 28.8013 144.7 28.2927 144.7 27.714V23.85H145.96V27.658C145.96 28.022 146.02 28.3393 146.142 28.61C146.272 28.8713 146.459 29.072 146.702 29.212C146.944 29.352 147.229 29.422 147.556 29.422C148.05 29.422 148.438 29.268 148.718 28.96C148.998 28.6427 149.138 28.2087 149.138 27.658V23.85H150.398V27.714C150.398 28.2927 150.276 28.8013 150.034 29.24C149.791 29.6787 149.455 30.024 149.026 30.276C148.606 30.5187 148.111 30.64 147.542 30.64ZM154.935 30.64C154.319 30.64 153.769 30.4907 153.283 30.192C152.798 29.884 152.411 29.4687 152.121 28.946C151.841 28.4233 151.701 27.8353 151.701 27.182C151.701 26.5287 151.841 25.9407 152.121 25.418C152.411 24.8953 152.798 24.48 153.283 24.172C153.769 23.864 154.319 23.71 154.935 23.71C155.43 23.71 155.878 23.8173 156.279 24.032C156.681 24.2373 157.003 24.5267 157.245 24.9C157.497 25.264 157.637 25.6887 157.665 26.174V28.176C157.637 28.652 157.502 29.0767 157.259 29.45C157.017 29.8233 156.695 30.1173 156.293 30.332C155.892 30.5373 155.439 30.64 154.935 30.64ZM155.145 29.45C155.565 29.45 155.929 29.352 156.237 29.156C156.555 28.96 156.802 28.694 156.979 28.358C157.157 28.0127 157.245 27.6207 157.245 27.182C157.245 26.7247 157.152 26.328 156.965 25.992C156.788 25.656 156.541 25.39 156.223 25.194C155.915 24.998 155.551 24.9 155.131 24.9C154.711 24.9 154.343 24.998 154.025 25.194C153.708 25.39 153.456 25.6607 153.269 26.006C153.092 26.342 153.003 26.7293 153.003 27.168C153.003 27.616 153.092 28.0127 153.269 28.358C153.456 28.694 153.708 28.96 154.025 29.156C154.352 29.352 154.725 29.45 155.145 29.45ZM158.435 30.5H157.161V28.708L157.399 27.084L157.161 25.474V20.504H158.435V30.5ZM163.385 30.64C162.722 30.64 162.125 30.4907 161.593 30.192C161.061 29.884 160.641 29.4687 160.333 28.946C160.025 28.4233 159.871 27.8307 159.871 27.168C159.871 26.5147 160.02 25.9267 160.319 25.404C160.627 24.8813 161.037 24.4707 161.551 24.172C162.073 23.864 162.657 23.71 163.301 23.71C163.917 23.71 164.458 23.85 164.925 24.13C165.401 24.41 165.769 24.7973 166.031 25.292C166.301 25.7867 166.437 26.3467 166.437 26.972C166.437 27.0653 166.432 27.168 166.423 27.28C166.413 27.3827 166.395 27.504 166.367 27.644H160.753V26.594H165.695L165.233 27C165.233 26.552 165.153 26.174 164.995 25.866C164.836 25.5487 164.612 25.306 164.323 25.138C164.033 24.9607 163.683 24.872 163.273 24.872C162.843 24.872 162.465 24.9653 162.139 25.152C161.812 25.3387 161.56 25.6 161.383 25.936C161.205 26.272 161.117 26.6687 161.117 27.126C161.117 27.5927 161.21 28.0033 161.397 28.358C161.583 28.7033 161.849 28.974 162.195 29.17C162.54 29.3567 162.937 29.45 163.385 29.45C163.758 29.45 164.099 29.3847 164.407 29.254C164.724 29.1233 164.995 28.9273 165.219 28.666L166.031 29.492C165.713 29.8653 165.321 30.15 164.855 30.346C164.397 30.542 163.907 30.64 163.385 30.64ZM172.55 30.5V26.622C172.55 26.118 172.391 25.7027 172.074 25.376C171.756 25.0493 171.346 24.886 170.842 24.886C170.506 24.886 170.207 24.9607 169.946 25.11C169.684 25.2593 169.479 25.4647 169.33 25.726C169.18 25.9873 169.106 26.286 169.106 26.622L168.588 26.328C168.588 25.824 168.7 25.376 168.924 24.984C169.148 24.592 169.46 24.284 169.862 24.06C170.263 23.8267 170.716 23.71 171.22 23.71C171.724 23.71 172.167 23.836 172.55 24.088C172.942 24.34 173.25 24.6713 173.474 25.082C173.698 25.4833 173.81 25.9127 173.81 26.37V30.5H172.55ZM167.846 30.5V23.85H169.106V30.5H167.846ZM176.491 30.5V21.064H177.751V30.5H176.491ZM174.853 24.998V23.85H179.389V24.998H174.853ZM182.635 30.64C182.262 30.64 181.907 30.5933 181.571 30.5C181.244 30.3973 180.941 30.2573 180.661 30.08C180.381 29.8933 180.138 29.674 179.933 29.422L180.745 28.61C180.988 28.9087 181.268 29.1327 181.585 29.282C181.902 29.422 182.257 29.492 182.649 29.492C183.041 29.492 183.344 29.4267 183.559 29.296C183.774 29.156 183.881 28.9647 183.881 28.722C183.881 28.4793 183.792 28.2927 183.615 28.162C183.447 28.022 183.228 27.91 182.957 27.826C182.686 27.7327 182.397 27.644 182.089 27.56C181.79 27.4667 181.506 27.35 181.235 27.21C180.964 27.07 180.74 26.8787 180.563 26.636C180.395 26.3933 180.311 26.0713 180.311 25.67C180.311 25.2687 180.409 24.9233 180.605 24.634C180.801 24.3353 181.072 24.1067 181.417 23.948C181.772 23.7893 182.196 23.71 182.691 23.71C183.214 23.71 183.676 23.8033 184.077 23.99C184.488 24.1673 184.824 24.438 185.085 24.802L184.273 25.614C184.086 25.3713 183.853 25.1847 183.573 25.054C183.302 24.9233 182.994 24.858 182.649 24.858C182.285 24.858 182.005 24.9233 181.809 25.054C181.622 25.1753 181.529 25.348 181.529 25.572C181.529 25.796 181.613 25.9687 181.781 26.09C181.949 26.2113 182.168 26.314 182.439 26.398C182.719 26.482 183.008 26.5707 183.307 26.664C183.606 26.748 183.89 26.8647 184.161 27.014C184.432 27.1633 184.651 27.364 184.819 27.616C184.996 27.868 185.085 28.1993 185.085 28.61C185.085 29.2353 184.861 29.73 184.413 30.094C183.974 30.458 183.382 30.64 182.635 30.64ZM194.182 30.5V26.622C194.182 26.118 194.023 25.7027 193.706 25.376C193.388 25.0493 192.978 24.886 192.474 24.886C192.138 24.886 191.839 24.9607 191.578 25.11C191.316 25.2593 191.111 25.4647 190.962 25.726C190.812 25.9873 190.738 26.286 190.738 26.622L190.22 26.328C190.22 25.824 190.332 25.376 190.556 24.984C190.78 24.592 191.092 24.284 191.494 24.06C191.895 23.8267 192.348 23.71 192.852 23.71C193.356 23.71 193.799 23.822 194.182 24.046C194.574 24.27 194.882 24.5827 195.106 24.984C195.33 25.3853 195.442 25.8473 195.442 26.37V30.5H194.182ZM189.478 30.5V20.504H190.738V30.5H189.478ZM200.011 30.64C199.404 30.64 198.853 30.4907 198.359 30.192C197.864 29.884 197.472 29.4687 197.183 28.946C196.903 28.4233 196.763 27.8353 196.763 27.182C196.763 26.5287 196.903 25.9407 197.183 25.418C197.472 24.8953 197.859 24.48 198.345 24.172C198.839 23.864 199.395 23.71 200.011 23.71C200.515 23.71 200.963 23.8173 201.355 24.032C201.756 24.2373 202.078 24.5267 202.321 24.9C202.563 25.264 202.699 25.6887 202.727 26.174V28.176C202.699 28.652 202.563 29.0767 202.321 29.45C202.087 29.8233 201.77 30.1173 201.369 30.332C200.977 30.5373 200.524 30.64 200.011 30.64ZM200.221 29.45C200.846 29.45 201.35 29.24 201.733 28.82C202.115 28.3907 202.307 27.8447 202.307 27.182C202.307 26.7247 202.218 26.328 202.041 25.992C201.873 25.6467 201.63 25.3807 201.313 25.194C200.995 24.998 200.627 24.9 200.207 24.9C199.787 24.9 199.413 24.998 199.087 25.194C198.769 25.39 198.517 25.6607 198.331 26.006C198.153 26.342 198.065 26.7293 198.065 27.168C198.065 27.616 198.153 28.0127 198.331 28.358C198.517 28.694 198.774 28.96 199.101 29.156C199.427 29.352 199.801 29.45 200.221 29.45ZM202.223 30.5V28.708L202.461 27.084L202.223 25.474V23.85H203.497V30.5H202.223ZM207.648 30.5L204.596 23.85H205.996L208.446 29.464H207.634L210.098 23.85H211.442L208.39 30.5H207.648ZM215.372 30.64C214.709 30.64 214.112 30.4907 213.58 30.192C213.048 29.884 212.628 29.4687 212.32 28.946C212.012 28.4233 211.858 27.8307 211.858 27.168C211.858 26.5147 212.007 25.9267 212.306 25.404C212.614 24.8813 213.024 24.4707 213.538 24.172C214.06 23.864 214.644 23.71 215.288 23.71C215.904 23.71 216.445 23.85 216.912 24.13C217.388 24.41 217.756 24.7973 218.018 25.292C218.288 25.7867 218.424 26.3467 218.424 26.972C218.424 27.0653 218.419 27.168 218.41 27.28C218.4 27.3827 218.382 27.504 218.354 27.644H212.74V26.594H217.682L217.22 27C217.22 26.552 217.14 26.174 216.982 25.866C216.823 25.5487 216.599 25.306 216.31 25.138C216.02 24.9607 215.67 24.872 215.26 24.872C214.83 24.872 214.452 24.9653 214.126 25.152C213.799 25.3387 213.547 25.6 213.37 25.936C213.192 26.272 213.104 26.6687 213.104 27.126C213.104 27.5927 213.197 28.0033 213.384 28.358C213.57 28.7033 213.836 28.974 214.182 29.17C214.527 29.3567 214.924 29.45 215.372 29.45C215.745 29.45 216.086 29.3847 216.394 29.254C216.711 29.1233 216.982 28.9273 217.206 28.666L218.018 29.492C217.7 29.8653 217.308 30.15 216.842 30.346C216.384 30.542 215.894 30.64 215.372 30.64ZM226.28 30.64C225.776 30.64 225.318 30.5373 224.908 30.332C224.506 30.1173 224.184 29.8233 223.942 29.45C223.699 29.0767 223.564 28.652 223.536 28.176V26.174C223.564 25.6887 223.699 25.264 223.942 24.9C224.194 24.5267 224.52 24.2373 224.922 24.032C225.332 23.8173 225.785 23.71 226.28 23.71C226.886 23.71 227.432 23.864 227.918 24.172C228.412 24.48 228.8 24.8953 229.08 25.418C229.36 25.9407 229.5 26.5287 229.5 27.182C229.5 27.8353 229.36 28.4233 229.08 28.946C228.8 29.4687 228.412 29.884 227.918 30.192C227.432 30.4907 226.886 30.64 226.28 30.64ZM226.07 29.45C226.49 29.45 226.858 29.352 227.176 29.156C227.493 28.96 227.745 28.694 227.932 28.358C228.118 28.0127 228.212 27.616 228.212 27.168C228.212 26.7293 228.118 26.3373 227.932 25.992C227.745 25.6467 227.493 25.3807 227.176 25.194C226.858 24.998 226.494 24.9 226.084 24.9C225.664 24.9 225.295 24.998 224.978 25.194C224.66 25.3807 224.413 25.6467 224.236 25.992C224.058 26.3373 223.97 26.734 223.97 27.182C223.97 27.6207 224.054 28.0127 224.222 28.358C224.399 28.694 224.646 28.96 224.964 29.156C225.29 29.352 225.659 29.45 226.07 29.45ZM222.78 30.5V20.504H224.04V25.474L223.802 27.084L224.04 28.708V30.5H222.78ZM234.043 30.64C233.381 30.64 232.783 30.4907 232.251 30.192C231.719 29.884 231.299 29.4687 230.991 28.946C230.683 28.4233 230.529 27.8307 230.529 27.168C230.529 26.5147 230.679 25.9267 230.977 25.404C231.285 24.8813 231.696 24.4707 232.209 24.172C232.732 23.864 233.315 23.71 233.959 23.71C234.575 23.71 235.117 23.85 235.583 24.13C236.059 24.41 236.428 24.7973 236.689 25.292C236.96 25.7867 237.095 26.3467 237.095 26.972C237.095 27.0653 237.091 27.168 237.081 27.28C237.072 27.3827 237.053 27.504 237.025 27.644H231.411V26.594H236.353L235.891 27C235.891 26.552 235.812 26.174 235.653 25.866C235.495 25.5487 235.271 25.306 234.981 25.138C234.692 24.9607 234.342 24.872 233.931 24.872C233.502 24.872 233.124 24.9653 232.797 25.152C232.471 25.3387 232.219 25.6 232.041 25.936C231.864 26.272 231.775 26.6687 231.775 27.126C231.775 27.5927 231.869 28.0033 232.055 28.358C232.242 28.7033 232.508 28.974 232.853 29.17C233.199 29.3567 233.595 29.45 234.043 29.45C234.417 29.45 234.757 29.3847 235.065 29.254C235.383 29.1233 235.653 28.9273 235.877 28.666L236.689 29.492C236.372 29.8653 235.98 30.15 235.513 30.346C235.056 30.542 234.566 30.64 234.043 30.64ZM243.208 30.5V26.622C243.208 26.118 243.049 25.7027 242.732 25.376C242.415 25.0493 242.004 24.886 241.5 24.886C241.164 24.886 240.865 24.9607 240.604 25.11C240.343 25.2593 240.137 25.4647 239.988 25.726C239.839 25.9873 239.764 26.286 239.764 26.622L239.246 26.328C239.246 25.824 239.358 25.376 239.582 24.984C239.806 24.592 240.119 24.284 240.52 24.06C240.921 23.8267 241.374 23.71 241.878 23.71C242.382 23.71 242.825 23.836 243.208 24.088C243.6 24.34 243.908 24.6713 244.132 25.082C244.356 25.4833 244.468 25.9127 244.468 26.37V30.5H243.208ZM238.504 30.5V23.85H239.764V30.5H238.504ZM249.289 30.64C248.626 30.64 248.029 30.4907 247.497 30.192C246.965 29.884 246.545 29.4687 246.237 28.946C245.929 28.4233 245.775 27.8307 245.775 27.168C245.775 26.5147 245.924 25.9267 246.223 25.404C246.531 24.8813 246.942 24.4707 247.455 24.172C247.978 23.864 248.561 23.71 249.205 23.71C249.821 23.71 250.362 23.85 250.829 24.13C251.305 24.41 251.674 24.7973 251.935 25.292C252.206 25.7867 252.341 26.3467 252.341 26.972C252.341 27.0653 252.336 27.168 252.327 27.28C252.318 27.3827 252.299 27.504 252.271 27.644H246.657V26.594H251.599L251.137 27C251.137 26.552 251.058 26.174 250.899 25.866C250.74 25.5487 250.516 25.306 250.227 25.138C249.938 24.9607 249.588 24.872 249.177 24.872C248.748 24.872 248.37 24.9653 248.043 25.152C247.716 25.3387 247.464 25.6 247.287 25.936C247.11 26.272 247.021 26.6687 247.021 27.126C247.021 27.5927 247.114 28.0033 247.301 28.358C247.488 28.7033 247.754 28.974 248.099 29.17C248.444 29.3567 248.841 29.45 249.289 29.45C249.662 29.45 250.003 29.3847 250.311 29.254C250.628 29.1233 250.899 28.9273 251.123 28.666L251.935 29.492C251.618 29.8653 251.226 30.15 250.759 30.346C250.302 30.542 249.812 30.64 249.289 30.64ZM254.497 30.5V22.646C254.497 22.2073 254.59 21.82 254.777 21.484C254.973 21.1387 255.243 20.868 255.589 20.672C255.934 20.4667 256.331 20.364 256.779 20.364C257.124 20.364 257.427 20.4247 257.689 20.546C257.95 20.658 258.193 20.8167 258.417 21.022L257.591 21.848C257.469 21.7453 257.343 21.6707 257.213 21.624C257.082 21.568 256.937 21.54 256.779 21.54C256.452 21.54 256.2 21.6427 256.023 21.848C255.845 22.044 255.757 22.31 255.757 22.646V30.5H254.497ZM252.859 24.998V23.85H259.173V24.998H252.859ZM258.445 30.5V23.85H259.719V30.5H258.445ZM259.075 23.15C258.851 23.15 258.664 23.0753 258.515 22.926C258.365 22.7673 258.291 22.5713 258.291 22.338C258.291 22.114 258.365 21.9273 258.515 21.778C258.664 21.6193 258.851 21.54 259.075 21.54C259.317 21.54 259.509 21.6193 259.649 21.778C259.798 21.9273 259.873 22.114 259.873 22.338C259.873 22.5713 259.798 22.7673 259.649 22.926C259.509 23.0753 259.317 23.15 259.075 23.15ZM262.627 30.5V21.064H263.887V30.5H262.627ZM260.989 24.998V23.85H265.525V24.998H260.989ZM269.669 30.64C269.007 30.64 268.409 30.4907 267.877 30.192C267.345 29.884 266.925 29.4687 266.617 28.946C266.309 28.4233 266.155 27.8307 266.155 27.168C266.155 26.5147 266.305 25.9267 266.603 25.404C266.911 24.8813 267.322 24.4707 267.835 24.172C268.358 23.864 268.941 23.71 269.585 23.71C270.201 23.71 270.743 23.85 271.209 24.13C271.685 24.41 272.054 24.7973 272.315 25.292C272.586 25.7867 272.721 26.3467 272.721 26.972C272.721 27.0653 272.717 27.168 272.707 27.28C272.698 27.3827 272.679 27.504 272.651 27.644H267.037V26.594H271.979L271.517 27C271.517 26.552 271.438 26.174 271.279 25.866C271.121 25.5487 270.897 25.306 270.607 25.138C270.318 24.9607 269.968 24.872 269.557 24.872C269.128 24.872 268.75 24.9653 268.423 25.152C268.097 25.3387 267.845 25.6 267.667 25.936C267.49 26.272 267.401 26.6687 267.401 27.126C267.401 27.5927 267.495 28.0033 267.681 28.358C267.868 28.7033 268.134 28.974 268.479 29.17C268.825 29.3567 269.221 29.45 269.669 29.45C270.043 29.45 270.383 29.3847 270.691 29.254C271.009 29.1233 271.279 28.9273 271.503 28.666L272.315 29.492C271.998 29.8653 271.606 30.15 271.139 30.346C270.682 30.542 270.192 30.64 269.669 30.64ZM276.944 30.64C276.328 30.64 275.778 30.4907 275.292 30.192C274.807 29.884 274.42 29.4687 274.13 28.946C273.85 28.4233 273.71 27.8353 273.71 27.182C273.71 26.5287 273.85 25.9407 274.13 25.418C274.42 24.8953 274.807 24.48 275.292 24.172C275.778 23.864 276.328 23.71 276.944 23.71C277.439 23.71 277.887 23.8173 278.288 24.032C278.69 24.2373 279.012 24.5267 279.254 24.9C279.506 25.264 279.646 25.6887 279.674 26.174V28.176C279.646 28.652 279.511 29.0767 279.268 29.45C279.026 29.8233 278.704 30.1173 278.302 30.332C277.901 30.5373 277.448 30.64 276.944 30.64ZM277.154 29.45C277.574 29.45 277.938 29.352 278.246 29.156C278.564 28.96 278.811 28.694 278.988 28.358C279.166 28.0127 279.254 27.6207 279.254 27.182C279.254 26.7247 279.161 26.328 278.974 25.992C278.797 25.656 278.55 25.39 278.232 25.194C277.924 24.998 277.56 24.9 277.14 24.9C276.72 24.9 276.352 24.998 276.034 25.194C275.717 25.39 275.465 25.6607 275.278 26.006C275.101 26.342 275.012 26.7293 275.012 27.168C275.012 27.616 275.101 28.0127 275.278 28.358C275.465 28.694 275.717 28.96 276.034 29.156C276.361 29.352 276.734 29.45 277.154 29.45ZM280.444 30.5H279.17V28.708L279.408 27.084L279.17 25.474V20.504H280.444V30.5ZM286.213 30.5V22.856C286.213 22.3613 286.32 21.932 286.535 21.568C286.749 21.1947 287.043 20.9007 287.417 20.686C287.799 20.4713 288.243 20.364 288.747 20.364C289.129 20.364 289.461 20.4293 289.741 20.56C290.021 20.6907 290.277 20.882 290.511 21.134L289.685 21.946C289.563 21.8153 289.428 21.7173 289.279 21.652C289.129 21.5773 288.947 21.54 288.733 21.54C288.331 21.54 288.019 21.6567 287.795 21.89C287.58 22.1233 287.473 22.4453 287.473 22.856V30.5H286.213ZM284.575 24.998V23.85H289.587V24.998H284.575ZM290.641 30.5V23.85H291.901V30.5H290.641ZM291.901 26.706L291.425 26.496C291.425 25.6467 291.621 24.97 292.013 24.466C292.405 23.962 292.97 23.71 293.707 23.71C294.043 23.71 294.347 23.7707 294.617 23.892C294.888 24.004 295.14 24.1953 295.373 24.466L294.547 25.32C294.407 25.1707 294.253 25.0633 294.085 24.998C293.917 24.9327 293.721 24.9 293.497 24.9C293.031 24.9 292.648 25.0493 292.349 25.348C292.051 25.6467 291.901 26.0993 291.901 26.706ZM299.115 30.64C298.462 30.64 297.874 30.486 297.351 30.178C296.828 29.87 296.413 29.4547 296.105 28.932C295.797 28.4 295.643 27.8073 295.643 27.154C295.643 26.51 295.797 25.9313 296.105 25.418C296.413 24.8953 296.828 24.48 297.351 24.172C297.874 23.864 298.462 23.71 299.115 23.71C299.759 23.71 300.342 23.864 300.865 24.172C301.397 24.4707 301.817 24.8813 302.125 25.404C302.433 25.9267 302.587 26.51 302.587 27.154C302.587 27.8073 302.433 28.4 302.125 28.932C301.817 29.4547 301.397 29.87 300.865 30.178C300.342 30.486 299.759 30.64 299.115 30.64ZM299.115 29.422C299.535 29.422 299.908 29.324 300.235 29.128C300.562 28.932 300.818 28.666 301.005 28.33C301.192 27.9847 301.285 27.5927 301.285 27.154C301.285 26.7247 301.187 26.342 300.991 26.006C300.804 25.67 300.548 25.4087 300.221 25.222C299.904 25.026 299.535 24.928 299.115 24.928C298.695 24.928 298.322 25.026 297.995 25.222C297.668 25.4087 297.412 25.67 297.225 26.006C297.038 26.342 296.945 26.7247 296.945 27.154C296.945 27.5927 297.038 27.9847 297.225 28.33C297.412 28.666 297.668 28.932 297.995 29.128C298.322 29.324 298.695 29.422 299.115 29.422ZM304.042 30.5V23.85H305.302V30.5H304.042ZM308.536 30.5V26.482C308.536 25.9873 308.382 25.6 308.074 25.32C307.775 25.0307 307.397 24.886 306.94 24.886C306.632 24.886 306.356 24.9513 306.114 25.082C305.871 25.2127 305.675 25.3947 305.526 25.628C305.376 25.8613 305.302 26.1413 305.302 26.468L304.784 26.216C304.784 25.712 304.891 25.2733 305.106 24.9C305.33 24.5267 305.633 24.2373 306.016 24.032C306.398 23.8173 306.828 23.71 307.304 23.71C307.77 23.71 308.19 23.8127 308.564 24.018C308.946 24.2233 309.245 24.5127 309.46 24.886C309.684 25.2593 309.796 25.7027 309.796 26.216V30.5H308.536ZM313.03 30.5V26.482C313.03 25.9873 312.876 25.6 312.568 25.32C312.269 25.0307 311.896 24.886 311.448 24.886C311.14 24.886 310.86 24.9513 310.608 25.082C310.365 25.2127 310.169 25.3947 310.02 25.628C309.87 25.8613 309.796 26.1413 309.796 26.468L309.082 26.216C309.11 25.7027 309.245 25.264 309.488 24.9C309.74 24.5267 310.062 24.2373 310.454 24.032C310.846 23.8173 311.275 23.71 311.742 23.71C312.227 23.71 312.661 23.8127 313.044 24.018C313.426 24.2233 313.73 24.5127 313.954 24.886C314.187 25.2593 314.304 25.7073 314.304 26.23V30.5H313.03ZM320.022 30.5V21.064H321.282V30.5H320.022ZM318.384 24.998V23.85H322.92V24.998H318.384ZM328.894 30.5V26.622C328.894 26.118 328.735 25.7027 328.418 25.376C328.1 25.0493 327.69 24.886 327.186 24.886C326.85 24.886 326.551 24.9607 326.29 25.11C326.028 25.2593 325.823 25.4647 325.674 25.726C325.524 25.9873 325.45 26.286 325.45 26.622L324.932 26.328C324.932 25.824 325.044 25.376 325.268 24.984C325.492 24.592 325.804 24.284 326.206 24.06C326.607 23.8267 327.06 23.71 327.564 23.71C328.068 23.71 328.511 23.822 328.894 24.046C329.286 24.27 329.594 24.5827 329.818 24.984C330.042 25.3853 330.154 25.8473 330.154 26.37V30.5H328.894ZM324.19 30.5V20.504H325.45V30.5H324.19ZM331.908 30.5V23.85H333.168V30.5H331.908ZM332.538 22.52C332.305 22.52 332.114 22.4453 331.964 22.296C331.815 22.1373 331.74 21.9413 331.74 21.708C331.74 21.484 331.815 21.2973 331.964 21.148C332.114 20.9893 332.305 20.91 332.538 20.91C332.772 20.91 332.963 20.9893 333.112 21.148C333.262 21.2973 333.336 21.484 333.336 21.708C333.336 21.9413 333.262 22.1373 333.112 22.296C332.963 22.4453 332.772 22.52 332.538 22.52ZM337.174 30.64C336.801 30.64 336.446 30.5933 336.11 30.5C335.784 30.3973 335.48 30.2573 335.2 30.08C334.92 29.8933 334.678 29.674 334.472 29.422L335.284 28.61C335.527 28.9087 335.807 29.1327 336.124 29.282C336.442 29.422 336.796 29.492 337.188 29.492C337.58 29.492 337.884 29.4267 338.098 29.296C338.313 29.156 338.42 28.9647 338.42 28.722C338.42 28.4793 338.332 28.2927 338.154 28.162C337.986 28.022 337.767 27.91 337.496 27.826C337.226 27.7327 336.936 27.644 336.628 27.56C336.33 27.4667 336.045 27.35 335.774 27.21C335.504 27.07 335.28 26.8787 335.102 26.636C334.934 26.3933 334.85 26.0713 334.85 25.67C334.85 25.2687 334.948 24.9233 335.144 24.634C335.34 24.3353 335.611 24.1067 335.956 23.948C336.311 23.7893 336.736 23.71 337.23 23.71C337.753 23.71 338.215 23.8033 338.616 23.99C339.027 24.1673 339.363 24.438 339.624 24.802L338.812 25.614C338.626 25.3713 338.392 25.1847 338.112 25.054C337.842 24.9233 337.534 24.858 337.188 24.858C336.824 24.858 336.544 24.9233 336.348 25.054C336.162 25.1753 336.068 25.348 336.068 25.572C336.068 25.796 336.152 25.9687 336.32 26.09C336.488 26.2113 336.708 26.314 336.978 26.398C337.258 26.482 337.548 26.5707 337.846 26.664C338.145 26.748 338.43 26.8647 338.7 27.014C338.971 27.1633 339.19 27.364 339.358 27.616C339.536 27.868 339.624 28.1993 339.624 28.61C339.624 29.2353 339.4 29.73 338.952 30.094C338.514 30.458 337.921 30.64 337.174 30.64ZM76.424 48.64C75.92 48.64 75.4627 48.5373 75.052 48.332C74.6507 48.1173 74.3287 47.8233 74.086 47.45C73.8433 47.0767 73.708 46.652 73.68 46.176V44.174C73.708 43.6887 73.8433 43.264 74.086 42.9C74.338 42.5267 74.6647 42.2373 75.066 42.032C75.4767 41.8173 75.9293 41.71 76.424 41.71C77.0307 41.71 77.5767 41.864 78.062 42.172C78.5567 42.48 78.944 42.8953 79.224 43.418C79.504 43.9407 79.644 44.5287 79.644 45.182C79.644 45.8353 79.504 46.4233 79.224 46.946C78.944 47.4687 78.5567 47.884 78.062 48.192C77.5767 48.4907 77.0307 48.64 76.424 48.64ZM76.214 47.45C76.634 47.45 77.0027 47.352 77.32 47.156C77.6373 46.96 77.8893 46.694 78.076 46.358C78.2627 46.0127 78.356 45.616 78.356 45.168C78.356 44.7293 78.2627 44.3373 78.076 43.992C77.8893 43.6467 77.6373 43.3807 77.32 43.194C77.0027 42.998 76.6387 42.9 76.228 42.9C75.808 42.9 75.4393 42.998 75.122 43.194C74.8047 43.3807 74.5573 43.6467 74.38 43.992C74.2027 44.3373 74.114 44.734 74.114 45.182C74.114 45.6207 74.198 46.0127 74.366 46.358C74.5433 46.694 74.7907 46.96 75.108 47.156C75.4347 47.352 75.8033 47.45 76.214 47.45ZM72.924 51.286V41.85H74.184V43.6L73.946 45.21L74.184 46.834V51.286H72.924ZM81.1074 48.5V41.85H82.3674V48.5H81.1074ZM82.3674 44.706L81.8914 44.496C81.8914 43.6467 82.0874 42.97 82.4794 42.466C82.8714 41.962 83.4361 41.71 84.1734 41.71C84.5094 41.71 84.8128 41.7707 85.0834 41.892C85.3541 42.004 85.6061 42.1953 85.8394 42.466L85.0134 43.32C84.8734 43.1707 84.7194 43.0633 84.5514 42.998C84.3834 42.9327 84.1874 42.9 83.9634 42.9C83.4968 42.9 83.1141 43.0493 82.8154 43.348C82.5168 43.6467 82.3674 44.0993 82.3674 44.706ZM89.5808 48.64C88.9275 48.64 88.3395 48.486 87.8168 48.178C87.2942 47.87 86.8788 47.4547 86.5708 46.932C86.2628 46.4 86.1088 45.8073 86.1088 45.154C86.1088 44.51 86.2628 43.9313 86.5708 43.418C86.8788 42.8953 87.2942 42.48 87.8168 42.172C88.3395 41.864 88.9275 41.71 89.5808 41.71C90.2248 41.71 90.8082 41.864 91.3308 42.172C91.8628 42.4707 92.2828 42.8813 92.5908 43.404C92.8988 43.9267 93.0528 44.51 93.0528 45.154C93.0528 45.8073 92.8988 46.4 92.5908 46.932C92.2828 47.4547 91.8628 47.87 91.3308 48.178C90.8082 48.486 90.2248 48.64 89.5808 48.64ZM89.5808 47.422C90.0008 47.422 90.3742 47.324 90.7008 47.128C91.0275 46.932 91.2842 46.666 91.4708 46.33C91.6575 45.9847 91.7508 45.5927 91.7508 45.154C91.7508 44.7247 91.6528 44.342 91.4568 44.006C91.2702 43.67 91.0135 43.4087 90.6868 43.222C90.3695 43.026 90.0008 42.928 89.5808 42.928C89.1608 42.928 88.7875 43.026 88.4608 43.222C88.1342 43.4087 87.8775 43.67 87.6908 44.006C87.5042 44.342 87.4108 44.7247 87.4108 45.154C87.4108 45.5927 87.5042 45.9847 87.6908 46.33C87.8775 46.666 88.1342 46.932 88.4608 47.128C88.7875 47.324 89.1608 47.422 89.5808 47.422ZM97.2655 51.426C96.5842 51.426 95.9775 51.3 95.4455 51.048C94.9228 50.796 94.5028 50.4413 94.1855 49.984L94.9975 49.158C95.2682 49.5033 95.5902 49.7647 95.9635 49.942C96.3368 50.1287 96.7802 50.222 97.2935 50.222C97.9748 50.222 98.5115 50.04 98.9035 49.676C99.3048 49.3213 99.5055 48.8407 99.5055 48.234V46.582L99.7295 45.084L99.5055 43.6V41.85H100.766V48.234C100.766 48.8687 100.616 49.424 100.318 49.9C100.028 50.376 99.6175 50.7493 99.0855 51.02C98.5628 51.2907 97.9562 51.426 97.2655 51.426ZM97.2655 48.388C96.6588 48.388 96.1128 48.2433 95.6275 47.954C95.1515 47.6647 94.7735 47.268 94.4935 46.764C94.2135 46.2507 94.0735 45.6767 94.0735 45.042C94.0735 44.4073 94.2135 43.8427 94.4935 43.348C94.7735 42.844 95.1515 42.4473 95.6275 42.158C96.1128 41.8593 96.6588 41.71 97.2655 41.71C97.7882 41.71 98.2502 41.8127 98.6515 42.018C99.0528 42.2233 99.3702 42.5127 99.6035 42.886C99.8462 43.25 99.9768 43.6793 99.9955 44.174V45.938C99.9675 46.4233 99.8322 46.8527 99.5895 47.226C99.3562 47.59 99.0388 47.8747 98.6375 48.08C98.2362 48.2853 97.7788 48.388 97.2655 48.388ZM97.5175 47.198C97.9282 47.198 98.2875 47.1093 98.5955 46.932C98.9128 46.7547 99.1555 46.5073 99.3235 46.19C99.4915 45.8633 99.5755 45.4853 99.5755 45.056C99.5755 44.6267 99.4868 44.2533 99.3095 43.936C99.1415 43.6093 98.9035 43.3573 98.5955 43.18C98.2875 42.9933 97.9235 42.9 97.5035 42.9C97.0835 42.9 96.7148 42.9933 96.3975 43.18C96.0802 43.3573 95.8282 43.6093 95.6415 43.936C95.4642 44.2533 95.3755 44.622 95.3755 45.042C95.3755 45.462 95.4642 45.8353 95.6415 46.162C95.8282 46.4887 96.0802 46.7453 96.3975 46.932C96.7242 47.1093 97.0975 47.198 97.5175 47.198ZM102.65 48.5V41.85H103.91V48.5H102.65ZM103.91 44.706L103.434 44.496C103.434 43.6467 103.63 42.97 104.022 42.466C104.414 41.962 104.979 41.71 105.716 41.71C106.052 41.71 106.355 41.7707 106.626 41.892C106.897 42.004 107.149 42.1953 107.382 42.466L106.556 43.32C106.416 43.1707 106.262 43.0633 106.094 42.998C105.926 42.9327 105.73 42.9 105.506 42.9C105.039 42.9 104.657 43.0493 104.358 43.348C104.059 43.6467 103.91 44.0993 103.91 44.706ZM110.913 48.64C110.307 48.64 109.756 48.4907 109.261 48.192C108.767 47.884 108.375 47.4687 108.085 46.946C107.805 46.4233 107.665 45.8353 107.665 45.182C107.665 44.5287 107.805 43.9407 108.085 43.418C108.375 42.8953 108.762 42.48 109.247 42.172C109.742 41.864 110.297 41.71 110.913 41.71C111.417 41.71 111.865 41.8173 112.257 42.032C112.659 42.2373 112.981 42.5267 113.223 42.9C113.466 43.264 113.601 43.6887 113.629 44.174V46.176C113.601 46.652 113.466 47.0767 113.223 47.45C112.99 47.8233 112.673 48.1173 112.271 48.332C111.879 48.5373 111.427 48.64 110.913 48.64ZM111.123 47.45C111.749 47.45 112.253 47.24 112.635 46.82C113.018 46.3907 113.209 45.8447 113.209 45.182C113.209 44.7247 113.121 44.328 112.943 43.992C112.775 43.6467 112.533 43.3807 112.215 43.194C111.898 42.998 111.529 42.9 111.109 42.9C110.689 42.9 110.316 42.998 109.989 43.194C109.672 43.39 109.42 43.6607 109.233 44.006C109.056 44.342 108.967 44.7293 108.967 45.168C108.967 45.616 109.056 46.0127 109.233 46.358C109.42 46.694 109.677 46.96 110.003 47.156C110.33 47.352 110.703 47.45 111.123 47.45ZM113.125 48.5V46.708L113.363 45.084L113.125 43.474V41.85H114.399V48.5H113.125ZM116.269 48.5V41.85H117.529V48.5H116.269ZM120.763 48.5V44.482C120.763 43.9873 120.609 43.6 120.301 43.32C120.002 43.0307 119.624 42.886 119.167 42.886C118.859 42.886 118.583 42.9513 118.341 43.082C118.098 43.2127 117.902 43.3947 117.753 43.628C117.603 43.8613 117.529 44.1413 117.529 44.468L117.011 44.216C117.011 43.712 117.118 43.2733 117.333 42.9C117.557 42.5267 117.86 42.2373 118.243 42.032C118.625 41.8173 119.055 41.71 119.531 41.71C119.997 41.71 120.417 41.8127 120.791 42.018C121.173 42.2233 121.472 42.5127 121.687 42.886C121.911 43.2593 122.023 43.7027 122.023 44.216V48.5H120.763ZM125.257 48.5V44.482C125.257 43.9873 125.103 43.6 124.795 43.32C124.496 43.0307 124.123 42.886 123.675 42.886C123.367 42.886 123.087 42.9513 122.835 43.082C122.592 43.2127 122.396 43.3947 122.247 43.628C122.097 43.8613 122.023 44.1413 122.023 44.468L121.309 44.216C121.337 43.7027 121.472 43.264 121.715 42.9C121.967 42.5267 122.289 42.2373 122.681 42.032C123.073 41.8173 123.502 41.71 123.969 41.71C124.454 41.71 124.888 41.8127 125.271 42.018C125.653 42.2233 125.957 42.5127 126.181 42.886C126.414 43.2593 126.531 43.7073 126.531 44.23V48.5H125.257ZM128.35 50.04L129.218 48.374L129.666 48.262C129.62 48.3647 129.559 48.4487 129.484 48.514C129.419 48.5793 129.335 48.612 129.232 48.612C129.036 48.612 128.854 48.5327 128.686 48.374C128.528 48.206 128.448 48.0007 128.448 47.758C128.448 47.4873 128.537 47.2633 128.714 47.086C128.892 46.8993 129.116 46.806 129.386 46.806C129.629 46.806 129.844 46.8993 130.03 47.086C130.217 47.2633 130.31 47.4873 130.31 47.758C130.31 47.8607 130.287 47.9867 130.24 48.136C130.203 48.276 130.124 48.458 130.002 48.682L129.078 50.432L128.35 50.04ZM137.302 48.556L134.418 41.85H135.818L137.96 47.1H137.512L139.766 41.85H141.166L138.058 48.556H137.302ZM135.398 51.286L137.358 47.268L138.058 48.556L136.798 51.286H135.398ZM145.013 48.64C144.36 48.64 143.772 48.486 143.249 48.178C142.727 47.87 142.311 47.4547 142.003 46.932C141.695 46.4 141.541 45.8073 141.541 45.154C141.541 44.51 141.695 43.9313 142.003 43.418C142.311 42.8953 142.727 42.48 143.249 42.172C143.772 41.864 144.36 41.71 145.013 41.71C145.657 41.71 146.241 41.864 146.763 42.172C147.295 42.4707 147.715 42.8813 148.023 43.404C148.331 43.9267 148.485 44.51 148.485 45.154C148.485 45.8073 148.331 46.4 148.023 46.932C147.715 47.4547 147.295 47.87 146.763 48.178C146.241 48.486 145.657 48.64 145.013 48.64ZM145.013 47.422C145.433 47.422 145.807 47.324 146.133 47.128C146.46 46.932 146.717 46.666 146.903 46.33C147.09 45.9847 147.183 45.5927 147.183 45.154C147.183 44.7247 147.085 44.342 146.889 44.006C146.703 43.67 146.446 43.4087 146.119 43.222C145.802 43.026 145.433 42.928 145.013 42.928C144.593 42.928 144.22 43.026 143.893 43.222C143.567 43.4087 143.31 43.67 143.123 44.006C142.937 44.342 142.843 44.7247 142.843 45.154C142.843 45.5927 142.937 45.9847 143.123 46.33C143.31 46.666 143.567 46.932 143.893 47.128C144.22 47.324 144.593 47.422 145.013 47.422ZM152.614 48.64C152.073 48.64 151.583 48.5187 151.144 48.276C150.715 48.024 150.379 47.6787 150.136 47.24C149.893 46.8013 149.772 46.2927 149.772 45.714V41.85H151.032V45.658C151.032 46.022 151.093 46.3393 151.214 46.61C151.345 46.8713 151.531 47.072 151.774 47.212C152.017 47.352 152.301 47.422 152.628 47.422C153.123 47.422 153.51 47.268 153.79 46.96C154.07 46.6427 154.21 46.2087 154.21 45.658V41.85H155.47V45.714C155.47 46.2927 155.349 46.8013 155.106 47.24C154.863 47.6787 154.527 48.024 154.098 48.276C153.678 48.5187 153.183 48.64 152.614 48.64ZM162.969 48.64C162.362 48.64 161.811 48.4907 161.317 48.192C160.822 47.884 160.43 47.4687 160.141 46.946C159.861 46.4233 159.721 45.8353 159.721 45.182C159.721 44.5287 159.861 43.9407 160.141 43.418C160.43 42.8953 160.817 42.48 161.303 42.172C161.797 41.864 162.353 41.71 162.969 41.71C163.473 41.71 163.921 41.8173 164.313 42.032C164.714 42.2373 165.036 42.5267 165.279 42.9C165.521 43.264 165.657 43.6887 165.685 44.174V46.176C165.657 46.652 165.521 47.0767 165.279 47.45C165.045 47.8233 164.728 48.1173 164.327 48.332C163.935 48.5373 163.482 48.64 162.969 48.64ZM163.179 47.45C163.804 47.45 164.308 47.24 164.691 46.82C165.073 46.3907 165.265 45.8447 165.265 45.182C165.265 44.7247 165.176 44.328 164.999 43.992C164.831 43.6467 164.588 43.3807 164.271 43.194C163.953 42.998 163.585 42.9 163.165 42.9C162.745 42.9 162.371 42.998 162.045 43.194C161.727 43.39 161.475 43.6607 161.289 44.006C161.111 44.342 161.023 44.7293 161.023 45.168C161.023 45.616 161.111 46.0127 161.289 46.358C161.475 46.694 161.732 46.96 162.059 47.156C162.385 47.352 162.759 47.45 163.179 47.45ZM165.181 48.5V46.708L165.419 45.084L165.181 43.474V41.85H166.455V48.5H165.181ZM168.324 48.5V41.85H169.584V48.5H168.324ZM169.584 44.706L169.108 44.496C169.108 43.6467 169.304 42.97 169.696 42.466C170.088 41.962 170.653 41.71 171.39 41.71C171.726 41.71 172.029 41.7707 172.3 41.892C172.571 42.004 172.823 42.1953 173.056 42.466L172.23 43.32C172.09 43.1707 171.936 43.0633 171.768 42.998C171.6 42.9327 171.404 42.9 171.18 42.9C170.713 42.9 170.331 43.0493 170.032 43.348C169.733 43.6467 169.584 44.0993 169.584 44.706ZM176.84 48.64C176.177 48.64 175.58 48.4907 175.048 48.192C174.516 47.884 174.096 47.4687 173.788 46.946C173.48 46.4233 173.326 45.8307 173.326 45.168C173.326 44.5147 173.475 43.9267 173.774 43.404C174.082 42.8813 174.492 42.4707 175.006 42.172C175.528 41.864 176.112 41.71 176.756 41.71C177.372 41.71 177.913 41.85 178.38 42.13C178.856 42.41 179.224 42.7973 179.486 43.292C179.756 43.7867 179.892 44.3467 179.892 44.972C179.892 45.0653 179.887 45.168 179.878 45.28C179.868 45.3827 179.85 45.504 179.822 45.644H174.208V44.594H179.15L178.688 45C178.688 44.552 178.608 44.174 178.45 43.866C178.291 43.5487 178.067 43.306 177.778 43.138C177.488 42.9607 177.138 42.872 176.728 42.872C176.298 42.872 175.92 42.9653 175.594 43.152C175.267 43.3387 175.015 43.6 174.838 43.936C174.66 44.272 174.572 44.6687 174.572 45.126C174.572 45.5927 174.665 46.0033 174.852 46.358C175.038 46.7033 175.304 46.974 175.65 47.17C175.995 47.3567 176.392 47.45 176.84 47.45C177.213 47.45 177.554 47.3847 177.862 47.254C178.179 47.1233 178.45 46.9273 178.674 46.666L179.486 47.492C179.168 47.8653 178.776 48.15 178.31 48.346C177.852 48.542 177.362 48.64 176.84 48.64ZM185.27 48.5V39.064H186.53V48.5H185.27ZM183.632 42.998V41.85H188.168V42.998H183.632ZM194.141 48.5V44.622C194.141 44.118 193.982 43.7027 193.665 43.376C193.347 43.0493 192.937 42.886 192.433 42.886C192.097 42.886 191.798 42.9607 191.537 43.11C191.275 43.2593 191.07 43.4647 190.921 43.726C190.771 43.9873 190.697 44.286 190.697 44.622L190.179 44.328C190.179 43.824 190.291 43.376 190.515 42.984C190.739 42.592 191.051 42.284 191.453 42.06C191.854 41.8267 192.307 41.71 192.811 41.71C193.315 41.71 193.758 41.822 194.141 42.046C194.533 42.27 194.841 42.5827 195.065 42.984C195.289 43.3853 195.401 43.8473 195.401 44.37V48.5H194.141ZM189.437 48.5V38.504H190.697V48.5H189.437ZM200.222 48.64C199.559 48.64 198.962 48.4907 198.43 48.192C197.898 47.884 197.478 47.4687 197.17 46.946C196.862 46.4233 196.708 45.8307 196.708 45.168C196.708 44.5147 196.857 43.9267 197.156 43.404C197.464 42.8813 197.874 42.4707 198.388 42.172C198.91 41.864 199.494 41.71 200.138 41.71C200.754 41.71 201.295 41.85 201.762 42.13C202.238 42.41 202.606 42.7973 202.868 43.292C203.138 43.7867 203.274 44.3467 203.274 44.972C203.274 45.0653 203.269 45.168 203.26 45.28C203.25 45.3827 203.232 45.504 203.204 45.644H197.59V44.594H202.532L202.07 45C202.07 44.552 201.99 44.174 201.832 43.866C201.673 43.5487 201.449 43.306 201.16 43.138C200.87 42.9607 200.52 42.872 200.11 42.872C199.68 42.872 199.302 42.9653 198.976 43.152C198.649 43.3387 198.397 43.6 198.22 43.936C198.042 44.272 197.954 44.6687 197.954 45.126C197.954 45.5927 198.047 46.0033 198.234 46.358C198.42 46.7033 198.686 46.974 199.032 47.17C199.377 47.3567 199.774 47.45 200.222 47.45C200.595 47.45 200.936 47.3847 201.244 47.254C201.561 47.1233 201.832 46.9273 202.056 46.666L202.868 47.492C202.55 47.8653 202.158 48.15 201.692 48.346C201.234 48.542 200.744 48.64 200.222 48.64ZM212.334 48.5V44.622C212.334 44.118 212.175 43.7027 211.858 43.376C211.54 43.0493 211.13 42.886 210.626 42.886C210.29 42.886 209.991 42.9607 209.73 43.11C209.468 43.2593 209.263 43.4647 209.114 43.726C208.964 43.9873 208.89 44.286 208.89 44.622L208.372 44.328C208.372 43.824 208.484 43.376 208.708 42.984C208.932 42.592 209.244 42.284 209.646 42.06C210.047 41.8267 210.5 41.71 211.004 41.71C211.508 41.71 211.951 41.836 212.334 42.088C212.726 42.34 213.034 42.6713 213.258 43.082C213.482 43.4833 213.594 43.9127 213.594 44.37V48.5H212.334ZM207.63 48.5V41.85H208.89V48.5H207.63ZM218.415 48.64C217.752 48.64 217.155 48.4907 216.623 48.192C216.091 47.884 215.671 47.4687 215.363 46.946C215.055 46.4233 214.901 45.8307 214.901 45.168C214.901 44.5147 215.05 43.9267 215.349 43.404C215.657 42.8813 216.067 42.4707 216.581 42.172C217.103 41.864 217.687 41.71 218.331 41.71C218.947 41.71 219.488 41.85 219.955 42.13C220.431 42.41 220.799 42.7973 221.061 43.292C221.331 43.7867 221.467 44.3467 221.467 44.972C221.467 45.0653 221.462 45.168 221.453 45.28C221.443 45.3827 221.425 45.504 221.397 45.644H215.783V44.594H220.725L220.263 45C220.263 44.552 220.183 44.174 220.025 43.866C219.866 43.5487 219.642 43.306 219.353 43.138C219.063 42.9607 218.713 42.872 218.303 42.872C217.873 42.872 217.495 42.9653 217.169 43.152C216.842 43.3387 216.59 43.6 216.413 43.936C216.235 44.272 216.147 44.6687 216.147 45.126C216.147 45.5927 216.24 46.0033 216.427 46.358C216.613 46.7033 216.879 46.974 217.225 47.17C217.57 47.3567 217.967 47.45 218.415 47.45C218.788 47.45 219.129 47.3847 219.437 47.254C219.754 47.1233 220.025 46.9273 220.249 46.666L221.061 47.492C220.743 47.8653 220.351 48.15 219.885 48.346C219.427 48.542 218.937 48.64 218.415 48.64ZM227.038 48.5L224.966 45.588L224.728 45.364L222.11 41.85H223.636L225.526 44.44L225.764 44.636L228.564 48.5H227.038ZM221.984 48.5L224.728 44.804L225.442 45.728L223.468 48.5H221.984ZM225.862 45.35L225.134 44.454L226.968 41.85H228.438L225.862 45.35ZM230.495 48.5V39.064H231.755V48.5H230.495ZM228.857 42.998V41.85H233.393V42.998H228.857Z" fill="black"/>
</g>
<defs>
<filter id="filter0_d_727_788" x="0" y="0" width="405" height="77" filterUnits="userSpaceOnUse" color-interpolation-filters="sRGB">
<feFlood flood-opacity="0" result="BackgroundImageFix"/>
<feColorMatrix in="SourceAlpha" type="matrix" values="0 0 0 0 0 0 0 0 0 0 0 0 0 0 0 0 0 0 127 0" result="hardAlpha"/>
<feOffset dy="4"/>
<feGaussianBlur stdDeviation="2"/>
<feComposite in2="hardAlpha" operator="out"/>
<feColorMatrix type="matrix" values="0 0 0 0 0 0 0 0 0 0 0 0 0 0 0 0 0 0 0.02 0"/>
<feBlend mode="normal" in2="BackgroundImageFix" result="effect1_dropShadow_727_788"/>
<feBlend mode="normal" in="SourceGraphic" in2="effect1_dropShadow_727_788" result="shape"/>
</filter>
</defs>
</svg>
