<svg width="194" height="38" viewBox="0 0 194 38" fill="none" xmlns="http://www.w3.org/2000/svg">
<path d="M1.6 9.6H6.08V32H1.6V9.6ZM8.9675 15.36H13.2235V17.792C14.0982 15.9147 15.7942 14.976 18.3115 14.976C19.5062 14.976 20.5835 15.264 21.5435 15.84C22.5035 16.3947 23.2608 17.1947 23.8155 18.24C24.3702 19.264 24.6475 20.4587 24.6475 21.824V32H20.3275V22.88C20.3275 21.4933 20.0075 20.4587 19.3675 19.776C18.7275 19.0933 17.8528 18.752 16.7435 18.752C15.7622 18.752 14.9408 19.104 14.2795 19.808C13.6182 20.4907 13.2875 21.5147 13.2875 22.88V32H8.9675V15.36ZM33.084 32C31.3987 32 30.1293 31.584 29.276 30.752C28.4227 29.92 27.996 28.6187 27.996 26.848V19.04H25.66V15.36H27.996V12L32.316 11.552V15.36H35.836V19.04H32.316V26.624C32.316 27.648 32.764 28.16 33.66 28.16H35.452V32H33.084ZM44.8105 32.416C43.1252 32.416 41.6318 32.032 40.3305 31.264C39.0292 30.4747 38.0158 29.4187 37.2905 28.096C36.5652 26.7733 36.2025 25.312 36.2025 23.712C36.2025 22.1333 36.5758 20.672 37.3225 19.328C38.0692 17.984 39.0932 16.9173 40.3945 16.128C41.7172 15.3387 43.1892 14.944 44.8105 14.944C46.4318 14.944 47.8825 15.3387 49.1625 16.128C50.4638 16.9173 51.4665 17.984 52.1705 19.328C52.8958 20.6507 53.2585 22.112 53.2585 23.712C53.2585 24.2453 53.2158 24.7573 53.1305 25.248H40.6825C40.9385 26.2507 41.4185 27.0613 42.1225 27.68C42.8478 28.2773 43.7438 28.576 44.8105 28.576C45.7065 28.576 46.5065 28.3733 47.2105 27.968C47.9145 27.5413 48.4692 26.9973 48.8745 26.336L52.2345 28.864C51.5518 29.9307 50.5492 30.7947 49.2265 31.456C47.9038 32.096 46.4318 32.416 44.8105 32.416ZM48.9065 22.016C48.6505 21.056 48.1492 20.256 47.4025 19.616C46.6558 18.976 45.7705 18.656 44.7465 18.656C43.7438 18.656 42.8692 18.9653 42.1225 19.584C41.3972 20.2027 40.9172 21.0133 40.6825 22.016H48.9065ZM55.155 15.36H59.347V18.528C59.6457 17.312 60.2217 16.3947 61.075 15.776C61.9497 15.1573 63.091 14.8907 64.499 14.976V19.04H63.891C62.611 19.04 61.555 19.4453 60.723 20.256C59.891 21.0453 59.475 22.1227 59.475 23.488V32H55.155V15.36ZM65.9363 15.36H70.1923V17.792C71.0669 15.9147 72.7629 14.976 75.2803 14.976C76.4749 14.976 77.5523 15.264 78.5123 15.84C79.4723 16.3947 80.2296 17.1947 80.7843 18.24C81.3389 19.264 81.6163 20.4587 81.6163 21.824V32H77.2963V22.88C77.2963 21.4933 76.9763 20.4587 76.3363 19.776C75.6963 19.0933 74.8216 18.752 73.7123 18.752C72.7309 18.752 71.9096 19.104 71.2483 19.808C70.5869 20.4907 70.2563 21.5147 70.2563 22.88V32H65.9363V15.36ZM84.35 9.6H91.902C94.462 9.6 96.446 10.208 97.854 11.424C99.2833 12.6187 99.998 14.368 99.998 16.672C99.998 18.9973 99.2833 20.7787 97.854 22.016C96.446 23.2533 94.462 23.872 91.902 23.872H88.83V32H84.35V9.6ZM91.646 19.84C94.1847 19.84 95.454 18.7947 95.454 16.704C95.454 15.6587 95.1233 14.88 94.462 14.368C93.822 13.856 92.8833 13.6 91.646 13.6H88.83V19.84H91.646ZM107.769 32.384C106.574 32.384 105.497 32.1067 104.536 31.552C103.577 30.976 102.819 30.176 102.265 29.152C101.71 28.1067 101.433 26.9013 101.433 25.536V15.36H105.753V24.48C105.753 27.232 106.862 28.608 109.081 28.608C110.062 28.608 110.883 28.2667 111.545 27.584C112.206 26.88 112.537 25.8453 112.537 24.48V15.36H116.857V32H112.665V29.504C112.259 30.4853 111.662 31.2107 110.873 31.68C110.083 32.1493 109.049 32.384 107.769 32.384ZM119.405 8.64H123.725V32H119.405V8.64ZM131.976 32.416C129.181 32.416 126.877 31.4453 125.064 29.504L127.976 26.848C129.192 28.2133 130.493 28.896 131.88 28.896C132.605 28.896 133.171 28.736 133.576 28.416C133.981 28.096 134.184 27.68 134.184 27.168C134.184 26.6987 133.981 26.336 133.576 26.08C133.192 25.8027 132.381 25.5147 131.144 25.216C129.117 24.7253 127.752 24.0533 127.048 23.2C126.365 22.3467 126.024 21.2907 126.024 20.032C126.024 18.5387 126.579 17.3227 127.688 16.384C128.797 15.424 130.312 14.944 132.232 14.944C133.619 14.944 134.781 15.1573 135.72 15.584C136.68 16.0107 137.576 16.7573 138.408 17.824L135.272 20.224C134.525 19.0293 133.544 18.432 132.328 18.432C131.709 18.432 131.208 18.56 130.824 18.816C130.44 19.0507 130.248 19.4133 130.248 19.904C130.248 20.2453 130.387 20.544 130.664 20.8C130.963 21.0347 131.571 21.2693 132.488 21.504C134.771 22.1013 136.328 22.8373 137.16 23.712C138.013 24.5867 138.44 25.696 138.44 27.04C138.44 28.0427 138.152 28.96 137.576 29.792C137.021 30.6027 136.253 31.2427 135.272 31.712C134.291 32.1813 133.192 32.416 131.976 32.416ZM148.092 32.416C146.406 32.416 144.913 32.032 143.612 31.264C142.31 30.4747 141.297 29.4187 140.572 28.096C139.846 26.7733 139.484 25.312 139.484 23.712C139.484 22.1333 139.857 20.672 140.604 19.328C141.35 17.984 142.374 16.9173 143.676 16.128C144.998 15.3387 146.47 14.944 148.092 14.944C149.713 14.944 151.164 15.3387 152.444 16.128C153.745 16.9173 154.748 17.984 155.452 19.328C156.177 20.6507 156.54 22.112 156.54 23.712C156.54 24.2453 156.497 24.7573 156.412 25.248H143.964C144.22 26.2507 144.7 27.0613 145.404 27.68C146.129 28.2773 147.025 28.576 148.092 28.576C148.988 28.576 149.788 28.3733 150.492 27.968C151.196 27.5413 151.75 26.9973 152.156 26.336L155.516 28.864C154.833 29.9307 153.83 30.7947 152.508 31.456C151.185 32.096 149.713 32.416 148.092 32.416ZM152.188 22.016C151.932 21.056 151.43 20.256 150.684 19.616C149.937 18.976 149.052 18.656 148.028 18.656C147.025 18.656 146.15 18.9653 145.404 19.584C144.678 20.2027 144.198 21.0133 143.964 22.016H152.188Z" fill="#fff"/>
</svg>
