<svg width="252" height="58" viewBox="0 0 252 58" fill="none" xmlns="http://www.w3.org/2000/svg">
<g filter="url(#filter0_d_880_721)">
<rect width="244" height="50" transform="translate(4)" fill="white"/>
<circle cx="29" cy="25" r="15" fill="#0079FF"/>
<path d="M17.4779 27V23.53H17.9479V27H17.4779ZM20.3919 27V25.615C20.3919 25.435 20.3353 25.2867 20.2219 25.17C20.1086 25.0533 19.9619 24.995 19.7819 24.995C19.6619 24.995 19.5553 25.0217 19.4619 25.075C19.3686 25.1283 19.2953 25.2017 19.2419 25.295C19.1886 25.3883 19.1619 25.495 19.1619 25.615L18.9769 25.51C18.9769 25.33 19.0169 25.17 19.0969 25.03C19.1769 24.89 19.2886 24.78 19.4319 24.7C19.5753 24.6167 19.7369 24.575 19.9169 24.575C20.0969 24.575 20.2553 24.62 20.3919 24.71C20.5319 24.8 20.6419 24.9183 20.7219 25.065C20.8019 25.2083 20.8419 25.3617 20.8419 25.525V27H20.3919ZM18.7119 27V24.625H19.1619V27H18.7119ZM21.8119 27V23.63H22.2619V27H21.8119ZM21.2269 25.035V24.625H22.8469V25.035H21.2269ZM24.3395 27.05C24.1028 27.05 23.8895 26.9967 23.6995 26.89C23.5095 26.78 23.3595 26.6317 23.2495 26.445C23.1395 26.2583 23.0845 26.0467 23.0845 25.81C23.0845 25.5767 23.1378 25.3667 23.2445 25.18C23.3545 24.9933 23.5011 24.8467 23.6845 24.74C23.8711 24.63 24.0795 24.575 24.3095 24.575C24.5295 24.575 24.7228 24.625 24.8895 24.725C25.0595 24.825 25.1911 24.9633 25.2845 25.14C25.3811 25.3167 25.4295 25.5167 25.4295 25.74C25.4295 25.7733 25.4278 25.81 25.4245 25.85C25.4211 25.8867 25.4145 25.93 25.4045 25.98H23.3995V25.605H25.1645L24.9995 25.75C24.9995 25.59 24.9711 25.455 24.9145 25.345C24.8578 25.2317 24.7778 25.145 24.6745 25.085C24.5711 25.0217 24.4461 24.99 24.2995 24.99C24.1461 24.99 24.0111 25.0233 23.8945 25.09C23.7778 25.1567 23.6878 25.25 23.6245 25.37C23.5611 25.49 23.5295 25.6317 23.5295 25.795C23.5295 25.9617 23.5628 26.1083 23.6295 26.235C23.6961 26.3583 23.7911 26.455 23.9145 26.525C24.0378 26.5917 24.1795 26.625 24.3395 26.625C24.4728 26.625 24.5945 26.6017 24.7045 26.555C24.8178 26.5083 24.9145 26.4383 24.9945 26.345L25.2845 26.64C25.1711 26.7733 25.0311 26.875 24.8645 26.945C24.7011 27.015 24.5261 27.05 24.3395 27.05ZM25.9451 27V24.625H26.3951V27H25.9451ZM26.3951 25.645L26.2251 25.57C26.2251 25.2667 26.2951 25.025 26.4351 24.845C26.5751 24.665 26.7768 24.575 27.0401 24.575C27.1601 24.575 27.2685 24.5967 27.3651 24.64C27.4618 24.68 27.5518 24.7483 27.6351 24.845L27.3401 25.15C27.2901 25.0967 27.2351 25.0583 27.1751 25.035C27.1151 25.0117 27.0451 25 26.9651 25C26.7985 25 26.6618 25.0533 26.5551 25.16C26.4485 25.2667 26.3951 25.4283 26.3951 25.645ZM29.6667 27V25.615C29.6667 25.435 29.6101 25.2867 29.4967 25.17C29.3834 25.0533 29.2367 24.995 29.0567 24.995C28.9367 24.995 28.8301 25.0217 28.7367 25.075C28.6434 25.1283 28.5701 25.2017 28.5167 25.295C28.4634 25.3883 28.4367 25.495 28.4367 25.615L28.2517 25.51C28.2517 25.33 28.2917 25.17 28.3717 25.03C28.4517 24.89 28.5634 24.78 28.7067 24.7C28.8501 24.6167 29.0117 24.575 29.1917 24.575C29.3717 24.575 29.5301 24.62 29.6667 24.71C29.8067 24.8 29.9167 24.9183 29.9967 25.065C30.0767 25.2083 30.1167 25.3617 30.1167 25.525V27H29.6667ZM27.9867 27V24.625H28.4367V27H27.9867ZM32.001 27.05C31.821 27.05 31.6577 27.0133 31.511 26.94C31.3677 26.8633 31.2527 26.7583 31.166 26.625C31.0793 26.4917 31.031 26.34 31.021 26.17V25.455C31.031 25.2817 31.0793 25.13 31.166 25C31.256 24.8667 31.3727 24.7633 31.516 24.69C31.6627 24.6133 31.8243 24.575 32.001 24.575C32.2177 24.575 32.4127 24.63 32.586 24.74C32.7627 24.85 32.901 24.9983 33.001 25.185C33.101 25.3717 33.151 25.5817 33.151 25.815C33.151 26.0483 33.101 26.2583 33.001 26.445C32.901 26.6317 32.7627 26.78 32.586 26.89C32.4127 26.9967 32.2177 27.05 32.001 27.05ZM31.926 26.625C32.076 26.625 32.2077 26.59 32.321 26.52C32.4343 26.45 32.5243 26.355 32.591 26.235C32.6577 26.1117 32.691 25.97 32.691 25.81C32.691 25.6533 32.6577 25.5133 32.591 25.39C32.5243 25.2667 32.4343 25.1717 32.321 25.105C32.2077 25.035 32.0777 25 31.931 25C31.781 25 31.6493 25.035 31.536 25.105C31.4227 25.1717 31.3343 25.2667 31.271 25.39C31.2077 25.5133 31.176 25.655 31.176 25.815C31.176 25.9717 31.206 26.1117 31.266 26.235C31.3293 26.355 31.4177 26.45 31.531 26.52C31.6477 26.59 31.7793 26.625 31.926 26.625ZM30.751 27.995V24.625H31.201V25.25L31.116 25.825L31.201 26.405V27.995H30.751ZM34.6412 27.05C34.4478 27.05 34.2728 27.0067 34.1162 26.92C33.9628 26.83 33.8428 26.7067 33.7562 26.55C33.6695 26.3933 33.6262 26.2117 33.6262 26.005V24.625H34.0762V25.985C34.0762 26.115 34.0978 26.2283 34.1412 26.325C34.1878 26.4183 34.2545 26.49 34.3412 26.54C34.4278 26.59 34.5295 26.615 34.6462 26.615C34.8228 26.615 34.9612 26.56 35.0612 26.45C35.1612 26.3367 35.2112 26.1817 35.2112 25.985V24.625H35.6612V26.005C35.6612 26.2117 35.6178 26.3933 35.5312 26.55C35.4445 26.7067 35.3245 26.83 35.1712 26.92C35.0212 27.0067 34.8445 27.05 34.6412 27.05ZM36.2893 27V23.43H36.7393V27H36.2893ZM38.1777 27.05C38.0443 27.05 37.9177 27.0333 37.7977 27C37.681 26.9633 37.5727 26.9133 37.4727 26.85C37.3727 26.7833 37.286 26.705 37.2127 26.615L37.5027 26.325C37.5893 26.4317 37.6893 26.5117 37.8027 26.565C37.916 26.615 38.0427 26.64 38.1827 26.64C38.3227 26.64 38.431 26.6167 38.5077 26.57C38.5843 26.52 38.6227 26.4517 38.6227 26.365C38.6227 26.2783 38.591 26.2117 38.5277 26.165C38.4677 26.115 38.3893 26.075 38.2927 26.045C38.196 26.0117 38.0927 25.98 37.9827 25.95C37.876 25.9167 37.7743 25.875 37.6777 25.825C37.581 25.775 37.501 25.7067 37.4377 25.62C37.3777 25.5333 37.3477 25.4183 37.3477 25.275C37.3477 25.1317 37.3827 25.0083 37.4527 24.905C37.5227 24.7983 37.6193 24.7167 37.7427 24.66C37.8693 24.6033 38.021 24.575 38.1977 24.575C38.3843 24.575 38.5493 24.6083 38.6927 24.675C38.8393 24.7383 38.9593 24.835 39.0527 24.965L38.7627 25.255C38.696 25.1683 38.6127 25.1017 38.5127 25.055C38.416 25.0083 38.306 24.985 38.1827 24.985C38.0527 24.985 37.9527 25.0083 37.8827 25.055C37.816 25.0983 37.7827 25.16 37.7827 25.24C37.7827 25.32 37.8127 25.3817 37.8727 25.425C37.9327 25.4683 38.011 25.505 38.1077 25.535C38.2077 25.565 38.311 25.5967 38.4177 25.63C38.5243 25.66 38.626 25.7017 38.7227 25.755C38.8193 25.8083 38.8977 25.88 38.9577 25.97C39.021 26.06 39.0527 26.1783 39.0527 26.325C39.0527 26.5483 38.9727 26.725 38.8127 26.855C38.656 26.985 38.4443 27.05 38.1777 27.05ZM40.6815 27.05C40.4448 27.05 40.2315 26.9967 40.0415 26.89C39.8515 26.78 39.7015 26.6317 39.5915 26.445C39.4815 26.2583 39.4265 26.0467 39.4265 25.81C39.4265 25.5767 39.4798 25.3667 39.5865 25.18C39.6965 24.9933 39.8431 24.8467 40.0265 24.74C40.2131 24.63 40.4215 24.575 40.6515 24.575C40.8715 24.575 41.0648 24.625 41.2315 24.725C41.4015 24.825 41.5331 24.9633 41.6265 25.14C41.7231 25.3167 41.7715 25.5167 41.7715 25.74C41.7715 25.7733 41.7698 25.81 41.7665 25.85C41.7631 25.8867 41.7565 25.93 41.7465 25.98H39.7415V25.605H41.5065L41.3415 25.75C41.3415 25.59 41.3131 25.455 41.2565 25.345C41.1998 25.2317 41.1198 25.145 41.0165 25.085C40.9131 25.0217 40.7881 24.99 40.6415 24.99C40.4881 24.99 40.3531 25.0233 40.2365 25.09C40.1198 25.1567 40.0298 25.25 39.9665 25.37C39.9031 25.49 39.8715 25.6317 39.8715 25.795C39.8715 25.9617 39.9048 26.1083 39.9715 26.235C40.0381 26.3583 40.1331 26.455 40.2565 26.525C40.3798 26.5917 40.5215 26.625 40.6815 26.625C40.8148 26.625 40.9365 26.6017 41.0465 26.555C41.1598 26.5083 41.2565 26.4383 41.3365 26.345L41.6265 26.64C41.5131 26.7733 41.3731 26.875 41.2065 26.945C41.0431 27.015 40.8681 27.05 40.6815 27.05Z" fill="white"/>
<path d="M57.776 22.12C57.184 22.12 56.632 22.012 56.12 21.796C55.608 21.572 55.16 21.264 54.776 20.872C54.392 20.472 54.092 20.012 53.876 19.492C53.668 18.972 53.564 18.416 53.564 17.824C53.564 17.224 53.668 16.668 53.876 16.156C54.092 15.636 54.388 15.18 54.764 14.788C55.148 14.396 55.592 14.092 56.096 13.876C56.608 13.66 57.16 13.552 57.752 13.552C58.344 13.552 58.892 13.66 59.396 13.876C59.908 14.092 60.356 14.396 60.74 14.788C61.124 15.18 61.424 15.636 61.64 16.156C61.856 16.676 61.964 17.236 61.964 17.836C61.964 18.428 61.856 18.984 61.64 19.504C61.424 20.024 61.124 20.48 60.74 20.872C60.364 21.264 59.92 21.572 59.408 21.796C58.904 22.012 58.36 22.12 57.776 22.12ZM57.752 21.04C58.352 21.04 58.876 20.904 59.324 20.632C59.78 20.352 60.14 19.972 60.404 19.492C60.668 19.004 60.8 18.448 60.8 17.824C60.8 17.36 60.724 16.936 60.572 16.552C60.42 16.16 60.208 15.82 59.936 15.532C59.664 15.244 59.344 15.024 58.976 14.872C58.608 14.712 58.2 14.632 57.752 14.632C57.16 14.632 56.636 14.768 56.18 15.04C55.732 15.312 55.376 15.688 55.112 16.168C54.856 16.648 54.728 17.2 54.728 17.824C54.728 18.288 54.8 18.72 54.944 19.12C55.096 19.512 55.304 19.852 55.568 20.14C55.84 20.42 56.16 20.64 56.528 20.8C56.904 20.96 57.312 21.04 57.752 21.04ZM65.3053 22L62.6893 16.3H63.8893L65.9893 21.112H65.2933L67.4053 16.3H68.5573L65.9413 22H65.3053ZM71.9256 22.12C71.3576 22.12 70.8456 21.992 70.3896 21.736C69.9336 21.472 69.5736 21.116 69.3096 20.668C69.0456 20.22 68.9136 19.712 68.9136 19.144C68.9136 18.584 69.0416 18.08 69.2976 17.632C69.5616 17.184 69.9136 16.832 70.3536 16.576C70.8016 16.312 71.3016 16.18 71.8536 16.18C72.3816 16.18 72.8456 16.3 73.2456 16.54C73.6536 16.78 73.9696 17.112 74.1936 17.536C74.4256 17.96 74.5416 18.44 74.5416 18.976C74.5416 19.056 74.5376 19.144 74.5296 19.24C74.5216 19.328 74.5056 19.432 74.4816 19.552H69.6696V18.652H73.9056L73.5096 19C73.5096 18.616 73.4416 18.292 73.3056 18.028C73.1696 17.756 72.9776 17.548 72.7296 17.404C72.4816 17.252 72.1816 17.176 71.8296 17.176C71.4616 17.176 71.1376 17.256 70.8576 17.416C70.5776 17.576 70.3616 17.8 70.2096 18.088C70.0576 18.376 69.9816 18.716 69.9816 19.108C69.9816 19.508 70.0616 19.86 70.2216 20.164C70.3816 20.46 70.6096 20.692 70.9056 20.86C71.2016 21.02 71.5416 21.1 71.9256 21.1C72.2456 21.1 72.5376 21.044 72.8016 20.932C73.0736 20.82 73.3056 20.652 73.4976 20.428L74.1936 21.136C73.9216 21.456 73.5856 21.7 73.1856 21.868C72.7936 22.036 72.3736 22.12 71.9256 22.12ZM75.7492 22V16.3H76.8292V22H75.7492ZM76.8292 18.748L76.4212 18.568C76.4212 17.84 76.5892 17.26 76.9252 16.828C77.2612 16.396 77.7452 16.18 78.3772 16.18C78.6652 16.18 78.9252 16.232 79.1572 16.336C79.3892 16.432 79.6052 16.596 79.8052 16.828L79.0972 17.56C78.9772 17.432 78.8452 17.34 78.7012 17.284C78.5572 17.228 78.3892 17.2 78.1972 17.2C77.7972 17.2 77.4692 17.328 77.2132 17.584C76.9572 17.84 76.8292 18.228 76.8292 18.748ZM84.6166 22V13.672H85.7326V22H84.6166ZM82.9126 14.68V13.672H85.6126V14.68H82.9126ZM90.6908 22.12C90.0668 22.12 89.4948 21.944 88.9748 21.592C88.4628 21.24 88.0548 20.744 87.7508 20.104C87.4468 19.456 87.2948 18.696 87.2948 17.824C87.2948 16.952 87.4428 16.196 87.7388 15.556C88.0428 14.916 88.4508 14.424 88.9628 14.08C89.4748 13.728 90.0388 13.552 90.6548 13.552C91.2868 13.552 91.8588 13.728 92.3708 14.08C92.8828 14.424 93.2868 14.916 93.5828 15.556C93.8868 16.196 94.0388 16.956 94.0388 17.836C94.0388 18.708 93.8868 19.468 93.5828 20.116C93.2868 20.756 92.8828 21.252 92.3708 21.604C91.8668 21.948 91.3068 22.12 90.6908 22.12ZM90.6668 21.052C91.1068 21.052 91.4908 20.932 91.8188 20.692C92.1548 20.444 92.4188 20.08 92.6108 19.6C92.8028 19.12 92.8988 18.528 92.8988 17.824C92.8988 17.12 92.8028 16.532 92.6108 16.06C92.4188 15.58 92.1548 15.22 91.8188 14.98C91.4828 14.732 91.0948 14.608 90.6548 14.608C90.2228 14.608 89.8388 14.732 89.5028 14.98C89.1668 15.22 88.9028 15.58 88.7108 16.06C88.5268 16.532 88.4348 17.12 88.4348 17.824C88.4348 18.528 88.5268 19.12 88.7108 19.6C88.9028 20.08 89.1668 20.444 89.5028 20.692C89.8388 20.932 90.2268 21.052 90.6668 21.052ZM98.5958 22.12C97.9718 22.12 97.3998 21.944 96.8798 21.592C96.3678 21.24 95.9598 20.744 95.6558 20.104C95.3518 19.456 95.1998 18.696 95.1998 17.824C95.1998 16.952 95.3478 16.196 95.6438 15.556C95.9478 14.916 96.3558 14.424 96.8678 14.08C97.3798 13.728 97.9438 13.552 98.5598 13.552C99.1918 13.552 99.7638 13.728 100.276 14.08C100.788 14.424 101.192 14.916 101.488 15.556C101.792 16.196 101.944 16.956 101.944 17.836C101.944 18.708 101.792 19.468 101.488 20.116C101.192 20.756 100.788 21.252 100.276 21.604C99.7718 21.948 99.2118 22.12 98.5958 22.12ZM98.5718 21.052C99.0118 21.052 99.3958 20.932 99.7238 20.692C100.06 20.444 100.324 20.08 100.516 19.6C100.708 19.12 100.804 18.528 100.804 17.824C100.804 17.12 100.708 16.532 100.516 16.06C100.324 15.58 100.06 15.22 99.7238 14.98C99.3878 14.732 98.9998 14.608 98.5598 14.608C98.1278 14.608 97.7438 14.732 97.4078 14.98C97.0718 15.22 96.8078 15.58 96.6158 16.06C96.4318 16.532 96.3398 17.12 96.3398 17.824C96.3398 18.528 96.4318 19.12 96.6158 19.6C96.8078 20.08 97.0718 20.444 97.4078 20.692C97.7438 20.932 98.1318 21.052 98.5718 21.052ZM107.671 22.12C107.351 22.12 107.047 22.08 106.759 22C106.479 21.912 106.219 21.792 105.979 21.64C105.739 21.48 105.531 21.292 105.355 21.076L106.051 20.38C106.259 20.636 106.499 20.828 106.771 20.956C107.043 21.076 107.347 21.136 107.683 21.136C108.019 21.136 108.279 21.08 108.463 20.968C108.647 20.848 108.739 20.684 108.739 20.476C108.739 20.268 108.663 20.108 108.511 19.996C108.367 19.876 108.179 19.78 107.947 19.708C107.715 19.628 107.467 19.552 107.203 19.48C106.947 19.4 106.703 19.3 106.471 19.18C106.239 19.06 106.047 18.896 105.895 18.688C105.751 18.48 105.679 18.204 105.679 17.86C105.679 17.516 105.763 17.22 105.931 16.972C106.099 16.716 106.331 16.52 106.627 16.384C106.931 16.248 107.295 16.18 107.719 16.18C108.167 16.18 108.563 16.26 108.907 16.42C109.259 16.572 109.547 16.804 109.771 17.116L109.075 17.812C108.915 17.604 108.715 17.444 108.475 17.332C108.243 17.22 107.979 17.164 107.683 17.164C107.371 17.164 107.131 17.22 106.963 17.332C106.803 17.436 106.723 17.584 106.723 17.776C106.723 17.968 106.795 18.116 106.939 18.22C107.083 18.324 107.271 18.412 107.503 18.484C107.743 18.556 107.991 18.632 108.247 18.712C108.503 18.784 108.747 18.884 108.979 19.012C109.211 19.14 109.399 19.312 109.543 19.528C109.695 19.744 109.771 20.028 109.771 20.38C109.771 20.916 109.579 21.34 109.195 21.652C108.819 21.964 108.311 22.12 107.671 22.12ZM111.886 22V13.912H112.966V22H111.886ZM110.482 17.284V16.3H114.37V17.284H110.482ZM117.75 22.12C117.286 22.12 116.866 22.016 116.49 21.808C116.122 21.592 115.834 21.296 115.626 20.92C115.418 20.544 115.314 20.108 115.314 19.612V16.3H116.394V19.564C116.394 19.876 116.446 20.148 116.55 20.38C116.662 20.604 116.822 20.776 117.03 20.896C117.238 21.016 117.482 21.076 117.762 21.076C118.186 21.076 118.518 20.944 118.758 20.68C118.998 20.408 119.118 20.036 119.118 19.564V16.3H120.198V19.612C120.198 20.108 120.094 20.544 119.886 20.92C119.678 21.296 119.39 21.592 119.022 21.808C118.662 22.016 118.238 22.12 117.75 22.12ZM124.087 22.12C123.559 22.12 123.087 21.992 122.671 21.736C122.255 21.472 121.923 21.116 121.675 20.668C121.435 20.22 121.315 19.716 121.315 19.156C121.315 18.596 121.435 18.092 121.675 17.644C121.923 17.196 122.255 16.84 122.671 16.576C123.087 16.312 123.559 16.18 124.087 16.18C124.511 16.18 124.895 16.272 125.239 16.456C125.583 16.632 125.859 16.88 126.067 17.2C126.283 17.512 126.403 17.876 126.427 18.292V20.008C126.403 20.416 126.287 20.78 126.079 21.1C125.871 21.42 125.595 21.672 125.251 21.856C124.907 22.032 124.519 22.12 124.087 22.12ZM124.267 21.1C124.627 21.1 124.939 21.016 125.203 20.848C125.475 20.68 125.687 20.452 125.839 20.164C125.991 19.868 126.067 19.532 126.067 19.156C126.067 18.764 125.987 18.424 125.827 18.136C125.675 17.848 125.463 17.62 125.191 17.452C124.927 17.284 124.615 17.2 124.255 17.2C123.895 17.2 123.579 17.284 123.307 17.452C123.035 17.62 122.819 17.852 122.659 18.148C122.507 18.436 122.431 18.768 122.431 19.144C122.431 19.528 122.507 19.868 122.659 20.164C122.819 20.452 123.035 20.68 123.307 20.848C123.587 21.016 123.907 21.1 124.267 21.1ZM127.087 22H125.995V20.464L126.199 19.072L125.995 17.692V13.432H127.087V22ZM131.33 22.12C130.762 22.12 130.25 21.992 129.794 21.736C129.338 21.472 128.978 21.116 128.714 20.668C128.45 20.22 128.318 19.712 128.318 19.144C128.318 18.584 128.446 18.08 128.702 17.632C128.966 17.184 129.318 16.832 129.758 16.576C130.206 16.312 130.706 16.18 131.258 16.18C131.786 16.18 132.25 16.3 132.65 16.54C133.058 16.78 133.374 17.112 133.598 17.536C133.83 17.96 133.946 18.44 133.946 18.976C133.946 19.056 133.942 19.144 133.934 19.24C133.926 19.328 133.91 19.432 133.886 19.552H129.074V18.652H133.31L132.914 19C132.914 18.616 132.846 18.292 132.71 18.028C132.574 17.756 132.382 17.548 132.134 17.404C131.886 17.252 131.586 17.176 131.234 17.176C130.866 17.176 130.542 17.256 130.262 17.416C129.982 17.576 129.766 17.8 129.614 18.088C129.462 18.376 129.386 18.716 129.386 19.108C129.386 19.508 129.466 19.86 129.626 20.164C129.786 20.46 130.014 20.692 130.31 20.86C130.606 21.02 130.946 21.1 131.33 21.1C131.65 21.1 131.942 21.044 132.206 20.932C132.478 20.82 132.71 20.652 132.902 20.428L133.598 21.136C133.326 21.456 132.99 21.7 132.59 21.868C132.198 22.036 131.778 22.12 131.33 22.12ZM139.185 22V18.676C139.185 18.244 139.049 17.888 138.777 17.608C138.505 17.328 138.153 17.188 137.721 17.188C137.433 17.188 137.177 17.252 136.953 17.38C136.729 17.508 136.553 17.684 136.425 17.908C136.297 18.132 136.233 18.388 136.233 18.676L135.789 18.424C135.789 17.992 135.885 17.608 136.077 17.272C136.269 16.936 136.537 16.672 136.881 16.48C137.225 16.28 137.613 16.18 138.045 16.18C138.477 16.18 138.857 16.288 139.185 16.504C139.521 16.72 139.785 17.004 139.977 17.356C140.169 17.7 140.265 18.068 140.265 18.46V22H139.185ZM135.153 22V16.3H136.233V22H135.153ZM142.563 22V13.912H143.643V22H142.563ZM141.159 17.284V16.3H145.047V17.284H141.159ZM147.83 22.12C147.51 22.12 147.206 22.08 146.918 22C146.638 21.912 146.378 21.792 146.138 21.64C145.898 21.48 145.69 21.292 145.514 21.076L146.21 20.38C146.418 20.636 146.658 20.828 146.93 20.956C147.202 21.076 147.506 21.136 147.842 21.136C148.178 21.136 148.438 21.08 148.622 20.968C148.806 20.848 148.898 20.684 148.898 20.476C148.898 20.268 148.822 20.108 148.67 19.996C148.526 19.876 148.338 19.78 148.106 19.708C147.874 19.628 147.626 19.552 147.362 19.48C147.106 19.4 146.862 19.3 146.63 19.18C146.398 19.06 146.206 18.896 146.054 18.688C145.91 18.48 145.838 18.204 145.838 17.86C145.838 17.516 145.922 17.22 146.09 16.972C146.258 16.716 146.49 16.52 146.786 16.384C147.09 16.248 147.454 16.18 147.878 16.18C148.326 16.18 148.722 16.26 149.066 16.42C149.418 16.572 149.706 16.804 149.93 17.116L149.234 17.812C149.074 17.604 148.874 17.444 148.634 17.332C148.402 17.22 148.138 17.164 147.842 17.164C147.53 17.164 147.29 17.22 147.122 17.332C146.962 17.436 146.882 17.584 146.882 17.776C146.882 17.968 146.954 18.116 147.098 18.22C147.242 18.324 147.43 18.412 147.662 18.484C147.902 18.556 148.15 18.632 148.406 18.712C148.662 18.784 148.906 18.884 149.138 19.012C149.37 19.14 149.558 19.312 149.702 19.528C149.854 19.744 149.93 20.028 149.93 20.38C149.93 20.916 149.738 21.34 149.354 21.652C148.978 21.964 148.47 22.12 147.83 22.12ZM157.727 22V18.676C157.727 18.244 157.591 17.888 157.319 17.608C157.047 17.328 156.695 17.188 156.263 17.188C155.975 17.188 155.719 17.252 155.495 17.38C155.271 17.508 155.095 17.684 154.967 17.908C154.839 18.132 154.775 18.388 154.775 18.676L154.331 18.424C154.331 17.992 154.427 17.608 154.619 17.272C154.811 16.936 155.079 16.672 155.423 16.48C155.767 16.28 156.155 16.18 156.587 16.18C157.019 16.18 157.399 16.276 157.727 16.468C158.063 16.66 158.327 16.928 158.519 17.272C158.711 17.616 158.807 18.012 158.807 18.46V22H157.727ZM153.695 22V13.432H154.775V22H153.695ZM162.723 22.12C162.203 22.12 161.731 21.992 161.307 21.736C160.883 21.472 160.547 21.116 160.299 20.668C160.059 20.22 159.939 19.716 159.939 19.156C159.939 18.596 160.059 18.092 160.299 17.644C160.547 17.196 160.879 16.84 161.295 16.576C161.719 16.312 162.195 16.18 162.723 16.18C163.155 16.18 163.539 16.272 163.875 16.456C164.219 16.632 164.495 16.88 164.704 17.2C164.911 17.512 165.027 17.876 165.051 18.292V20.008C165.027 20.416 164.911 20.78 164.704 21.1C164.503 21.42 164.231 21.672 163.887 21.856C163.551 22.032 163.163 22.12 162.723 22.12ZM162.903 21.1C163.439 21.1 163.872 20.92 164.2 20.56C164.527 20.192 164.691 19.724 164.691 19.156C164.691 18.764 164.615 18.424 164.463 18.136C164.319 17.84 164.111 17.612 163.84 17.452C163.567 17.284 163.251 17.2 162.891 17.2C162.531 17.2 162.211 17.284 161.931 17.452C161.659 17.62 161.443 17.852 161.283 18.148C161.131 18.436 161.055 18.768 161.055 19.144C161.055 19.528 161.131 19.868 161.283 20.164C161.443 20.452 161.663 20.68 161.943 20.848C162.223 21.016 162.543 21.1 162.903 21.1ZM164.62 22V20.464L164.823 19.072L164.62 17.692V16.3H165.711V22H164.62ZM169.27 22L166.654 16.3H167.854L169.954 21.112H169.258L171.37 16.3H172.522L169.906 22H169.27ZM175.89 22.12C175.322 22.12 174.81 21.992 174.354 21.736C173.898 21.472 173.538 21.116 173.274 20.668C173.01 20.22 172.878 19.712 172.878 19.144C172.878 18.584 173.006 18.08 173.262 17.632C173.526 17.184 173.878 16.832 174.318 16.576C174.766 16.312 175.266 16.18 175.818 16.18C176.346 16.18 176.81 16.3 177.21 16.54C177.618 16.78 177.934 17.112 178.158 17.536C178.39 17.96 178.506 18.44 178.506 18.976C178.506 19.056 178.502 19.144 178.494 19.24C178.486 19.328 178.47 19.432 178.446 19.552H173.634V18.652H177.87L177.474 19C177.474 18.616 177.406 18.292 177.27 18.028C177.134 17.756 176.942 17.548 176.694 17.404C176.446 17.252 176.146 17.176 175.794 17.176C175.426 17.176 175.102 17.256 174.822 17.416C174.542 17.576 174.326 17.8 174.174 18.088C174.022 18.376 173.946 18.716 173.946 19.108C173.946 19.508 174.026 19.86 174.186 20.164C174.346 20.46 174.574 20.692 174.87 20.86C175.166 21.02 175.506 21.1 175.89 21.1C176.21 21.1 176.502 21.044 176.766 20.932C177.038 20.82 177.27 20.652 177.462 20.428L178.158 21.136C177.886 21.456 177.55 21.7 177.15 21.868C176.758 22.036 176.338 22.12 175.89 22.12ZM185.24 22.12C184.808 22.12 184.416 22.032 184.064 21.856C183.72 21.672 183.444 21.42 183.236 21.1C183.028 20.78 182.912 20.416 182.888 20.008V18.292C182.912 17.876 183.028 17.512 183.236 17.2C183.452 16.88 183.732 16.632 184.076 16.456C184.428 16.272 184.816 16.18 185.24 16.18C185.76 16.18 186.228 16.312 186.644 16.576C187.068 16.84 187.4 17.196 187.64 17.644C187.88 18.092 188 18.596 188 19.156C188 19.716 187.88 20.22 187.64 20.668C187.4 21.116 187.068 21.472 186.644 21.736C186.228 21.992 185.76 22.12 185.24 22.12ZM185.06 21.1C185.42 21.1 185.736 21.016 186.008 20.848C186.28 20.68 186.496 20.452 186.656 20.164C186.816 19.868 186.896 19.528 186.896 19.144C186.896 18.768 186.816 18.432 186.656 18.136C186.496 17.84 186.28 17.612 186.008 17.452C185.736 17.284 185.424 17.2 185.072 17.2C184.712 17.2 184.396 17.284 184.124 17.452C183.852 17.612 183.64 17.84 183.488 18.136C183.336 18.432 183.26 18.772 183.26 19.156C183.26 19.532 183.332 19.868 183.476 20.164C183.628 20.452 183.84 20.68 184.112 20.848C184.392 21.016 184.708 21.1 185.06 21.1ZM182.24 22V13.432H183.32V17.692L183.116 19.072L183.32 20.464V22H182.24ZM191.894 22.12C191.326 22.12 190.814 21.992 190.358 21.736C189.902 21.472 189.542 21.116 189.278 20.668C189.014 20.22 188.882 19.712 188.882 19.144C188.882 18.584 189.01 18.08 189.266 17.632C189.53 17.184 189.882 16.832 190.322 16.576C190.77 16.312 191.27 16.18 191.822 16.18C192.35 16.18 192.814 16.3 193.214 16.54C193.622 16.78 193.938 17.112 194.162 17.536C194.394 17.96 194.51 18.44 194.51 18.976C194.51 19.056 194.506 19.144 194.498 19.24C194.49 19.328 194.474 19.432 194.45 19.552H189.638V18.652H193.874L193.478 19C193.478 18.616 193.41 18.292 193.274 18.028C193.138 17.756 192.946 17.548 192.698 17.404C192.45 17.252 192.15 17.176 191.798 17.176C191.43 17.176 191.106 17.256 190.826 17.416C190.546 17.576 190.33 17.8 190.178 18.088C190.026 18.376 189.95 18.716 189.95 19.108C189.95 19.508 190.03 19.86 190.19 20.164C190.35 20.46 190.578 20.692 190.874 20.86C191.17 21.02 191.51 21.1 191.894 21.1C192.214 21.1 192.506 21.044 192.77 20.932C193.042 20.82 193.274 20.652 193.466 20.428L194.162 21.136C193.89 21.456 193.554 21.7 193.154 21.868C192.762 22.036 192.342 22.12 191.894 22.12ZM199.75 22V18.676C199.75 18.244 199.614 17.888 199.342 17.608C199.07 17.328 198.718 17.188 198.286 17.188C197.998 17.188 197.742 17.252 197.518 17.38C197.294 17.508 197.118 17.684 196.99 17.908C196.862 18.132 196.798 18.388 196.798 18.676L196.354 18.424C196.354 17.992 196.45 17.608 196.642 17.272C196.834 16.936 197.102 16.672 197.446 16.48C197.79 16.28 198.178 16.18 198.61 16.18C199.042 16.18 199.422 16.288 199.75 16.504C200.086 16.72 200.35 17.004 200.542 17.356C200.734 17.7 200.83 18.068 200.83 18.46V22H199.75ZM195.718 22V16.3H196.798V22H195.718ZM204.962 22.12C204.394 22.12 203.882 21.992 203.426 21.736C202.97 21.472 202.61 21.116 202.346 20.668C202.082 20.22 201.95 19.712 201.95 19.144C201.95 18.584 202.078 18.08 202.334 17.632C202.598 17.184 202.95 16.832 203.39 16.576C203.838 16.312 204.338 16.18 204.89 16.18C205.418 16.18 205.882 16.3 206.282 16.54C206.69 16.78 207.006 17.112 207.23 17.536C207.462 17.96 207.578 18.44 207.578 18.976C207.578 19.056 207.574 19.144 207.566 19.24C207.558 19.328 207.542 19.432 207.518 19.552H202.706V18.652H206.942L206.546 19C206.546 18.616 206.478 18.292 206.342 18.028C206.206 17.756 206.014 17.548 205.766 17.404C205.518 17.252 205.218 17.176 204.866 17.176C204.498 17.176 204.174 17.256 203.894 17.416C203.614 17.576 203.398 17.8 203.246 18.088C203.094 18.376 203.018 18.716 203.018 19.108C203.018 19.508 203.098 19.86 203.258 20.164C203.418 20.46 203.646 20.692 203.942 20.86C204.238 21.02 204.578 21.1 204.962 21.1C205.282 21.1 205.574 21.044 205.838 20.932C206.11 20.82 206.342 20.652 206.534 20.428L207.23 21.136C206.958 21.456 206.622 21.7 206.222 21.868C205.83 22.036 205.41 22.12 204.962 22.12ZM209.426 22V15.268C209.426 14.892 209.506 14.56 209.666 14.272C209.834 13.976 210.066 13.744 210.362 13.576C210.658 13.4 210.998 13.312 211.382 13.312C211.678 13.312 211.938 13.364 212.162 13.468C212.386 13.564 212.594 13.7 212.786 13.876L212.078 14.584C211.974 14.496 211.866 14.432 211.754 14.392C211.642 14.344 211.518 14.32 211.382 14.32C211.102 14.32 210.886 14.408 210.734 14.584C210.582 14.752 210.506 14.98 210.506 15.268V22H209.426ZM208.022 17.284V16.3H213.434V17.284H208.022ZM212.81 22V16.3H213.902V22H212.81ZM213.35 15.7C213.158 15.7 212.998 15.636 212.87 15.508C212.742 15.372 212.678 15.204 212.678 15.004C212.678 14.812 212.742 14.652 212.87 14.524C212.998 14.388 213.158 14.32 213.35 14.32C213.558 14.32 213.722 14.388 213.842 14.524C213.97 14.652 214.034 14.812 214.034 15.004C214.034 15.204 213.97 15.372 213.842 15.508C213.722 15.636 213.558 15.7 213.35 15.7ZM216.395 22V13.912H217.475V22H216.395ZM214.991 17.284V16.3H222.275V17.284H214.991ZM219.791 22V13.912H220.871V22H219.791ZM225.829 22.12C225.261 22.12 224.749 21.992 224.293 21.736C223.837 21.472 223.477 21.116 223.213 20.668C222.949 20.22 222.817 19.712 222.817 19.144C222.817 18.584 222.945 18.08 223.201 17.632C223.465 17.184 223.817 16.832 224.257 16.576C224.705 16.312 225.205 16.18 225.757 16.18C226.285 16.18 226.749 16.3 227.149 16.54C227.557 16.78 227.873 17.112 228.097 17.536C228.329 17.96 228.445 18.44 228.445 18.976C228.445 19.056 228.441 19.144 228.433 19.24C228.425 19.328 228.409 19.432 228.385 19.552H223.573V18.652H227.809L227.413 19C227.413 18.616 227.345 18.292 227.209 18.028C227.073 17.756 226.881 17.548 226.633 17.404C226.385 17.252 226.085 17.176 225.733 17.176C225.365 17.176 225.041 17.256 224.761 17.416C224.481 17.576 224.265 17.8 224.113 18.088C223.961 18.376 223.885 18.716 223.885 19.108C223.885 19.508 223.965 19.86 224.125 20.164C224.285 20.46 224.513 20.692 224.809 20.86C225.105 21.02 225.445 21.1 225.829 21.1C226.149 21.1 226.441 21.044 226.705 20.932C226.977 20.82 227.209 20.652 227.401 20.428L228.097 21.136C227.825 21.456 227.489 21.7 227.089 21.868C226.697 22.036 226.277 22.12 225.829 22.12ZM232.065 22.12C231.537 22.12 231.065 21.992 230.649 21.736C230.233 21.472 229.901 21.116 229.653 20.668C229.413 20.22 229.293 19.716 229.293 19.156C229.293 18.596 229.413 18.092 229.653 17.644C229.901 17.196 230.233 16.84 230.649 16.576C231.065 16.312 231.537 16.18 232.065 16.18C232.489 16.18 232.873 16.272 233.217 16.456C233.561 16.632 233.837 16.88 234.045 17.2C234.261 17.512 234.381 17.876 234.405 18.292V20.008C234.381 20.416 234.265 20.78 234.057 21.1C233.849 21.42 233.573 21.672 233.229 21.856C232.885 22.032 232.497 22.12 232.065 22.12ZM232.245 21.1C232.605 21.1 232.917 21.016 233.181 20.848C233.453 20.68 233.665 20.452 233.817 20.164C233.969 19.868 234.045 19.532 234.045 19.156C234.045 18.764 233.965 18.424 233.805 18.136C233.653 17.848 233.441 17.62 233.169 17.452C232.905 17.284 232.593 17.2 232.233 17.2C231.873 17.2 231.557 17.284 231.285 17.452C231.013 17.62 230.797 17.852 230.637 18.148C230.485 18.436 230.409 18.768 230.409 19.144C230.409 19.528 230.485 19.868 230.637 20.164C230.797 20.452 231.013 20.68 231.285 20.848C231.565 21.016 231.885 21.1 232.245 21.1ZM235.065 22H233.973V20.464L234.177 19.072L233.973 17.692V13.432H235.065V22ZM54.608 37V30.448C54.608 30.024 54.7 29.656 54.884 29.344C55.068 29.024 55.32 28.772 55.64 28.588C55.968 28.404 56.348 28.312 56.78 28.312C57.108 28.312 57.392 28.368 57.632 28.48C57.872 28.592 58.092 28.756 58.292 28.972L57.584 29.668C57.48 29.556 57.364 29.472 57.236 29.416C57.108 29.352 56.952 29.32 56.768 29.32C56.424 29.32 56.156 29.42 55.964 29.62C55.78 29.82 55.688 30.096 55.688 30.448V37H54.608ZM53.204 32.284V31.3H57.5V32.284H53.204ZM58.404 37V31.3H59.484V37H58.404ZM59.484 33.748L59.076 33.568C59.076 32.84 59.244 32.26 59.58 31.828C59.916 31.396 60.4 31.18 61.032 31.18C61.32 31.18 61.58 31.232 61.812 31.336C62.044 31.432 62.26 31.596 62.46 31.828L61.752 32.56C61.632 32.432 61.5 32.34 61.356 32.284C61.212 32.228 61.044 32.2 60.852 32.2C60.452 32.2 60.124 32.328 59.868 32.584C59.612 32.84 59.484 33.228 59.484 33.748ZM65.6669 37.12C65.1069 37.12 64.6029 36.988 64.1549 36.724C63.7069 36.46 63.3509 36.104 63.0869 35.656C62.8229 35.2 62.6909 34.692 62.6909 34.132C62.6909 33.58 62.8229 33.084 63.0869 32.644C63.3509 32.196 63.7069 31.84 64.1549 31.576C64.6029 31.312 65.1069 31.18 65.6669 31.18C66.2189 31.18 66.7189 31.312 67.1669 31.576C67.6229 31.832 67.9829 32.184 68.2469 32.632C68.5109 33.08 68.6429 33.58 68.6429 34.132C68.6429 34.692 68.5109 35.2 68.2469 35.656C67.9829 36.104 67.6229 36.46 67.1669 36.724C66.7189 36.988 66.2189 37.12 65.6669 37.12ZM65.6669 36.076C66.0269 36.076 66.3469 35.992 66.6269 35.824C66.9069 35.656 67.1269 35.428 67.2869 35.14C67.4469 34.844 67.5269 34.508 67.5269 34.132C67.5269 33.764 67.4429 33.436 67.2749 33.148C67.1149 32.86 66.8949 32.636 66.6149 32.476C66.3429 32.308 66.0269 32.224 65.6669 32.224C65.3069 32.224 64.9869 32.308 64.7069 32.476C64.4269 32.636 64.2069 32.86 64.0469 33.148C63.8869 33.436 63.8069 33.764 63.8069 34.132C63.8069 34.508 63.8869 34.844 64.0469 35.14C64.2069 35.428 64.4269 35.656 64.7069 35.824C64.9869 35.992 65.3069 36.076 65.6669 36.076ZM69.8898 37V31.3H70.9698V37H69.8898ZM73.7418 37V33.556C73.7418 33.132 73.6098 32.8 73.3458 32.56C73.0898 32.312 72.7658 32.188 72.3738 32.188C72.1098 32.188 71.8738 32.244 71.6658 32.356C71.4578 32.468 71.2898 32.624 71.1618 32.824C71.0338 33.024 70.9698 33.264 70.9698 33.544L70.5258 33.328C70.5258 32.896 70.6178 32.52 70.8018 32.2C70.9938 31.88 71.2538 31.632 71.5818 31.456C71.9098 31.272 72.2778 31.18 72.6858 31.18C73.0858 31.18 73.4458 31.268 73.7658 31.444C74.0938 31.62 74.3498 31.868 74.5338 32.188C74.7258 32.508 74.8218 32.888 74.8218 33.328V37H73.7418ZM77.5938 37V33.556C77.5938 33.132 77.4618 32.8 77.1978 32.56C76.9418 32.312 76.6218 32.188 76.2378 32.188C75.9738 32.188 75.7338 32.244 75.5178 32.356C75.3098 32.468 75.1418 32.624 75.0138 32.824C74.8858 33.024 74.8218 33.264 74.8218 33.544L74.2098 33.328C74.2338 32.888 74.3498 32.512 74.5578 32.2C74.7738 31.88 75.0498 31.632 75.3858 31.456C75.7218 31.272 76.0898 31.18 76.4898 31.18C76.9058 31.18 77.2778 31.268 77.6058 31.444C77.9338 31.62 78.1938 31.868 78.3858 32.188C78.5858 32.508 78.6858 32.892 78.6858 33.34V37H77.5938ZM83.5875 37V28.912H84.6675V37H83.5875ZM82.1835 32.284V31.3H86.0715V32.284H82.1835ZM91.1915 37V33.676C91.1915 33.244 91.0555 32.888 90.7835 32.608C90.5115 32.328 90.1595 32.188 89.7275 32.188C89.4395 32.188 89.1835 32.252 88.9595 32.38C88.7355 32.508 88.5595 32.684 88.4315 32.908C88.3035 33.132 88.2395 33.388 88.2395 33.676L87.7955 33.424C87.7955 32.992 87.8915 32.608 88.0835 32.272C88.2755 31.936 88.5435 31.672 88.8875 31.48C89.2315 31.28 89.6195 31.18 90.0515 31.18C90.4835 31.18 90.8635 31.276 91.1915 31.468C91.5275 31.66 91.7915 31.928 91.9835 32.272C92.1755 32.616 92.2715 33.012 92.2715 33.46V37H91.1915ZM87.1595 37V28.432H88.2395V37H87.1595ZM93.7757 37V31.3H94.8557V37H93.7757ZM94.3157 30.16C94.1157 30.16 93.9517 30.096 93.8237 29.968C93.6957 29.832 93.6317 29.664 93.6317 29.464C93.6317 29.272 93.6957 29.112 93.8237 28.984C93.9517 28.848 94.1157 28.78 94.3157 28.78C94.5157 28.78 94.6797 28.848 94.8077 28.984C94.9357 29.112 94.9997 29.272 94.9997 29.464C94.9997 29.664 94.9357 29.832 94.8077 29.968C94.6797 30.096 94.5157 30.16 94.3157 30.16ZM98.2893 37.12C97.9693 37.12 97.6653 37.08 97.3773 37C97.0973 36.912 96.8373 36.792 96.5973 36.64C96.3573 36.48 96.1493 36.292 95.9733 36.076L96.6693 35.38C96.8773 35.636 97.1173 35.828 97.3893 35.956C97.6613 36.076 97.9653 36.136 98.3013 36.136C98.6373 36.136 98.8973 36.08 99.0813 35.968C99.2653 35.848 99.3573 35.684 99.3573 35.476C99.3573 35.268 99.2813 35.108 99.1293 34.996C98.9853 34.876 98.7973 34.78 98.5653 34.708C98.3333 34.628 98.0853 34.552 97.8213 34.48C97.5653 34.4 97.3213 34.3 97.0893 34.18C96.8573 34.06 96.6653 33.896 96.5133 33.688C96.3693 33.48 96.2973 33.204 96.2973 32.86C96.2973 32.516 96.3813 32.22 96.5493 31.972C96.7173 31.716 96.9493 31.52 97.2453 31.384C97.5493 31.248 97.9133 31.18 98.3373 31.18C98.7853 31.18 99.1813 31.26 99.5253 31.42C99.8773 31.572 100.165 31.804 100.389 32.116L99.6933 32.812C99.5333 32.604 99.3333 32.444 99.0933 32.332C98.8613 32.22 98.5973 32.164 98.3013 32.164C97.9893 32.164 97.7493 32.22 97.5813 32.332C97.4213 32.436 97.3413 32.584 97.3413 32.776C97.3413 32.968 97.4133 33.116 97.5573 33.22C97.7013 33.324 97.8893 33.412 98.1213 33.484C98.3613 33.556 98.6093 33.632 98.8653 33.712C99.1213 33.784 99.3653 33.884 99.5973 34.012C99.8293 34.14 100.017 34.312 100.161 34.528C100.313 34.744 100.389 35.028 100.389 35.38C100.389 35.916 100.197 36.34 99.8133 36.652C99.4373 36.964 98.9293 37.12 98.2893 37.12ZM107.154 37.12C106.722 37.12 106.33 37.032 105.978 36.856C105.634 36.672 105.358 36.42 105.15 36.1C104.942 35.78 104.826 35.416 104.802 35.008V33.292C104.826 32.876 104.942 32.512 105.15 32.2C105.366 31.88 105.646 31.632 105.99 31.456C106.342 31.272 106.73 31.18 107.154 31.18C107.674 31.18 108.142 31.312 108.558 31.576C108.982 31.84 109.314 32.196 109.554 32.644C109.794 33.092 109.914 33.596 109.914 34.156C109.914 34.716 109.794 35.22 109.554 35.668C109.314 36.116 108.982 36.472 108.558 36.736C108.142 36.992 107.674 37.12 107.154 37.12ZM106.974 36.1C107.334 36.1 107.65 36.016 107.922 35.848C108.194 35.68 108.41 35.452 108.57 35.164C108.73 34.868 108.81 34.528 108.81 34.144C108.81 33.768 108.73 33.432 108.57 33.136C108.41 32.84 108.194 32.612 107.922 32.452C107.65 32.284 107.338 32.2 106.986 32.2C106.626 32.2 106.31 32.284 106.038 32.452C105.766 32.612 105.554 32.84 105.402 33.136C105.25 33.432 105.174 33.772 105.174 34.156C105.174 34.532 105.246 34.868 105.39 35.164C105.542 35.452 105.754 35.68 106.026 35.848C106.306 36.016 106.622 36.1 106.974 36.1ZM104.154 39.388V31.3H105.234V32.8L105.03 34.18L105.234 35.572V39.388H104.154ZM111.169 37V31.3H112.249V37H111.169ZM112.249 33.748L111.841 33.568C111.841 32.84 112.009 32.26 112.345 31.828C112.681 31.396 113.165 31.18 113.797 31.18C114.085 31.18 114.345 31.232 114.577 31.336C114.809 31.432 115.025 31.596 115.225 31.828L114.517 32.56C114.397 32.432 114.265 32.34 114.121 32.284C113.977 32.228 113.809 32.2 113.617 32.2C113.217 32.2 112.889 32.328 112.633 32.584C112.377 32.84 112.249 33.228 112.249 33.748ZM118.432 37.12C117.872 37.12 117.368 36.988 116.92 36.724C116.472 36.46 116.116 36.104 115.852 35.656C115.588 35.2 115.456 34.692 115.456 34.132C115.456 33.58 115.588 33.084 115.852 32.644C116.116 32.196 116.472 31.84 116.92 31.576C117.368 31.312 117.872 31.18 118.432 31.18C118.984 31.18 119.484 31.312 119.932 31.576C120.388 31.832 120.748 32.184 121.012 32.632C121.276 33.08 121.408 33.58 121.408 34.132C121.408 34.692 121.276 35.2 121.012 35.656C120.748 36.104 120.388 36.46 119.932 36.724C119.484 36.988 118.984 37.12 118.432 37.12ZM118.432 36.076C118.792 36.076 119.112 35.992 119.392 35.824C119.672 35.656 119.892 35.428 120.052 35.14C120.212 34.844 120.292 34.508 120.292 34.132C120.292 33.764 120.208 33.436 120.04 33.148C119.88 32.86 119.66 32.636 119.38 32.476C119.108 32.308 118.792 32.224 118.432 32.224C118.072 32.224 117.752 32.308 117.472 32.476C117.192 32.636 116.972 32.86 116.812 33.148C116.652 33.436 116.572 33.764 116.572 34.132C116.572 34.508 116.652 34.844 116.812 35.14C116.972 35.428 117.192 35.656 117.472 35.824C117.752 35.992 118.072 36.076 118.432 36.076ZM125.019 39.508C124.435 39.508 123.915 39.4 123.459 39.184C123.011 38.968 122.651 38.664 122.379 38.272L123.075 37.564C123.307 37.86 123.583 38.084 123.903 38.236C124.223 38.396 124.603 38.476 125.043 38.476C125.627 38.476 126.087 38.32 126.423 38.008C126.767 37.704 126.939 37.292 126.939 36.772V35.356L127.131 34.072L126.939 32.8V31.3H128.019V36.772C128.019 37.316 127.891 37.792 127.635 38.2C127.387 38.608 127.035 38.928 126.579 39.16C126.131 39.392 125.611 39.508 125.019 39.508ZM125.019 36.904C124.499 36.904 124.031 36.78 123.615 36.532C123.207 36.284 122.883 35.944 122.643 35.512C122.403 35.072 122.283 34.58 122.283 34.036C122.283 33.492 122.403 33.008 122.643 32.584C122.883 32.152 123.207 31.812 123.615 31.564C124.031 31.308 124.499 31.18 125.019 31.18C125.467 31.18 125.863 31.268 126.207 31.444C126.551 31.62 126.823 31.868 127.023 32.188C127.231 32.5 127.343 32.868 127.359 33.292V34.804C127.335 35.22 127.219 35.588 127.011 35.908C126.811 36.22 126.539 36.464 126.195 36.64C125.851 36.816 125.459 36.904 125.019 36.904ZM125.235 35.884C125.587 35.884 125.895 35.808 126.159 35.656C126.431 35.504 126.639 35.292 126.783 35.02C126.927 34.74 126.999 34.416 126.999 34.048C126.999 33.68 126.923 33.36 126.771 33.088C126.627 32.808 126.423 32.592 126.159 32.44C125.895 32.28 125.583 32.2 125.223 32.2C124.863 32.2 124.547 32.28 124.275 32.44C124.003 32.592 123.787 32.808 123.627 33.088C123.475 33.36 123.399 33.676 123.399 34.036C123.399 34.396 123.475 34.716 123.627 34.996C123.787 35.276 124.003 35.496 124.275 35.656C124.555 35.808 124.875 35.884 125.235 35.884ZM129.634 37V31.3H130.714V37H129.634ZM130.714 33.748L130.306 33.568C130.306 32.84 130.474 32.26 130.81 31.828C131.146 31.396 131.63 31.18 132.262 31.18C132.55 31.18 132.81 31.232 133.042 31.336C133.274 31.432 133.49 31.596 133.69 31.828L132.982 32.56C132.862 32.432 132.73 32.34 132.586 32.284C132.442 32.228 132.274 32.2 132.082 32.2C131.682 32.2 131.354 32.328 131.098 32.584C130.842 32.84 130.714 33.228 130.714 33.748ZM136.717 37.12C136.197 37.12 135.725 36.992 135.301 36.736C134.877 36.472 134.541 36.116 134.293 35.668C134.053 35.22 133.933 34.716 133.933 34.156C133.933 33.596 134.053 33.092 134.293 32.644C134.541 32.196 134.873 31.84 135.289 31.576C135.713 31.312 136.189 31.18 136.717 31.18C137.149 31.18 137.533 31.272 137.869 31.456C138.213 31.632 138.489 31.88 138.697 32.2C138.905 32.512 139.021 32.876 139.045 33.292V35.008C139.021 35.416 138.905 35.78 138.697 36.1C138.497 36.42 138.225 36.672 137.881 36.856C137.545 37.032 137.157 37.12 136.717 37.12ZM136.897 36.1C137.433 36.1 137.865 35.92 138.193 35.56C138.521 35.192 138.685 34.724 138.685 34.156C138.685 33.764 138.609 33.424 138.457 33.136C138.313 32.84 138.105 32.612 137.833 32.452C137.561 32.284 137.245 32.2 136.885 32.2C136.525 32.2 136.205 32.284 135.925 32.452C135.653 32.62 135.437 32.852 135.277 33.148C135.125 33.436 135.049 33.768 135.049 34.144C135.049 34.528 135.125 34.868 135.277 35.164C135.437 35.452 135.657 35.68 135.937 35.848C136.217 36.016 136.537 36.1 136.897 36.1ZM138.613 37V35.464L138.817 34.072L138.613 32.692V31.3H139.705V37H138.613ZM141.307 37V31.3H142.387V37H141.307ZM145.159 37V33.556C145.159 33.132 145.027 32.8 144.763 32.56C144.507 32.312 144.183 32.188 143.791 32.188C143.527 32.188 143.291 32.244 143.083 32.356C142.875 32.468 142.707 32.624 142.579 32.824C142.451 33.024 142.387 33.264 142.387 33.544L141.943 33.328C141.943 32.896 142.035 32.52 142.219 32.2C142.411 31.88 142.671 31.632 142.999 31.456C143.327 31.272 143.695 31.18 144.103 31.18C144.503 31.18 144.863 31.268 145.183 31.444C145.511 31.62 145.767 31.868 145.951 32.188C146.143 32.508 146.239 32.888 146.239 33.328V37H145.159ZM149.011 37V33.556C149.011 33.132 148.879 32.8 148.615 32.56C148.359 32.312 148.039 32.188 147.655 32.188C147.391 32.188 147.151 32.244 146.935 32.356C146.727 32.468 146.559 32.624 146.431 32.824C146.303 33.024 146.239 33.264 146.239 33.544L145.627 33.328C145.651 32.888 145.767 32.512 145.975 32.2C146.191 31.88 146.467 31.632 146.803 31.456C147.139 31.272 147.507 31.18 147.907 31.18C148.323 31.18 148.695 31.268 149.023 31.444C149.351 31.62 149.611 31.868 149.803 32.188C150.003 32.508 150.103 32.892 150.103 33.34V37H149.011ZM152.551 37.12C152.327 37.12 152.139 37.044 151.987 36.892C151.843 36.732 151.771 36.544 151.771 36.328C151.771 36.104 151.843 35.92 151.987 35.776C152.139 35.624 152.327 35.548 152.551 35.548C152.775 35.548 152.959 35.624 153.103 35.776C153.255 35.92 153.331 36.104 153.331 36.328C153.331 36.544 153.255 36.732 153.103 36.892C152.959 37.044 152.775 37.12 152.551 37.12ZM160.131 33.616L156.855 28.672H158.163L160.803 32.716H160.215L162.868 28.672H164.151L160.851 33.616H160.131ZM159.939 37V32.872H161.067V37H159.939ZM166.144 37.12C165.584 37.12 165.08 36.988 164.632 36.724C164.184 36.46 163.828 36.104 163.564 35.656C163.3 35.2 163.168 34.692 163.168 34.132C163.168 33.58 163.3 33.084 163.564 32.644C163.828 32.196 164.184 31.84 164.632 31.576C165.08 31.312 165.584 31.18 166.144 31.18C166.696 31.18 167.196 31.312 167.644 31.576C168.1 31.832 168.46 32.184 168.724 32.632C168.988 33.08 169.12 33.58 169.12 34.132C169.12 34.692 168.988 35.2 168.724 35.656C168.46 36.104 168.1 36.46 167.644 36.724C167.196 36.988 166.696 37.12 166.144 37.12ZM166.144 36.076C166.504 36.076 166.824 35.992 167.104 35.824C167.384 35.656 167.604 35.428 167.764 35.14C167.924 34.844 168.004 34.508 168.004 34.132C168.004 33.764 167.92 33.436 167.752 33.148C167.592 32.86 167.372 32.636 167.092 32.476C166.82 32.308 166.504 32.224 166.144 32.224C165.784 32.224 165.464 32.308 165.184 32.476C164.904 32.636 164.684 32.86 164.524 33.148C164.364 33.436 164.284 33.764 164.284 34.132C164.284 34.508 164.364 34.844 164.524 35.14C164.684 35.428 164.904 35.656 165.184 35.824C165.464 35.992 165.784 36.076 166.144 36.076ZM172.659 37.12C172.195 37.12 171.775 37.016 171.399 36.808C171.031 36.592 170.743 36.296 170.535 35.92C170.327 35.544 170.223 35.108 170.223 34.612V31.3H171.303V34.564C171.303 34.876 171.355 35.148 171.459 35.38C171.571 35.604 171.731 35.776 171.939 35.896C172.147 36.016 172.391 36.076 172.671 36.076C173.095 36.076 173.427 35.944 173.667 35.68C173.907 35.408 174.027 35.036 174.027 34.564V31.3H175.107V34.612C175.107 35.108 175.003 35.544 174.795 35.92C174.587 36.296 174.299 36.592 173.931 36.808C173.571 37.016 173.147 37.12 172.659 37.12ZM181.535 37.12C181.015 37.12 180.543 36.992 180.119 36.736C179.695 36.472 179.359 36.116 179.111 35.668C178.871 35.22 178.751 34.716 178.751 34.156C178.751 33.596 178.871 33.092 179.111 32.644C179.359 32.196 179.691 31.84 180.107 31.576C180.531 31.312 181.007 31.18 181.535 31.18C181.967 31.18 182.351 31.272 182.687 31.456C183.031 31.632 183.307 31.88 183.515 32.2C183.723 32.512 183.839 32.876 183.863 33.292V35.008C183.839 35.416 183.723 35.78 183.515 36.1C183.315 36.42 183.043 36.672 182.699 36.856C182.363 37.032 181.975 37.12 181.535 37.12ZM181.715 36.1C182.251 36.1 182.683 35.92 183.011 35.56C183.339 35.192 183.503 34.724 183.503 34.156C183.503 33.764 183.427 33.424 183.275 33.136C183.131 32.84 182.923 32.612 182.651 32.452C182.379 32.284 182.063 32.2 181.703 32.2C181.343 32.2 181.023 32.284 180.743 32.452C180.471 32.62 180.255 32.852 180.095 33.148C179.943 33.436 179.867 33.768 179.867 34.144C179.867 34.528 179.943 34.868 180.095 35.164C180.255 35.452 180.475 35.68 180.755 35.848C181.035 36.016 181.355 36.1 181.715 36.1ZM183.431 37V35.464L183.635 34.072L183.431 32.692V31.3H184.523V37H183.431ZM186.125 37V31.3H187.205V37H186.125ZM187.205 33.748L186.797 33.568C186.797 32.84 186.965 32.26 187.301 31.828C187.637 31.396 188.121 31.18 188.753 31.18C189.041 31.18 189.301 31.232 189.533 31.336C189.765 31.432 189.981 31.596 190.181 31.828L189.473 32.56C189.353 32.432 189.221 32.34 189.077 32.284C188.933 32.228 188.765 32.2 188.573 32.2C188.173 32.2 187.845 32.328 187.589 32.584C187.333 32.84 187.205 33.228 187.205 33.748ZM193.424 37.12C192.856 37.12 192.344 36.992 191.888 36.736C191.432 36.472 191.072 36.116 190.808 35.668C190.544 35.22 190.412 34.712 190.412 34.144C190.412 33.584 190.54 33.08 190.796 32.632C191.06 32.184 191.412 31.832 191.852 31.576C192.3 31.312 192.8 31.18 193.352 31.18C193.88 31.18 194.344 31.3 194.744 31.54C195.152 31.78 195.468 32.112 195.692 32.536C195.924 32.96 196.04 33.44 196.04 33.976C196.04 34.056 196.036 34.144 196.028 34.24C196.02 34.328 196.004 34.432 195.98 34.552H191.168V33.652H195.404L195.008 34C195.008 33.616 194.94 33.292 194.804 33.028C194.668 32.756 194.476 32.548 194.228 32.404C193.98 32.252 193.68 32.176 193.328 32.176C192.96 32.176 192.636 32.256 192.356 32.416C192.076 32.576 191.86 32.8 191.708 33.088C191.556 33.376 191.48 33.716 191.48 34.108C191.48 34.508 191.56 34.86 191.72 35.164C191.88 35.46 192.108 35.692 192.404 35.86C192.7 36.02 193.04 36.1 193.424 36.1C193.744 36.1 194.036 36.044 194.3 35.932C194.572 35.82 194.804 35.652 194.996 35.428L195.692 36.136C195.42 36.456 195.084 36.7 194.684 36.868C194.292 37.036 193.872 37.12 193.424 37.12ZM203.806 37V33.676C203.806 33.244 203.67 32.888 203.398 32.608C203.126 32.328 202.774 32.188 202.342 32.188C202.054 32.188 201.798 32.252 201.574 32.38C201.35 32.508 201.174 32.684 201.046 32.908C200.918 33.132 200.854 33.388 200.854 33.676L200.41 33.424C200.41 32.992 200.506 32.608 200.698 32.272C200.89 31.936 201.158 31.672 201.502 31.48C201.846 31.28 202.234 31.18 202.666 31.18C203.098 31.18 203.478 31.288 203.806 31.504C204.142 31.72 204.406 32.004 204.598 32.356C204.79 32.7 204.886 33.068 204.886 33.46V37H203.806ZM199.774 37V31.3H200.854V37H199.774ZM209.018 37.12C208.45 37.12 207.938 36.992 207.482 36.736C207.026 36.472 206.666 36.116 206.402 35.668C206.138 35.22 206.006 34.712 206.006 34.144C206.006 33.584 206.134 33.08 206.39 32.632C206.654 32.184 207.006 31.832 207.446 31.576C207.894 31.312 208.394 31.18 208.946 31.18C209.474 31.18 209.938 31.3 210.338 31.54C210.746 31.78 211.062 32.112 211.286 32.536C211.518 32.96 211.634 33.44 211.634 33.976C211.634 34.056 211.63 34.144 211.622 34.24C211.614 34.328 211.598 34.432 211.574 34.552H206.762V33.652H210.998L210.602 34C210.602 33.616 210.534 33.292 210.398 33.028C210.262 32.756 210.07 32.548 209.822 32.404C209.574 32.252 209.274 32.176 208.922 32.176C208.554 32.176 208.23 32.256 207.95 32.416C207.67 32.576 207.454 32.8 207.302 33.088C207.15 33.376 207.074 33.716 207.074 34.108C207.074 34.508 207.154 34.86 207.314 35.164C207.474 35.46 207.702 35.692 207.998 35.86C208.294 36.02 208.634 36.1 209.018 36.1C209.338 36.1 209.63 36.044 209.894 35.932C210.166 35.82 210.398 35.652 210.59 35.428L211.286 36.136C211.014 36.456 210.678 36.7 210.278 36.868C209.886 37.036 209.466 37.12 209.018 37.12ZM216.41 37L214.634 34.504L214.43 34.312L212.186 31.3H213.494L215.114 33.52L215.318 33.688L217.718 37H216.41ZM212.078 37L214.43 33.832L215.042 34.624L213.35 37H212.078ZM215.402 34.3L214.778 33.532L216.35 31.3H217.61L215.402 34.3ZM219.373 37V28.912H220.453V37H219.373ZM217.969 32.284V31.3H221.857V32.284H217.969ZM223.269 34.36L223.113 28.432H224.265L224.109 34.36H223.269ZM223.677 37.12C223.453 37.12 223.269 37.044 223.125 36.892C222.981 36.74 222.909 36.552 222.909 36.328C222.909 36.104 222.981 35.92 223.125 35.776C223.269 35.624 223.453 35.548 223.677 35.548C223.909 35.548 224.097 35.624 224.241 35.776C224.385 35.92 224.457 36.104 224.457 36.328C224.457 36.552 224.385 36.74 224.241 36.892C224.097 37.044 223.909 37.12 223.677 37.12Z" fill="black"/>
</g>
<defs>
<filter id="filter0_d_880_721" x="0" y="0" width="252" height="58" filterUnits="userSpaceOnUse" color-interpolation-filters="sRGB">
<feFlood flood-opacity="0" result="BackgroundImageFix"/>
<feColorMatrix in="SourceAlpha" type="matrix" values="0 0 0 0 0 0 0 0 0 0 0 0 0 0 0 0 0 0 127 0" result="hardAlpha"/>
<feOffset dy="4"/>
<feGaussianBlur stdDeviation="2"/>
<feComposite in2="hardAlpha" operator="out"/>
<feColorMatrix type="matrix" values="0 0 0 0 0 0 0 0 0 0 0 0 0 0 0 0 0 0 0.02 0"/>
<feBlend mode="normal" in2="BackgroundImageFix" result="effect1_dropShadow_880_721"/>
<feBlend mode="normal" in="SourceGraphic" in2="effect1_dropShadow_880_721" result="shape"/>
</filter>
</defs>
</svg>
