<svg width="289" height="71" viewBox="0 0 289 71" fill="none" xmlns="http://www.w3.org/2000/svg">
<rect x="0.25" y="0.25" width="288.5" height="70.5" rx="7.75" fill="white"/>
<rect x="0.25" y="0.25" width="288.5" height="70.5" rx="7.75" stroke="#63696E" stroke-width="0.5"/>
<path d="M54.992 34.24C54.016 34.24 53.144 34.048 52.376 33.664C51.624 33.264 51.016 32.736 50.552 32.08L52.496 30.304C52.768 30.72 53.112 31.04 53.528 31.264C53.944 31.488 54.4 31.6 54.896 31.6C55.44 31.6 55.904 31.488 56.288 31.264C56.672 31.04 56.968 30.72 57.176 30.304C57.384 29.888 57.488 29.392 57.488 28.816V17.2H60.248V28.6C60.248 29.72 60.024 30.704 59.576 31.552C59.144 32.4 58.536 33.064 57.752 33.544C56.968 34.008 56.048 34.24 54.992 34.24ZM68.1474 34.24C67.1074 34.24 66.1634 33.976 65.3154 33.448C64.4834 32.92 63.8194 32.208 63.3234 31.312C62.8434 30.4 62.6034 29.384 62.6034 28.264C62.6034 27.128 62.8434 26.112 63.3234 25.216C63.8194 24.304 64.4834 23.584 65.3154 23.056C66.1634 22.512 67.1074 22.24 68.1474 22.24C69.0274 22.24 69.8034 22.432 70.4754 22.816C71.1634 23.184 71.7074 23.696 72.1074 24.352C72.5074 25.008 72.7074 25.752 72.7074 26.584V29.896C72.7074 30.728 72.5074 31.472 72.1074 32.128C71.7234 32.784 71.1874 33.304 70.4994 33.688C69.8114 34.056 69.0274 34.24 68.1474 34.24ZM68.5794 31.744C69.5554 31.744 70.3394 31.416 70.9314 30.76C71.5394 30.104 71.8434 29.264 71.8434 28.24C71.8434 27.552 71.7074 26.944 71.4354 26.416C71.1634 25.888 70.7794 25.48 70.2834 25.192C69.8034 24.888 69.2354 24.736 68.5794 24.736C67.9394 24.736 67.3714 24.888 66.8754 25.192C66.3954 25.48 66.0114 25.888 65.7234 26.416C65.4514 26.944 65.3154 27.552 65.3154 28.24C65.3154 28.928 65.4514 29.536 65.7234 30.064C66.0114 30.592 66.3954 31.008 66.8754 31.312C67.3714 31.6 67.9394 31.744 68.5794 31.744ZM71.6754 34V30.904L72.1314 28.096L71.6754 25.312V22.48H74.3154V34H71.6754ZM85.1413 34V27.352C85.1413 26.584 84.8933 25.952 84.3973 25.456C83.9173 24.96 83.2933 24.712 82.5253 24.712C82.0133 24.712 81.5573 24.824 81.1573 25.048C80.7573 25.272 80.4453 25.584 80.2213 25.984C79.9973 26.384 79.8853 26.84 79.8853 27.352L78.8533 26.776C78.8533 25.896 79.0453 25.12 79.4293 24.448C79.8133 23.76 80.3413 23.224 81.0133 22.84C81.7013 22.44 82.4693 22.24 83.3173 22.24C84.1813 22.24 84.9493 22.464 85.6213 22.912C86.2933 23.344 86.8213 23.912 87.2053 24.616C87.5893 25.304 87.7812 26.024 87.7812 26.776V34H85.1413ZM77.2453 34V22.48H79.8853V34H77.2453ZM95.816 34.24C94.664 34.24 93.624 33.984 92.696 33.472C91.784 32.944 91.056 32.224 90.512 31.312C89.984 30.4 89.72 29.376 89.72 28.24C89.72 27.104 89.984 26.088 90.512 25.192C91.04 24.28 91.752 23.56 92.648 23.032C93.56 22.504 94.568 22.24 95.672 22.24C96.744 22.24 97.688 22.488 98.504 22.984C99.336 23.48 99.984 24.16 100.448 25.024C100.928 25.888 101.168 26.872 101.168 27.976C101.168 28.168 101.152 28.368 101.12 28.576C101.104 28.768 101.072 28.984 101.024 29.224H91.568V27.064H99.656L98.672 27.928C98.64 27.224 98.504 26.632 98.264 26.152C98.024 25.672 97.68 25.304 97.232 25.048C96.8 24.792 96.264 24.664 95.624 24.664C94.952 24.664 94.368 24.808 93.872 25.096C93.376 25.384 92.992 25.792 92.72 26.32C92.448 26.832 92.312 27.448 92.312 28.168C92.312 28.888 92.456 29.52 92.744 30.064C93.032 30.608 93.44 31.032 93.968 31.336C94.496 31.624 95.104 31.768 95.792 31.768C96.384 31.768 96.928 31.664 97.424 31.456C97.936 31.248 98.368 30.944 98.72 30.544L100.4 32.248C99.84 32.904 99.16 33.4 98.36 33.736C97.56 34.072 96.712 34.24 95.816 34.24ZM110.345 34V31.48H114.761C115.913 31.48 116.921 31.232 117.785 30.736C118.665 30.24 119.345 29.552 119.825 28.672C120.321 27.776 120.569 26.744 120.569 25.576C120.569 24.424 120.321 23.408 119.825 22.528C119.329 21.648 118.641 20.96 117.761 20.464C116.897 19.968 115.897 19.72 114.761 19.72H110.345V17.2H114.833C116.049 17.2 117.177 17.416 118.217 17.848C119.257 18.264 120.161 18.856 120.929 19.624C121.713 20.376 122.321 21.264 122.753 22.288C123.185 23.296 123.401 24.4 123.401 25.6C123.401 26.784 123.185 27.888 122.753 28.912C122.321 29.936 121.721 30.832 120.953 31.6C120.185 32.352 119.281 32.944 118.241 33.376C117.201 33.792 116.081 34 114.881 34H110.345ZM108.449 34V17.2H111.209V34H108.449ZM131.135 34.24C130.015 34.24 128.999 33.976 128.087 33.448C127.175 32.904 126.447 32.176 125.903 31.264C125.375 30.352 125.111 29.336 125.111 28.216C125.111 27.096 125.375 26.088 125.903 25.192C126.447 24.296 127.175 23.584 128.087 23.056C128.999 22.512 130.015 22.24 131.135 22.24C132.271 22.24 133.295 22.504 134.207 23.032C135.119 23.56 135.839 24.28 136.367 25.192C136.911 26.088 137.183 27.096 137.183 28.216C137.183 29.336 136.911 30.352 136.367 31.264C135.839 32.176 135.119 32.904 134.207 33.448C133.295 33.976 132.271 34.24 131.135 34.24ZM131.135 31.696C131.791 31.696 132.367 31.552 132.863 31.264C133.375 30.96 133.767 30.544 134.039 30.016C134.327 29.488 134.471 28.888 134.471 28.216C134.471 27.544 134.327 26.952 134.039 26.44C133.751 25.928 133.359 25.528 132.863 25.24C132.367 24.936 131.791 24.784 131.135 24.784C130.495 24.784 129.919 24.936 129.407 25.24C128.911 25.528 128.519 25.928 128.231 26.44C127.959 26.952 127.823 27.544 127.823 28.216C127.823 28.888 127.959 29.488 128.231 30.016C128.519 30.544 128.911 30.96 129.407 31.264C129.919 31.552 130.495 31.696 131.135 31.696ZM144.73 34.24C143.578 34.24 142.538 33.984 141.61 33.472C140.698 32.944 139.97 32.224 139.426 31.312C138.898 30.4 138.634 29.376 138.634 28.24C138.634 27.104 138.898 26.088 139.426 25.192C139.954 24.28 140.666 23.56 141.562 23.032C142.474 22.504 143.482 22.24 144.586 22.24C145.658 22.24 146.602 22.488 147.418 22.984C148.25 23.48 148.898 24.16 149.362 25.024C149.842 25.888 150.082 26.872 150.082 27.976C150.082 28.168 150.066 28.368 150.034 28.576C150.018 28.768 149.986 28.984 149.938 29.224H140.482V27.064H148.57L147.586 27.928C147.554 27.224 147.418 26.632 147.178 26.152C146.938 25.672 146.594 25.304 146.146 25.048C145.714 24.792 145.178 24.664 144.538 24.664C143.866 24.664 143.282 24.808 142.786 25.096C142.29 25.384 141.906 25.792 141.634 26.32C141.362 26.832 141.226 27.448 141.226 28.168C141.226 28.888 141.37 29.52 141.658 30.064C141.946 30.608 142.354 31.032 142.882 31.336C143.41 31.624 144.018 31.768 144.706 31.768C145.298 31.768 145.842 31.664 146.338 31.456C146.85 31.248 147.282 30.944 147.634 30.544L149.314 32.248C148.754 32.904 148.074 33.4 147.274 33.736C146.474 34.072 145.626 34.24 144.73 34.24Z" fill="black"/>
<path d="M51.312 57V45.896H52.816V57H51.312ZM52.336 52.12V50.744H58.128V52.12H52.336ZM52.336 47.272V45.896H58.4V47.272H52.336ZM63.1745 57.16C62.5558 57.16 61.9958 57.0213 61.4945 56.744C61.0038 56.456 60.6198 56.0613 60.3425 55.56C60.0652 55.0587 59.9265 54.4773 59.9265 53.816V49.4H61.3665V53.752C61.3665 54.168 61.4358 54.5307 61.5745 54.84C61.7238 55.1387 61.9372 55.368 62.2145 55.528C62.4918 55.688 62.8172 55.768 63.1905 55.768C63.7558 55.768 64.1985 55.592 64.5185 55.24C64.8385 54.8773 64.9985 54.3813 64.9985 53.752V49.4H66.4385V53.816C66.4385 54.4773 66.2998 55.0587 66.0225 55.56C65.7452 56.0613 65.3612 56.456 64.8705 56.744C64.3905 57.0213 63.8252 57.16 63.1745 57.16ZM68.3685 57V45.576H69.8085V57H68.3685ZM71.9154 57V45.576H73.3554V57H71.9154ZM81.2064 57.16C80.7797 57.16 80.3744 57.1067 79.9904 57C79.617 56.8827 79.2704 56.7227 78.9504 56.52C78.6304 56.3067 78.353 56.056 78.1184 55.768L79.0464 54.84C79.3237 55.1813 79.6437 55.4373 80.0064 55.608C80.369 55.768 80.7744 55.848 81.2224 55.848C81.6704 55.848 82.017 55.7733 82.2624 55.624C82.5077 55.464 82.6304 55.2453 82.6304 54.968C82.6304 54.6907 82.529 54.4773 82.3264 54.328C82.1344 54.168 81.8837 54.04 81.5744 53.944C81.265 53.8373 80.9344 53.736 80.5824 53.64C80.241 53.5333 79.9157 53.4 79.6064 53.24C79.297 53.08 79.041 52.8613 78.8384 52.584C78.6464 52.3067 78.5504 51.9387 78.5504 51.48C78.5504 51.0213 78.6624 50.6267 78.8864 50.296C79.1104 49.9547 79.4197 49.6933 79.8144 49.512C80.2197 49.3307 80.705 49.24 81.2704 49.24C81.8677 49.24 82.3957 49.3467 82.8544 49.56C83.3237 49.7627 83.7077 50.072 84.0064 50.488L83.0784 51.416C82.865 51.1387 82.5984 50.9253 82.2784 50.776C81.969 50.6267 81.617 50.552 81.2224 50.552C80.8064 50.552 80.4864 50.6267 80.2624 50.776C80.049 50.9147 79.9424 51.112 79.9424 51.368C79.9424 51.624 80.0384 51.8213 80.2304 51.96C80.4224 52.0987 80.673 52.216 80.9824 52.312C81.3024 52.408 81.633 52.5093 81.9744 52.616C82.3157 52.712 82.641 52.8453 82.9504 53.016C83.2597 53.1867 83.5104 53.416 83.7024 53.704C83.905 53.992 84.0064 54.3707 84.0064 54.84C84.0064 55.5547 83.7504 56.12 83.2384 56.536C82.737 56.952 82.0597 57.16 81.2064 57.16ZM86.7865 57V46.216H88.2265V57H86.7865ZM84.9145 50.712V49.4H90.0985V50.712H84.9145ZM94.5068 57.16C93.8134 57.16 93.1841 56.9893 92.6188 56.648C92.0534 56.296 91.6054 55.8213 91.2747 55.224C90.9548 54.6267 90.7948 53.9547 90.7948 53.208C90.7948 52.4613 90.9548 51.7893 91.2747 51.192C91.6054 50.5947 92.0481 50.12 92.6028 49.768C93.1681 49.416 93.8028 49.24 94.5068 49.24C95.0828 49.24 95.5948 49.3627 96.0428 49.608C96.5014 49.8427 96.8694 50.1733 97.1468 50.6C97.4241 51.016 97.5788 51.5013 97.6108 52.056V54.344C97.5788 54.888 97.4241 55.3733 97.1468 55.8C96.8801 56.2267 96.5174 56.5627 96.0588 56.808C95.6108 57.0427 95.0934 57.16 94.5068 57.16ZM94.7468 55.8C95.4614 55.8 96.0374 55.56 96.4748 55.08C96.9121 54.5893 97.1308 53.9653 97.1308 53.208C97.1308 52.6853 97.0294 52.232 96.8268 51.848C96.6348 51.4533 96.3574 51.1493 95.9948 50.936C95.6321 50.712 95.2108 50.6 94.7308 50.6C94.2508 50.6 93.8241 50.712 93.4508 50.936C93.0881 51.16 92.8001 51.4693 92.5868 51.864C92.3841 52.248 92.2828 52.6907 92.2828 53.192C92.2828 53.704 92.3841 54.1573 92.5868 54.552C92.8001 54.936 93.0934 55.24 93.4668 55.464C93.8401 55.688 94.2668 55.8 94.7468 55.8ZM97.0348 57V54.952L97.3068 53.096L97.0348 51.256V49.4H98.4908V57H97.0348ZM104.059 57.16C103.313 57.16 102.635 56.984 102.027 56.632C101.43 56.28 100.955 55.8053 100.603 55.208C100.262 54.6 100.091 53.928 100.091 53.192C100.091 52.4453 100.262 51.7733 100.603 51.176C100.955 50.5787 101.43 50.1093 102.027 49.768C102.635 49.416 103.313 49.24 104.059 49.24C104.646 49.24 105.19 49.352 105.691 49.576C106.193 49.7893 106.625 50.104 106.987 50.52L106.027 51.48C105.793 51.2027 105.505 50.9947 105.163 50.856C104.833 50.7067 104.465 50.632 104.059 50.632C103.579 50.632 103.153 50.744 102.779 50.968C102.406 51.1813 102.113 51.48 101.899 51.864C101.686 52.248 101.579 52.6907 101.579 53.192C101.579 53.6933 101.686 54.136 101.899 54.52C102.113 54.904 102.406 55.208 102.779 55.432C103.153 55.656 103.579 55.768 104.059 55.768C104.465 55.768 104.833 55.6987 105.163 55.56C105.505 55.4107 105.798 55.1973 106.043 54.92L106.987 55.88C106.635 56.2853 106.203 56.6 105.691 56.824C105.19 57.048 104.646 57.16 104.059 57.16ZM113.279 57L109.727 53.112L113.247 49.4H114.991L111.071 53.496L111.135 52.664L115.135 57H113.279ZM108.415 57V45.576H109.855V57H108.415ZM120.96 57V55.624H124.048C124.87 55.624 125.59 55.448 126.208 55.096C126.827 54.7333 127.307 54.2373 127.648 53.608C128 52.9787 128.176 52.2533 128.176 51.432C128.176 50.6213 128 49.9013 127.648 49.272C127.296 48.6427 126.811 48.152 126.192 47.8C125.574 47.448 124.859 47.272 124.048 47.272H120.976V45.896H124.08C124.891 45.896 125.638 46.0347 126.32 46.312C127.014 46.5893 127.611 46.9787 128.112 47.48C128.624 47.9813 129.019 48.568 129.296 49.24C129.584 49.912 129.728 50.648 129.728 51.448C129.728 52.2373 129.584 52.9733 129.296 53.656C129.019 54.328 128.63 54.9147 128.128 55.416C127.627 55.9173 127.03 56.3067 126.336 56.584C125.654 56.8613 124.912 57 124.112 57H120.96ZM119.968 57V45.896H121.472V57H119.968ZM135.076 57.16C134.319 57.16 133.636 56.9893 133.028 56.648C132.42 56.296 131.94 55.8213 131.588 55.224C131.236 54.6267 131.06 53.9493 131.06 53.192C131.06 52.4453 131.231 51.7733 131.572 51.176C131.924 50.5787 132.393 50.1093 132.98 49.768C133.577 49.416 134.244 49.24 134.98 49.24C135.684 49.24 136.303 49.4 136.836 49.72C137.38 50.04 137.801 50.4827 138.1 51.048C138.409 51.6133 138.564 52.2533 138.564 52.968C138.564 53.0747 138.559 53.192 138.548 53.32C138.537 53.4373 138.516 53.576 138.484 53.736H132.068V52.536H137.716L137.188 53C137.188 52.488 137.097 52.056 136.916 51.704C136.735 51.3413 136.479 51.064 136.148 50.872C135.817 50.6693 135.417 50.568 134.948 50.568C134.457 50.568 134.025 50.6747 133.652 50.888C133.279 51.1013 132.991 51.4 132.788 51.784C132.585 52.168 132.484 52.6213 132.484 53.144C132.484 53.6773 132.591 54.1467 132.804 54.552C133.017 54.9467 133.321 55.256 133.716 55.48C134.111 55.6933 134.564 55.8 135.076 55.8C135.503 55.8 135.892 55.7253 136.244 55.576C136.607 55.4267 136.916 55.2027 137.172 54.904L138.1 55.848C137.737 56.2747 137.289 56.6 136.756 56.824C136.233 57.048 135.673 57.16 135.076 57.16ZM142.617 57L139.129 49.4H140.729L143.529 55.816H142.601L145.417 49.4H146.953L143.465 57H142.617ZM151.356 57.16C150.609 57.16 149.937 56.984 149.34 56.632C148.743 56.28 148.268 55.8053 147.916 55.208C147.564 54.6 147.388 53.9227 147.388 53.176C147.388 52.44 147.564 51.7787 147.916 51.192C148.268 50.5947 148.743 50.12 149.34 49.768C149.937 49.416 150.609 49.24 151.356 49.24C152.092 49.24 152.759 49.416 153.356 49.768C153.964 50.1093 154.444 50.5787 154.796 51.176C155.148 51.7733 155.324 52.44 155.324 53.176C155.324 53.9227 155.148 54.6 154.796 55.208C154.444 55.8053 153.964 56.28 153.356 56.632C152.759 56.984 152.092 57.16 151.356 57.16ZM151.356 55.768C151.836 55.768 152.263 55.656 152.636 55.432C153.009 55.208 153.303 54.904 153.516 54.52C153.729 54.1253 153.836 53.6773 153.836 53.176C153.836 52.6853 153.724 52.248 153.5 51.864C153.287 51.48 152.993 51.1813 152.62 50.968C152.257 50.744 151.836 50.632 151.356 50.632C150.876 50.632 150.449 50.744 150.076 50.968C149.703 51.1813 149.409 51.48 149.196 51.864C148.983 52.248 148.876 52.6853 148.876 53.176C148.876 53.6773 148.983 54.1253 149.196 54.52C149.409 54.904 149.703 55.208 150.076 55.432C150.449 55.656 150.876 55.768 151.356 55.768ZM160.947 57.16C160.371 57.16 159.848 57.0427 159.379 56.808C158.92 56.5627 158.552 56.2267 158.275 55.8C157.997 55.3733 157.843 54.888 157.811 54.344V52.056C157.843 51.5013 157.997 51.016 158.275 50.6C158.563 50.1733 158.936 49.8427 159.395 49.608C159.864 49.3627 160.381 49.24 160.947 49.24C161.64 49.24 162.264 49.416 162.819 49.768C163.384 50.12 163.827 50.5947 164.147 51.192C164.467 51.7893 164.627 52.4613 164.627 53.208C164.627 53.9547 164.467 54.6267 164.147 55.224C163.827 55.8213 163.384 56.296 162.819 56.648C162.264 56.9893 161.64 57.16 160.947 57.16ZM160.707 55.8C161.187 55.8 161.608 55.688 161.971 55.464C162.333 55.24 162.621 54.936 162.835 54.552C163.048 54.1573 163.155 53.704 163.155 53.192C163.155 52.6907 163.048 52.2427 162.835 51.848C162.621 51.4533 162.333 51.1493 161.971 50.936C161.608 50.712 161.192 50.6 160.723 50.6C160.243 50.6 159.821 50.712 159.459 50.936C159.096 51.1493 158.813 51.4533 158.611 51.848C158.408 52.2427 158.307 52.696 158.307 53.208C158.307 53.7093 158.403 54.1573 158.595 54.552C158.797 54.936 159.08 55.24 159.443 55.464C159.816 55.688 160.237 55.8 160.707 55.8ZM156.947 60.184V49.4H158.387V51.4L158.115 53.24L158.387 55.096V60.184H156.947ZM168.675 57.16C168.248 57.16 167.843 57.1067 167.459 57C167.086 56.8827 166.739 56.7227 166.419 56.52C166.099 56.3067 165.822 56.056 165.587 55.768L166.515 54.84C166.792 55.1813 167.112 55.4373 167.475 55.608C167.838 55.768 168.243 55.848 168.691 55.848C169.139 55.848 169.486 55.7733 169.731 55.624C169.976 55.464 170.099 55.2453 170.099 54.968C170.099 54.6907 169.998 54.4773 169.795 54.328C169.603 54.168 169.352 54.04 169.043 53.944C168.734 53.8373 168.403 53.736 168.051 53.64C167.71 53.5333 167.384 53.4 167.075 53.24C166.766 53.08 166.51 52.8613 166.307 52.584C166.115 52.3067 166.019 51.9387 166.019 51.48C166.019 51.0213 166.131 50.6267 166.355 50.296C166.579 49.9547 166.888 49.6933 167.283 49.512C167.688 49.3307 168.174 49.24 168.739 49.24C169.336 49.24 169.864 49.3467 170.323 49.56C170.792 49.7627 171.176 50.072 171.475 50.488L170.547 51.416C170.334 51.1387 170.067 50.9253 169.747 50.776C169.438 50.6267 169.086 50.552 168.691 50.552C168.275 50.552 167.955 50.6267 167.731 50.776C167.518 50.9147 167.411 51.112 167.411 51.368C167.411 51.624 167.507 51.8213 167.699 51.96C167.891 52.0987 168.142 52.216 168.451 52.312C168.771 52.408 169.102 52.5093 169.443 52.616C169.784 52.712 170.11 52.8453 170.419 53.016C170.728 53.1867 170.979 53.416 171.171 53.704C171.374 53.992 171.475 54.3707 171.475 54.84C171.475 55.5547 171.219 56.12 170.707 56.536C170.206 56.952 169.528 57.16 168.675 57.16ZM179.935 57.16C179.178 57.16 178.495 56.9893 177.887 56.648C177.279 56.296 176.799 55.8213 176.447 55.224C176.095 54.6267 175.919 53.9493 175.919 53.192C175.919 52.4453 176.09 51.7733 176.431 51.176C176.783 50.5787 177.253 50.1093 177.839 49.768C178.437 49.416 179.103 49.24 179.839 49.24C180.543 49.24 181.162 49.4 181.695 49.72C182.239 50.04 182.661 50.4827 182.959 51.048C183.269 51.6133 183.423 52.2533 183.423 52.968C183.423 53.0747 183.418 53.192 183.407 53.32C183.397 53.4373 183.375 53.576 183.343 53.736H176.927V52.536H182.575L182.047 53C182.047 52.488 181.957 52.056 181.775 51.704C181.594 51.3413 181.338 51.064 181.007 50.872C180.677 50.6693 180.277 50.568 179.807 50.568C179.317 50.568 178.885 50.6747 178.511 50.888C178.138 51.1013 177.85 51.4 177.647 51.784C177.445 52.168 177.343 52.6213 177.343 53.144C177.343 53.6773 177.45 54.1467 177.663 54.552C177.877 54.9467 178.181 55.256 178.575 55.48C178.97 55.6933 179.423 55.8 179.935 55.8C180.362 55.8 180.751 55.7253 181.103 55.576C181.466 55.4267 181.775 55.2027 182.031 54.904L182.959 55.848C182.597 56.2747 182.149 56.6 181.615 56.824C181.093 57.048 180.533 57.16 179.935 57.16ZM190.37 57V52.568C190.37 51.992 190.188 51.5173 189.826 51.144C189.463 50.7707 188.994 50.584 188.418 50.584C188.034 50.584 187.692 50.6693 187.394 50.84C187.095 51.0107 186.86 51.2453 186.69 51.544C186.519 51.8427 186.434 52.184 186.434 52.568L185.842 52.232C185.842 51.656 185.97 51.144 186.226 50.696C186.482 50.248 186.839 49.896 187.298 49.64C187.756 49.3733 188.274 49.24 188.85 49.24C189.426 49.24 189.932 49.384 190.37 49.672C190.818 49.96 191.17 50.3387 191.426 50.808C191.682 51.2667 191.81 51.7573 191.81 52.28V57H190.37ZM184.993 57V49.4H186.434V57H184.993ZM196.911 60.344C196.132 60.344 195.439 60.2 194.831 59.912C194.234 59.624 193.754 59.2187 193.391 58.696L194.319 57.752C194.628 58.1467 194.996 58.4453 195.423 58.648C195.85 58.8613 196.356 58.968 196.943 58.968C197.722 58.968 198.335 58.76 198.783 58.344C199.242 57.9387 199.471 57.3893 199.471 56.696V54.808L199.727 53.096L199.471 51.4V49.4H200.911V56.696C200.911 57.4213 200.74 58.056 200.399 58.6C200.068 59.144 199.599 59.5707 198.991 59.88C198.394 60.1893 197.7 60.344 196.911 60.344ZM196.911 56.872C196.218 56.872 195.594 56.7067 195.039 56.376C194.495 56.0453 194.063 55.592 193.743 55.016C193.423 54.4293 193.263 53.7733 193.263 53.048C193.263 52.3227 193.423 51.6773 193.743 51.112C194.063 50.536 194.495 50.0827 195.039 49.752C195.594 49.4107 196.218 49.24 196.911 49.24C197.508 49.24 198.036 49.3573 198.495 49.592C198.954 49.8267 199.316 50.1573 199.583 50.584C199.86 51 200.01 51.4907 200.031 52.056V54.072C199.999 54.6267 199.844 55.1173 199.567 55.544C199.3 55.96 198.938 56.2853 198.479 56.52C198.02 56.7547 197.498 56.872 196.911 56.872ZM197.199 55.512C197.668 55.512 198.079 55.4107 198.431 55.208C198.794 55.0053 199.071 54.7227 199.263 54.36C199.455 53.9867 199.551 53.5547 199.551 53.064C199.551 52.5733 199.45 52.1467 199.247 51.784C199.055 51.4107 198.783 51.1227 198.431 50.92C198.079 50.7067 197.663 50.6 197.183 50.6C196.703 50.6 196.282 50.7067 195.919 50.92C195.556 51.1227 195.268 51.4107 195.055 51.784C194.852 52.1467 194.751 52.568 194.751 53.048C194.751 53.528 194.852 53.9547 195.055 54.328C195.268 54.7013 195.556 54.9947 195.919 55.208C196.292 55.4107 196.719 55.512 197.199 55.512ZM203.041 57V49.4H204.481V57H203.041ZM203.761 47.88C203.494 47.88 203.275 47.7947 203.105 47.624C202.934 47.4427 202.849 47.2187 202.849 46.952C202.849 46.696 202.934 46.4827 203.105 46.312C203.275 46.1307 203.494 46.04 203.761 46.04C204.027 46.04 204.246 46.1307 204.417 46.312C204.587 46.4827 204.673 46.696 204.673 46.952C204.673 47.2187 204.587 47.4427 204.417 47.624C204.246 47.7947 204.027 47.88 203.761 47.88ZM211.979 57V52.568C211.979 51.992 211.798 51.5173 211.435 51.144C211.072 50.7707 210.603 50.584 210.027 50.584C209.643 50.584 209.302 50.6693 209.003 50.84C208.704 51.0107 208.47 51.2453 208.299 51.544C208.128 51.8427 208.043 52.184 208.043 52.568L207.451 52.232C207.451 51.656 207.579 51.144 207.835 50.696C208.091 50.248 208.448 49.896 208.907 49.64C209.366 49.3733 209.883 49.24 210.459 49.24C211.035 49.24 211.542 49.384 211.979 49.672C212.427 49.96 212.779 50.3387 213.035 50.808C213.291 51.2667 213.419 51.7573 213.419 52.28V57H211.979ZM206.603 57V49.4H208.043V57H206.603ZM218.889 57.16C218.131 57.16 217.449 56.9893 216.841 56.648C216.233 56.296 215.753 55.8213 215.401 55.224C215.049 54.6267 214.873 53.9493 214.873 53.192C214.873 52.4453 215.043 51.7733 215.385 51.176C215.737 50.5787 216.206 50.1093 216.793 49.768C217.39 49.416 218.057 49.24 218.793 49.24C219.497 49.24 220.115 49.4 220.649 49.72C221.193 50.04 221.614 50.4827 221.913 51.048C222.222 51.6133 222.377 52.2533 222.377 52.968C222.377 53.0747 222.371 53.192 222.361 53.32C222.35 53.4373 222.329 53.576 222.297 53.736H215.881V52.536H221.529L221.001 53C221.001 52.488 220.91 52.056 220.729 51.704C220.547 51.3413 220.291 51.064 219.961 50.872C219.63 50.6693 219.23 50.568 218.761 50.568C218.27 50.568 217.838 50.6747 217.465 50.888C217.091 51.1013 216.803 51.4 216.601 51.784C216.398 52.168 216.297 52.6213 216.297 53.144C216.297 53.6773 216.403 54.1467 216.617 54.552C216.83 54.9467 217.134 55.256 217.529 55.48C217.923 55.6933 218.377 55.8 218.889 55.8C219.315 55.8 219.705 55.7253 220.057 55.576C220.419 55.4267 220.729 55.2027 220.985 54.904L221.913 55.848C221.55 56.2747 221.102 56.6 220.569 56.824C220.046 57.048 219.486 57.16 218.889 57.16ZM227.467 57.16C226.709 57.16 226.027 56.9893 225.419 56.648C224.811 56.296 224.331 55.8213 223.979 55.224C223.627 54.6267 223.451 53.9493 223.451 53.192C223.451 52.4453 223.621 51.7733 223.963 51.176C224.315 50.5787 224.784 50.1093 225.371 49.768C225.968 49.416 226.635 49.24 227.371 49.24C228.075 49.24 228.693 49.4 229.227 49.72C229.771 50.04 230.192 50.4827 230.491 51.048C230.8 51.6133 230.955 52.2533 230.955 52.968C230.955 53.0747 230.949 53.192 230.939 53.32C230.928 53.4373 230.907 53.576 230.875 53.736H224.459V52.536H230.107L229.579 53C229.579 52.488 229.488 52.056 229.307 51.704C229.125 51.3413 228.869 51.064 228.539 50.872C228.208 50.6693 227.808 50.568 227.339 50.568C226.848 50.568 226.416 50.6747 226.043 50.888C225.669 51.1013 225.381 51.4 225.179 51.784C224.976 52.168 224.875 52.6213 224.875 53.144C224.875 53.6773 224.981 54.1467 225.195 54.552C225.408 54.9467 225.712 55.256 226.107 55.48C226.501 55.6933 226.955 55.8 227.467 55.8C227.893 55.8 228.283 55.7253 228.635 55.576C228.997 55.4267 229.307 55.2027 229.563 54.904L230.491 55.848C230.128 56.2747 229.68 56.6 229.147 56.824C228.624 57.048 228.064 57.16 227.467 57.16ZM232.525 57V49.4H233.965V57H232.525ZM233.965 52.664L233.421 52.424C233.421 51.4533 233.645 50.68 234.093 50.104C234.541 49.528 235.186 49.24 236.029 49.24C236.413 49.24 236.759 49.3093 237.069 49.448C237.378 49.576 237.666 49.7947 237.933 50.104L236.989 51.08C236.829 50.9093 236.653 50.7867 236.461 50.712C236.269 50.6373 236.045 50.6 235.789 50.6C235.255 50.6 234.818 50.7707 234.477 51.112C234.135 51.4533 233.965 51.9707 233.965 52.664Z" fill="black"/>
</svg>
