<svg width="26" height="27" viewBox="0 0 26 27" fill="none" xmlns="http://www.w3.org/2000/svg">
<g clip-path="url(#clip0_756_834)">
<path d="M23.2601 0.5H1.34081C0.641256 0.5 0 1.1456 0 1.90858V4.37359C0 5.13657 0.641256 5.78217 1.34081 5.78217H23.2601C24.0179 5.78217 24.6009 5.13657 24.6592 4.37359V1.90858C24.6592 1.1456 24.0179 0.5 23.2601 0.5ZM23.2601 14.351H1.34081C0.991031 14.351 0.641256 14.5271 0.349776 14.7618C0.116592 14.9966 0 15.3488 0 15.7596V18.2246C0 18.9876 0.641256 19.6332 1.34081 19.6332H23.2601C24.0179 19.6332 24.6009 19.0463 24.6592 18.2246V15.7596C24.6592 14.9379 24.0179 14.351 23.2601 14.351ZM13.6996 21.2765H1.34081C0.991031 21.2765 0.641256 21.3939 0.408072 21.6874C0.174888 21.9221 0 22.2743 0 22.6851V25.1501C0 25.9131 0.641256 26.5587 1.34081 26.5587H13.6413C14.3991 26.5587 14.9821 25.9131 14.9821 25.1501V22.6264C15.0404 21.8634 14.4574 21.2765 13.6996 21.2765ZM24.6592 7.42551H1.34081C0.991031 7.42551 0.641256 7.54289 0.408072 7.83634C0.174888 8.07111 0 8.42325 0 8.83408V11.2991C0 12.0621 0.641256 12.7077 1.34081 12.7077H24.6009C25.3587 12.7077 25.9417 12.0621 25.9417 11.2991V8.83408C26 8.07111 25.417 7.42551 24.6592 7.42551Z" fill="#00C3F7"/>
</g>
<defs>
<clipPath id="clip0_756_834">
<rect width="26" height="26" fill="white" transform="translate(0 0.5)"/>
</clipPath>
</defs>
</svg>
