<svg width="20" height="20" viewBox="0 0 20 20" fill="none" xmlns="http://www.w3.org/2000/svg">
<g clip-path="url(#clip0_756_857)">
<path d="M6.83886 9.79756C6.91634 9.87495 6.9778 9.96686 7.01974 10.068C7.06168 10.1692 7.08326 10.2776 7.08326 10.3871C7.08326 10.4967 7.06168 10.6051 7.01974 10.7063C6.9778 10.8074 6.91634 10.8993 6.83886 10.9767L5.31636 12.5001H13.333C13.554 12.5001 13.766 12.5879 13.9223 12.7441C14.0786 12.9004 14.1664 13.1124 14.1664 13.3334C14.1664 13.5544 14.0786 13.7664 13.9223 13.9226C13.766 14.0789 13.554 14.1667 13.333 14.1667H5.31636L6.83969 15.6901C6.91712 15.7674 6.97854 15.8593 7.02047 15.9604C7.06239 16.0615 7.08399 16.1699 7.08403 16.2793C7.08407 16.3888 7.06255 16.4972 7.02069 16.5983C6.97884 16.6995 6.91748 16.7914 6.84011 16.8688C6.76274 16.9462 6.67088 17.0077 6.56976 17.0496C6.46865 17.0915 6.36028 17.1131 6.25082 17.1131C6.14136 17.1132 6.03297 17.0917 5.93183 17.0498C5.83069 17.008 5.73878 16.9466 5.66136 16.8692L2.71469 13.9226C2.55847 13.7663 2.4707 13.5544 2.4707 13.3334C2.4707 13.1124 2.55847 12.9005 2.71469 12.7442L5.66136 9.79756C5.81763 9.64133 6.02956 9.55357 6.25053 9.55357C6.4715 9.55357 6.68342 9.64133 6.83969 9.79756H6.83886ZM13.1605 3.13089C13.304 2.98741 13.4949 2.90122 13.6975 2.88848C13.9 2.87575 14.1002 2.93735 14.2605 3.06173L14.3389 3.13089L17.2855 6.07756C17.429 6.22105 17.5152 6.41197 17.5279 6.61449C17.5407 6.81701 17.4791 7.01722 17.3547 7.17756L17.2855 7.25589L14.3389 10.2017C14.1889 10.3512 13.9877 10.438 13.776 10.4444C13.5644 10.4509 13.3583 10.3765 13.1995 10.2365C13.0407 10.0965 12.9411 9.90127 12.921 9.6905C12.9009 9.47973 12.9618 9.26922 13.0914 9.10173L13.1605 9.02339L14.683 7.50006H6.66636C6.45396 7.49982 6.24966 7.41849 6.09522 7.27269C5.94077 7.12688 5.84783 6.9276 5.83538 6.71556C5.82293 6.50353 5.89192 6.29474 6.02825 6.13186C6.16457 5.96899 6.35795 5.86431 6.56886 5.83923L6.66636 5.83339H14.6839L13.1605 4.30839C13.0043 4.15212 12.9165 3.9402 12.9165 3.71923C12.9165 3.49825 13.0043 3.28716 13.1605 3.13089Z" fill="#63696E"/>
</g>
<defs>
<clipPath id="clip0_756_857">
<rect width="20" height="20" fill="white"/>
</clipPath>
</defs>
</svg>
