<svg width="16" height="16" viewBox="0 0 16 16" fill="none" xmlns="http://www.w3.org/2000/svg">
<path d="M4.00039 3.2C3.57604 3.2 3.16908 3.03143 2.86902 2.73137C2.56896 2.43131 2.40039 2.02435 2.40039 1.6C2.40039 1.17565 2.56896 0.768687 2.86902 0.468629C3.16908 0.168571 3.57604 0 4.00039 0C4.42474 0 4.8317 0.168571 5.13176 0.468629C5.43182 0.768687 5.60039 1.17565 5.60039 1.6C5.60039 2.02435 5.43182 2.43131 5.13176 2.73137C4.8317 3.03143 4.42474 3.2 4.00039 3.2ZM8.00039 3.2C7.57604 3.2 7.16908 3.03143 6.86902 2.73137C6.56896 2.43131 6.40039 2.02435 6.40039 1.6C6.40039 1.17565 6.56896 0.768687 6.86902 0.468629C7.16908 0.168571 7.57604 0 8.00039 0C8.42474 0 8.8317 0.168571 9.13176 0.468629C9.43182 0.768687 9.60039 1.17565 9.60039 1.6C9.60039 2.02435 9.43182 2.43131 9.13176 2.73137C8.8317 3.03143 8.42474 3.2 8.00039 3.2ZM12.0004 3.2C11.576 3.2 11.1691 3.03143 10.869 2.73137C10.569 2.43131 10.4004 2.02435 10.4004 1.6C10.4004 1.17565 10.569 0.768687 10.869 0.468629C11.1691 0.168571 11.576 0 12.0004 0C12.4247 0 12.8317 0.168571 13.1318 0.468629C13.4318 0.768687 13.6004 1.17565 13.6004 1.6C13.6004 2.02435 13.4318 2.43131 13.1318 2.73137C12.8317 3.03143 12.4247 3.2 12.0004 3.2ZM4.00039 7.2C3.57604 7.2 3.16908 7.03143 2.86902 6.73137C2.56896 6.43131 2.40039 6.02435 2.40039 5.6C2.40039 5.17565 2.56896 4.76869 2.86902 4.46863C3.16908 4.16857 3.57604 4 4.00039 4C4.42474 4 4.8317 4.16857 5.13176 4.46863C5.43182 4.76869 5.60039 5.17565 5.60039 5.6C5.60039 6.02435 5.43182 6.43131 5.13176 6.73137C4.8317 7.03143 4.42474 7.2 4.00039 7.2ZM8.00039 7.2C7.57604 7.2 7.16908 7.03143 6.86902 6.73137C6.56896 6.43131 6.40039 6.02435 6.40039 5.6C6.40039 5.17565 6.56896 4.76869 6.86902 4.46863C7.16908 4.16857 7.57604 4 8.00039 4C8.42474 4 8.8317 4.16857 9.13176 4.46863C9.43182 4.76869 9.60039 5.17565 9.60039 5.6C9.60039 6.02435 9.43182 6.43131 9.13176 6.73137C8.8317 7.03143 8.42474 7.2 8.00039 7.2ZM12.0004 7.2C11.576 7.2 11.1691 7.03143 10.869 6.73137C10.569 6.43131 10.4004 6.02435 10.4004 5.6C10.4004 5.17565 10.569 4.76869 10.869 4.46863C11.1691 4.16857 11.576 4 12.0004 4C12.4247 4 12.8317 4.16857 13.1318 4.46863C13.4318 4.76869 13.6004 5.17565 13.6004 5.6C13.6004 6.02435 13.4318 6.43131 13.1318 6.73137C12.8317 7.03143 12.4247 7.2 12.0004 7.2ZM4.00039 11.2C3.57604 11.2 3.16908 11.0314 2.86902 10.7314C2.56896 10.4313 2.40039 10.0243 2.40039 9.6C2.40039 9.17565 2.56896 8.76869 2.86902 8.46863C3.16908 8.16857 3.57604 8 4.00039 8C4.42474 8 4.8317 8.16857 5.13176 8.46863C5.43182 8.76869 5.60039 9.17565 5.60039 9.6C5.60039 10.0243 5.43182 10.4313 5.13176 10.7314C4.8317 11.0314 4.42474 11.2 4.00039 11.2ZM8.00039 11.2C7.57604 11.2 7.16908 11.0314 6.86902 10.7314C6.56896 10.4313 6.40039 10.0243 6.40039 9.6C6.40039 9.17565 6.56896 8.76869 6.86902 8.46863C7.16908 8.16857 7.57604 8 8.00039 8C8.42474 8 8.8317 8.16857 9.13176 8.46863C9.43182 8.76869 9.60039 9.17565 9.60039 9.6C9.60039 10.0243 9.43182 10.4313 9.13176 10.7314C8.8317 11.0314 8.42474 11.2 8.00039 11.2ZM8.00039 16C7.57604 16 7.16908 15.8314 6.86902 15.5314C6.56896 15.2313 6.40039 14.8243 6.40039 14.4C6.40039 13.9757 6.56896 13.5687 6.86902 13.2686C7.16908 12.9686 7.57604 12.8 8.00039 12.8C8.42474 12.8 8.8317 12.9686 9.13176 13.2686C9.43182 13.5687 9.60039 13.9757 9.60039 14.4C9.60039 14.8243 9.43182 15.2313 9.13176 15.5314C8.8317 15.8314 8.42474 16 8.00039 16ZM12.0004 11.2C11.576 11.2 11.1691 11.0314 10.869 10.7314C10.569 10.4313 10.4004 10.0243 10.4004 9.6C10.4004 9.17565 10.569 8.76869 10.869 8.46863C11.1691 8.16857 11.576 8 12.0004 8C12.4247 8 12.8317 8.16857 13.1318 8.46863C13.4318 8.76869 13.6004 9.17565 13.6004 9.6C13.6004 10.0243 13.4318 10.4313 13.1318 10.7314C12.8317 11.0314 12.4247 11.2 12.0004 11.2Z" fill="#63696E"/>
</svg>
